<svg xmlns="http://www.w3.org/2000/svg" xmlns:xlink="http://www.w3.org/1999/xlink" width="172.72mm" height="150.178mm" viewBox="4010 3350 272 236.5"><title></title><style type="text/css">
*[layerid="1"] {stroke:#FF0000;fill:#FF0000;}
*[layerid="2"] {stroke:#0000FF;fill:#0000FF;}
*[layerid="3"] {stroke:#FFCC00;fill:#FFCC00;}
*[layerid="4"] {stroke:#66CC33;fill:#66CC33;}
*[layerid="5"] {stroke:#808080;fill:#808080;}
*[layerid="6"] {stroke:#800000;fill:#800000;}
*[layerid="7"] {stroke:#800080;fill:#800080;stroke-opacity:0.7;fill-opacity:0.7;}
*[layerid="8"] {stroke:#AA00FF;fill:#AA00FF;stroke-opacity:0.7;fill-opacity:0.7;}
*[layerid="9"] {stroke:#6464FF;fill:#6464FF;}
*[layerid="10"] {stroke:#FF00FF;fill:#FF00FF;}
*[layerid="11"] {stroke:#C0C0C0;fill:#C0C0C0;}
*[layerid="12"] {stroke:#FFFFFF;fill:#FFFFFF;}
*[layerid="13"] {stroke:#33CC99;fill:#33CC99;}
*[layerid="14"] {stroke:#5555FF;fill:#5555FF;}
*[layerid="15"] {stroke:#F022F0;fill:#F022F0;}
*[layerid="19"] {stroke:#66CCFF;fill:#66CCFF;}
*[layerid="21"] {stroke:#999966;fill:#999966;}
*[layerid="22"] {stroke:#008000;fill:#008000;}
*[layerid="23"] {stroke:#00FF00;fill:#00FF00;}
*[layerid="24"] {stroke:#BC8E00;fill:#BC8E00;}
*[layerid="25"] {stroke:#70DBFA;fill:#70DBFA;}
*[layerid="26"] {stroke:#00CC66;fill:#00CC66;}
*[layerid="27"] {stroke:#9966FF;fill:#9966FF;}
*[layerid="28"] {stroke:#800080;fill:#800080;}
*[layerid="29"] {stroke:#008080;fill:#008080;}
*[layerid="30"] {stroke:#15935F;fill:#15935F;}
*[layerid="31"] {stroke:#000080;fill:#000080;}
*[layerid="32"] {stroke:#00B400;fill:#00B400;}
*[layerid="33"] {stroke:#2E4756;fill:#2E4756;}
*[layerid="34"] {stroke:#99842F;fill:#99842F;}
*[layerid="35"] {stroke:#FFFFAA;fill:#FFFFAA;}
*[layerid="36"] {stroke:#99842F;fill:#99842F;}
*[layerid="37"] {stroke:#2E4756;fill:#2E4756;}
*[layerid="38"] {stroke:#3535FF;fill:#3535FF;}
*[layerid="39"] {stroke:#8000BC;fill:#8000BC;}
*[layerid="40"] {stroke:#43AE5F;fill:#43AE5F;}
*[layerid="41"] {stroke:#C3ECCE;fill:#C3ECCE;}
*[layerid="42"] {stroke:#728978;fill:#728978;}
*[layerid="43"] {stroke:#39503F;fill:#39503F;}
*[layerid="44"] {stroke:#0C715D;fill:#0C715D;}
*[layerid="45"] {stroke:#5A8A80;fill:#5A8A80;}
*[layerid="46"] {stroke:#2B937E;fill:#2B937E;}
*[layerid="47"] {stroke:#23999D;fill:#23999D;}
*[layerid="48"] {stroke:#45B4E3;fill:#45B4E3;}
*[layerid="49"] {stroke:#215DA1;fill:#215DA1;}
*[layerid="50"] {stroke:#4564D7;fill:#4564D7;}
*[layerid="51"] {stroke:#6969E9;fill:#6969E9;}
*[layerid="52"] {stroke:#9069E9;fill:#9069E9;}
*[layerid="99"] {stroke:#00CCCC;fill:#00CCCC;stroke-opacity:0.6;fill-opacity:0.6;}
*[layerid="100"] {stroke:#CC9999;fill:#CC9999;}
*[layerid="101"] {stroke:#66FFCC;fill:#66FFCC;}
*[layerid="Hole"] {stroke:#222222;fill:#222222;}
*[layerid="DRCError"] {stroke:#FAD609;fill:#FAD609;}
*[fill="none"] {fill: none;}
*[stroke="none"] {stroke: none;}
path, polyline, polygon, line {stroke-linecap:round;}
g[c_partid="part_pad"][layerid="1"] ellipse:not([c_padid]) {fill:#FF0000;}
g[c_partid="part_pad"][layerid="1"]  polygon:not([c_padid]) {fill:#FF0000;}
g[c_partid="part_pad"][layerid="1"]  polyline:not([c_padid]) {stroke:#FF0000;}
g[c_partid="part_pad"][layerid="1"]  circle {fill:#FF0000;}
g[c_partid="part_pad"][layerid="2"]  ellipse:not([c_padid]) {fill:#0000FF;}
g[c_partid="part_pad"][layerid="2"]  polygon:not([c_padid]) {fill:#0000FF;}
g[c_partid="part_pad"][layerid="2"]  polyline:not([c_padid]) {stroke:#0000FF;}
g[c_partid="part_pad"][layerid="2"]  circle {fill:#0000FF;}
g[c_partid="part_pad"][layerid="11"]  ellipse:not([c_padid]) {fill:#C0C0C0;}
g[c_partid="part_pad"][layerid="11"]  polygon:not([c_padid]) {fill:#C0C0C0;}
g[c_partid="part_pad"][layerid="11"]  polyline:not([c_padid]) {stroke:#C0C0C0;}
g[c_partid="part_pad"][layerid="11"]  circle {fill:#C0C0C0;}
g[c_partid="part_pad"][layerid] > circle[c_padhole] {fill: #222222;}
g[c_partid="part_pad"][layerid] > polyline[c_padhole] {stroke:#222222;}
g[c_partid="part_via"][layerid] > * + circle {fill: #222222;}
g[c_partid="part_pad"] > polygon[c_padid] {stroke-linejoin: miter;stroke-miterlimit: 100;}
g[c_partid="part_hole"] > circle {fill: #222222;}path, polyline, polygon {stroke-linejoin:round;}
rect, circle, ellipse, polyline, line, polygon, path {shape-rendering:crispEdges;}
</style>
<rect x="4010" y="3350" width="272" height="236.5" fill="#000000" stroke="none"/><g id="g1" cpara="package`C0402`Contributor`lcsc`link`https://item.szlcsc.com/15869.html`3DModel`C0402_L1.0-W0.5-H0.5`BOM_Supplier`LCSC`BOM_Manufacturer`YAGEO(&#x56fd;&#x5de8;)`BOM_Manufacturer Part`CC0402KRX7R9BB221`nameAlias`Capacitance`BOM_Supplier Part`C107025`BOM_JLCPCB Part Class`Extended Part`spicePre`C`spiceSymbolName`CC0402KRX7R9BB221`" c_transformList="" importFlag="0" xmlns="http://www.w3.org/2000/svg"><polyline points="4102.047 3466.299 4105.105 3463.241 4105.105 3390.128" stroke-width="1" c_shapetype="line" stroke-linecap="round" fill="none" layerid="2" net="GND" id="gge14008" /><polyline points="4172.047 3566.299 4197.047 3541.299 4197.047 3428.638 4198.5 3427.185" stroke-width="1" c_shapetype="line" stroke-linecap="round" fill="none" layerid="2" net="GND" id="gge14029" /><polyline points="4105.105 3390.128 4104.256 3389.279 4104.256 3386" stroke-width="1" c_shapetype="line" stroke-linecap="round" fill="none" layerid="1" net="GND" id="gge14005" /><polyline points="4103 3402.589 4103 3400.585" stroke-width="1" c_shapetype="line" stroke-linecap="round" fill="none" layerid="1" net="GND" id="gge14011" /><polyline points="4039.5 3430 4034.994 3434.506 4034.994 3441.332 4054.399 3460.737 4096.485 3460.737 4102.047 3466.299" stroke-width="1" c_shapetype="line" stroke-linecap="round" fill="none" layerid="1" net="GND" id="gge14014" /><polyline points="4103 3402.589 4094.089 3411.5 4058 3411.5 4039.5 3430" stroke-width="1" c_shapetype="line" stroke-linecap="round" fill="none" layerid="1" net="GND" id="gge14017" /><polyline points="4153 3411.646 4112.057 3411.646 4103 3402.589" stroke-width="1" c_shapetype="line" stroke-linecap="round" fill="none" layerid="1" net="GND" id="gge14020" /><polyline points="4153.331 3411.646 4153 3411.646" stroke-width="1" c_shapetype="line" stroke-linecap="round" fill="none" layerid="1" net="GND" id="gge14023" /><polyline points="4153.331 3411.646 4155.564 3411.646" stroke-width="1" c_shapetype="line" stroke-linecap="round" fill="none" layerid="1" net="GND" id="gge14026" /><polyline points="4232.047 3566.299 4227.396 3566.299" stroke-width="1" c_shapetype="line" stroke-linecap="round" fill="none" layerid="1" net="GND" id="gge14032" /><polyline points="4227.396 3566.299 4227.396 3568.624 4225.041 3570.979 4176.727 3570.979 4172.047 3566.299" stroke-width="1" c_shapetype="line" stroke-linecap="round" fill="none" layerid="1" net="GND" id="gge14035" /><polyline points="4155.564 3411.646 4171.103 3427.185 4198.5 3427.185" stroke-width="1" c_shapetype="line" stroke-linecap="round" fill="none" layerid="1" net="GND" id="gge14038" /><polyline points="4151.117 3369.5 4180.185 3369.5 4198.5 3387.815" stroke-width="1" c_shapetype="line" stroke-linecap="round" fill="none" layerid="1" net="U2_3" id="gge14044" /><polyline points="4074.946 3440 4079.946 3445" stroke-width="1" c_shapetype="line" stroke-linecap="round" fill="none" layerid="1" net="+3V3" id="gge14047" /><polyline points="4039.5 3440 4074.946 3440" stroke-width="1" c_shapetype="line" stroke-linecap="round" fill="none" layerid="1" net="+3V3" id="gge14050" /><polyline points="4074.946 3440 4074.946 3428.641 4086.892 3416.695 4089.633 3416.695 4093 3420.062 4093 3422.415" stroke-width="1" c_shapetype="line" stroke-linecap="round" fill="none" layerid="1" net="+3V3" id="gge14053" /><polyline points="4232.047 3466.299 4227.396 3466.299" stroke-width="1" c_shapetype="line" stroke-linecap="round" fill="none" layerid="1" net="+3V3" id="gge14056" /><polyline points="4227.396 3466.299 4227.396 3468.624 4224.729 3471.291 4140.032 3471.291 4137.047 3468.306 4137.047 3464.139 4123.541 3450.633 4088.667 3450.633 4083.034 3445" stroke-width="1" c_shapetype="line" stroke-linecap="round" fill="none" layerid="1" net="+3V3" id="gge14059" /><polyline points="4083.034 3445 4079.946 3445" stroke-width="1" c_shapetype="line" stroke-linecap="round" fill="none" layerid="1" net="+3V3" id="gge14062" /><polyline points="4039.5 3420 4053.321 3406.179 4090.204 3406.179 4093 3403.383 4093 3400.585" stroke-width="1" c_shapetype="line" stroke-linecap="round" fill="none" layerid="1" net="+12V" id="gge14065" /><polyline points="4098.744 3385.014 4093 3390.758 4093 3400.585" stroke-width="1" c_shapetype="line" stroke-linecap="round" fill="none" layerid="1" net="+12V" id="gge14068" /><polyline points="4098.744 3384.363 4098.744 3382.727" stroke-width="1" c_shapetype="line" stroke-linecap="round" fill="none" layerid="1" net="+12V" id="gge14071" /><polyline points="4098.744 3386 4098.744 3385.014" stroke-width="1" c_shapetype="line" stroke-linecap="round" fill="none" layerid="1" net="+12V" id="gge14074" /><polyline points="4098.744 3384.363 4098.744 3385.014" stroke-width="1" c_shapetype="line" stroke-linecap="round" fill="none" layerid="1" net="+12V" id="gge14077" /><polyline points="4108.884 3373.511 4099.668 3382.727 4098.744 3382.727" stroke-width="1" c_shapetype="line" stroke-linecap="round" fill="none" layerid="1" net="+12V" id="gge14080" /><polyline points="4108.884 3373.511 4108.884 3372.023" stroke-width="1" c_shapetype="line" stroke-linecap="round" fill="none" layerid="1" net="+12V" id="gge14083" /><polyline points="4108.884 3375 4108.884 3373.511" stroke-width="1" c_shapetype="line" stroke-linecap="round" fill="none" layerid="1" net="+12V" id="gge14086" /><polyline points="4141.884 3369.5 4111.407 3369.5 4108.884 3372.023" stroke-width="1" c_shapetype="line" stroke-linecap="round" fill="none" layerid="1" net="+12V" id="gge14089" /><polyline points="4088.966 3445 4088.966 3423.381 4088 3422.415" stroke-width="1" c_shapetype="line" stroke-linecap="round" fill="none" layerid="1" net="RXD" id="gge14092" /><polyline points="4142.047 3466.299 4120.748 3445 4088.966 3445" stroke-width="1" c_shapetype="line" stroke-linecap="round" fill="none" layerid="1" net="RXD" id="gge14095" /><polyline points="4118.117 3375 4125.034 3375" stroke-width="1" c_shapetype="line" stroke-linecap="round" fill="none" layerid="1" net="R2_2" id="gge14098" /><polyline points="4152.047 3466.299 4108.163 3422.415 4103 3422.415" stroke-width="1" c_shapetype="line" stroke-linecap="round" fill="none" layerid="1" net="TXD" id="gge14101" /><polyline points="4134.054 3394.924 4101.537 3394.924 4098 3398.461 4098 3400.585" stroke-width="1" c_shapetype="line" stroke-linecap="round" fill="none" layerid="1" net="LINBUS" id="gge14104" /><polyline points="4150.436 3407.354 4138.006 3394.924 4134.054 3394.924" stroke-width="1" c_shapetype="line" stroke-linecap="round" fill="none" layerid="1" net="LINBUS" id="gge14107" /><polyline points="4134.054 3394.924 4134.054 3375" stroke-width="1" c_shapetype="line" stroke-linecap="round" fill="none" layerid="1" net="LINBUS" id="gge14110" /><polyline points="4130.966 3375 4134.054 3375" stroke-width="1" c_shapetype="line" stroke-linecap="round" fill="none" layerid="1" net="LINBUS" id="gge14113" /><polyline points="4153 3407.354 4150.436 3407.354" stroke-width="1" c_shapetype="line" stroke-linecap="round" fill="none" layerid="1" net="LINBUS" id="gge14116" /><polyline points="4198.5 3407.5 4198.354 3407.354 4153 3407.354" stroke-width="1" c_shapetype="line" stroke-linecap="round" fill="none" layerid="1" net="LINBUS" id="gge14119" /><g c_partid="part_pad" c_etype="pinpart" c_origin="4088.97,3445" layerid="1" number="2" net="RXD" plated ="Y" c_shapetype="group" id="gge345" locked="0" c_rotation="0" c_width="3.1751" c_height="3.4016" title="RXD" c_shape="RECT" pasteExpansion="-393.7008" solderExpansion="0.2000"><polygon points="4087.378 3446.701 4087.378 3443.299 4090.553 3443.299 4090.553 3446.701" stroke-width="0" /><circle c_padhole="1" cx="4088.9655" cy="3445" r="0" stroke-width="0" /></g><g c_partid="part_pad" c_etype="pinpart" c_origin="4083.03,3445" layerid="1" number="1" net="+3V3" plated ="Y" c_shapetype="group" id="gge357" locked="0" c_rotation="0" c_width="3.1751" c_height="3.4016" title="+3V3" c_shape="RECT" pasteExpansion="-393.7008" solderExpansion="0.2000"><polygon points="4084.622 3446.701 4084.622 3443.299 4081.447 3443.299 4081.447 3446.701" stroke-width="0" /><circle c_padhole="1" cx="4083.0345" cy="3445" r="0" stroke-width="0" /></g><g c_partid="part_pad" c_etype="pinpart" c_origin="4088,3422.42" layerid="1" number="1" net="RXD" plated ="Y" c_shapetype="group" id="gge459" locked="0" c_rotation="0" c_width="2.315" c_height="8.0512" title="RXD" c_shape="OVAL" pasteExpansion="0.0000" solderExpansion="0.2000"><polyline points="4088 3419.552 4088 3425.288" stroke-width="2.315" /><circle c_padhole="1" cx="4088" cy="3422.4154" r="0" stroke-width="0" /></g><g c_partid="part_pad" c_etype="pinpart" c_origin="4093,3422.42" layerid="1" number="2" net="+3V3" plated ="Y" c_shapetype="group" id="gge474" locked="0" c_rotation="0" c_width="2.315" c_height="8.0512" title="+3V3" c_shape="OVAL" pasteExpansion="0.0000" solderExpansion="0.2000"><polyline points="4093 3419.552 4093 3425.288" stroke-width="2.315" /><circle c_padhole="1" cx="4093" cy="3422.4154" r="0" stroke-width="0" /></g><g c_partid="part_pad" c_etype="pinpart" c_origin="4098,3422.42" layerid="1" number="3" net="" plated ="Y" c_shapetype="group" id="gge489" locked="0" c_rotation="0" c_width="2.315" c_height="8.0512" title="" c_shape="OVAL" pasteExpansion="0.0000" solderExpansion="0.2000"><polyline points="4098 3419.552 4098 3425.288" stroke-width="2.315" /><circle c_padhole="1" cx="4098" cy="3422.4154" r="0" stroke-width="0" /></g><g c_partid="part_pad" c_etype="pinpart" c_origin="4103,3422.42" layerid="1" number="4" net="TXD" plated ="Y" c_shapetype="group" id="gge504" locked="0" c_rotation="0" c_width="2.315" c_height="8.0512" title="TXD" c_shape="OVAL" pasteExpansion="0.0000" solderExpansion="0.2000"><polyline points="4103 3419.552 4103 3425.288" stroke-width="2.315" /><circle c_padhole="1" cx="4103" cy="3422.4154" r="0" stroke-width="0" /></g><g c_partid="part_pad" c_etype="pinpart" c_origin="4088,3400.59" layerid="1" number="8" net="" plated ="Y" c_shapetype="group" id="gge519" locked="0" c_rotation="0" c_width="2.315" c_height="8.0512" title="" c_shape="OVAL" pasteExpansion="0.0000" solderExpansion="0.2000"><polyline points="4088 3397.722 4088 3403.458" stroke-width="2.315" /><circle c_padhole="1" cx="4088" cy="3400.5846" r="0" stroke-width="0" /></g><g c_partid="part_pad" c_etype="pinpart" c_origin="4093,3400.59" layerid="1" number="7" net="+12V" plated ="Y" c_shapetype="group" id="gge534" locked="0" c_rotation="0" c_width="2.315" c_height="8.0512" title="+12V" c_shape="OVAL" pasteExpansion="0.0000" solderExpansion="0.2000"><polyline points="4093 3397.722 4093 3403.458" stroke-width="2.315" /><circle c_padhole="1" cx="4093" cy="3400.5846" r="0" stroke-width="0" /></g><g c_partid="part_pad" c_etype="pinpart" c_origin="4098,3400.59" layerid="1" number="6" net="LINBUS" plated ="Y" c_shapetype="group" id="gge549" locked="0" c_rotation="0" c_width="2.315" c_height="8.0512" title="LINBUS" c_shape="OVAL" pasteExpansion="0.0000" solderExpansion="0.2000"><polyline points="4098 3397.722 4098 3403.458" stroke-width="2.315" /><circle c_padhole="1" cx="4098" cy="3400.5846" r="0" stroke-width="0" /></g><g c_partid="part_pad" c_etype="pinpart" c_origin="4103,3400.59" layerid="1" number="5" net="GND" plated ="Y" c_shapetype="group" id="gge564" locked="0" c_rotation="0" c_width="2.315" c_height="8.0512" title="GND" c_shape="OVAL" pasteExpansion="0.0000" solderExpansion="0.2000"><polyline points="4103 3397.722 4103 3403.458" stroke-width="2.315" /><circle c_padhole="1" cx="4103" cy="3400.5846" r="0" stroke-width="0" /></g><g c_partid="part_pad" c_etype="pinpart" c_origin="4098.74,3386" layerid="1" number="2" net="+12V" plated ="Y" c_shapetype="group" id="gge3469" locked="0" c_rotation="180" c_width="3.1496" c_height="3.5433" title="+12V" c_shape="RECT" pasteExpansion="0.0000" solderExpansion="0.2000"><polygon points="4100.319 3387.772 4097.169 3387.772 4097.169 3384.228 4100.319 3384.228" stroke-width="0" /><circle c_padhole="1" cx="4098.7445" cy="3386" r="0" stroke-width="0" /></g><g c_partid="part_pad" c_etype="pinpart" c_origin="4104.26,3386" layerid="1" number="1" net="GND" plated ="Y" c_shapetype="group" id="gge3484" locked="0" c_rotation="180" c_width="3.1496" c_height="3.5433" title="GND" c_shape="RECT" pasteExpansion="0.0000" solderExpansion="0.2000"><polygon points="4105.831 3387.772 4102.681 3387.772 4102.681 3384.228 4105.831 3384.228" stroke-width="0" /><circle c_padhole="1" cx="4104.2555" cy="3386" r="0" stroke-width="0" /></g><g c_partid="part_pad" c_etype="pinpart" c_origin="4125.03,3375" layerid="1" number="2" net="R2_2" plated ="Y" c_shapetype="group" id="gge3649" locked="0" c_rotation="180" c_width="3.1751" c_height="3.4016" title="R2_2" c_shape="RECT" pasteExpansion="-393.7008" solderExpansion="0.2000"><polygon points="4126.622 3373.299 4126.622 3376.701 4123.447 3376.701 4123.447 3373.299" stroke-width="0" /><circle c_padhole="1" cx="4125.0345" cy="3375" r="0" stroke-width="0" /></g><g c_partid="part_pad" c_etype="pinpart" c_origin="4130.97,3375" layerid="1" number="1" net="LINBUS" plated ="Y" c_shapetype="group" id="gge3661" locked="0" c_rotation="180" c_width="3.1751" c_height="3.4016" title="LINBUS" c_shape="RECT" pasteExpansion="-393.7008" solderExpansion="0.2000"><polygon points="4129.378 3373.299 4129.378 3376.701 4132.553 3376.701 4132.553 3373.299" stroke-width="0" /><circle c_padhole="1" cx="4130.9655" cy="3375" r="0" stroke-width="0" /></g><g c_partid="part_pad" c_etype="pinpart" c_origin="4108.88,3375" layerid="1" number="2" net="+12V" plated ="Y" c_shapetype="group" id="gge12445" locked="0" c_rotation="180" c_width="3.937" c_height="2.9528" title="+12V" c_shape="RECT" pasteExpansion="0.0000" solderExpansion="0.2000"><polygon points="4110.852 3376.476 4106.915 3376.476 4106.915 3373.524 4110.852 3373.524" stroke-width="0" /><circle c_padhole="1" cx="4108.8835" cy="3375" r="0" stroke-width="0" /></g><g c_partid="part_pad" c_etype="pinpart" c_origin="4118.12,3375" layerid="1" number="1" net="R2_2" plated ="Y" c_shapetype="group" id="gge12460" locked="0" c_rotation="180" c_width="3.937" c_height="2.9528" title="R2_2" c_shape="RECT" pasteExpansion="0.0000" solderExpansion="0.2000"><polygon points="4120.085 3376.476 4116.148 3376.476 4116.148 3373.524 4120.085 3373.524" stroke-width="0" /><circle c_padhole="1" cx="4118.1163" cy="3375" r="0" stroke-width="0" /></g><g c_partid="part_pad" c_etype="pinpart" c_origin="4151.12,3369.5" layerid="1" number="2" net="U2_3" plated ="Y" c_shapetype="group" id="gge12739" locked="0" c_rotation="0" c_width="3.937" c_height="2.9528" title="U2_3" c_shape="RECT" pasteExpansion="0.0000" solderExpansion="0.2000"><polygon points="4149.148 3368.024 4153.085 3368.024 4153.085 3370.976 4149.148 3370.976" stroke-width="0" /><circle c_padhole="1" cx="4151.1165" cy="3369.5" r="0" stroke-width="0" /></g><g c_partid="part_pad" c_etype="pinpart" c_origin="4141.88,3369.5" layerid="1" number="1" net="+12V" plated ="Y" c_shapetype="group" id="gge12754" locked="0" c_rotation="0" c_width="3.937" c_height="2.9528" title="+12V" c_shape="RECT" pasteExpansion="0.0000" solderExpansion="0.2000"><polygon points="4139.915 3368.024 4143.852 3368.024 4143.852 3370.976 4139.915 3370.976" stroke-width="0" /><circle c_padhole="1" cx="4141.8837" cy="3369.5" r="0" stroke-width="0" /></g><g c_partid="part_pad" c_etype="pinpart" c_origin="4153,3411.65" layerid="1" number="2" net="GND" plated ="Y" c_shapetype="group" id="gge13045" locked="0" c_rotation="270" c_width="3.1106" c_height="2.126" title="GND" c_shape="RECT" pasteExpansion="-393.7008" solderExpansion="0.2000"><polygon points="4151.937 3410.091 4154.063 3410.091 4154.063 3413.201 4151.937 3413.201" stroke-width="0" /><circle c_padhole="1" cx="4153" cy="3411.6459" r="0" stroke-width="0" /></g><g c_partid="part_pad" c_etype="pinpart" c_origin="4153,3407.35" layerid="1" number="1" net="LINBUS" plated ="Y" c_shapetype="group" id="gge13057" locked="0" c_rotation="270" c_width="3.1106" c_height="2.126" title="LINBUS" c_shape="RECT" pasteExpansion="-393.7008" solderExpansion="0.2000"><polygon points="4151.937 3408.909 4154.063 3408.909 4154.063 3405.799 4151.937 3405.799" stroke-width="0" /><circle c_padhole="1" cx="4153" cy="3407.3541" r="0" stroke-width="0" /></g><g c_partid="part_pad" c_etype="pinpart" c_origin="4198.5,3387.82" layerid="11" number="3" net="U2_3" plated ="Y" c_shapetype="group" id="gge663" locked="0" c_rotation="90" c_width="9.8425" c_height="9.8425" title="U2_3" c_shape="ELLIPSE" pasteExpansion="0" solderExpansion="0.2"><ellipse cx="4198.5" cy="3387.82" rx="4.92125" ry="4.92125" stroke-width="0" /><circle c_padhole="1" cx="4198.5" cy="3387.8154" r="3.1496" stroke-width="0" /></g><g c_partid="part_pad" c_etype="pinpart" c_origin="4198.5,3427.19" layerid="11" number="1" net="GND" plated ="Y" c_shapetype="group" id="gge678" locked="0" c_rotation="90" c_width="9.8425" c_height="9.8425" title="GND" c_shape="ELLIPSE" pasteExpansion="0" solderExpansion="0.2"><ellipse cx="4198.5" cy="3427.19" rx="4.92125" ry="4.92125" stroke-width="0" /><circle c_padhole="1" cx="4198.5" cy="3427.1855" r="3.1496" stroke-width="0" /></g><g c_partid="part_pad" c_etype="pinpart" c_origin="4198.5,3407.5" layerid="11" number="2" net="LINBUS" plated ="Y" c_shapetype="group" id="gge693" locked="0" c_rotation="90" c_width="9.8425" c_height="9.8425" title="LINBUS" c_shape="ELLIPSE" pasteExpansion="0" solderExpansion="0.2"><ellipse cx="4198.5" cy="3407.5" rx="4.92125" ry="4.92125" stroke-width="0" /><circle c_padhole="1" cx="4198.5" cy="3407.5005" r="3.1496" stroke-width="0" /></g><g c_partid="part_pad" c_etype="pinpart" c_origin="4039.5,3420" layerid="11" number="1" net="+12V" plated ="Y" c_shapetype="group" id="gge1665" locked="0" c_rotation="270" c_width="5.1181" c_height="5.1181" title="+12V" c_shape="ELLIPSE" pasteExpansion="0" solderExpansion="0.1969"><ellipse cx="4039.5" cy="3420" rx="2.55905" ry="2.55905" stroke-width="0" /><circle c_padhole="1" cx="4039.5" cy="3420" r="1.378" stroke-width="0" /></g><g c_partid="part_pad" c_etype="pinpart" c_origin="4039.5,3430" layerid="11" number="2" net="GND" plated ="Y" c_shapetype="group" id="gge1680" locked="0" c_rotation="270" c_width="5.1181" c_height="5.1181" title="GND" c_shape="ELLIPSE" pasteExpansion="0" solderExpansion="0.1969"><ellipse cx="4039.5" cy="3430" rx="2.55905" ry="2.55905" stroke-width="0" /><circle c_padhole="1" cx="4039.5" cy="3430" r="1.378" stroke-width="0" /></g><g c_partid="part_pad" c_etype="pinpart" c_origin="4039.5,3440" layerid="11" number="3" net="+3V3" plated ="Y" c_shapetype="group" id="gge1695" locked="0" c_rotation="270" c_width="5.1181" c_height="5.1181" title="+3V3" c_shape="ELLIPSE" pasteExpansion="0" solderExpansion="0.1969"><ellipse cx="4039.5" cy="3440" rx="2.55905" ry="2.55905" stroke-width="0" /><circle c_padhole="1" cx="4039.5" cy="3440" r="1.378" stroke-width="0" /></g><g c_partid="part_pad" c_etype="pinpart" c_origin="4052.05,3566.3" layerid="11" number="19" net="" plated ="Y" c_shapetype="group" id="gge2674" locked="0" c_rotation="180" c_width="6.2992" c_height="6.2992" title="" c_shape="ELLIPSE" pasteExpansion="0" solderExpansion="0.2"><ellipse cx="4052.05" cy="3566.3" rx="3.1496" ry="3.1496" stroke-width="0" /><circle c_padhole="1" cx="4052.047" cy="3566.2988" r="2.0669" stroke-width="0" /></g><g c_partid="part_pad" c_etype="pinpart" c_origin="4062.05,3566.3" layerid="11" number="18" net="" plated ="Y" c_shapetype="group" id="gge2689" locked="0" c_rotation="180" c_width="6.2992" c_height="6.2992" title="" c_shape="ELLIPSE" pasteExpansion="0" solderExpansion="0.2"><ellipse cx="4062.05" cy="3566.3" rx="3.1496" ry="3.1496" stroke-width="0" /><circle c_padhole="1" cx="4062.047" cy="3566.2988" r="2.0669" stroke-width="0" /></g><g c_partid="part_pad" c_etype="pinpart" c_origin="4072.05,3566.3" layerid="11" number="17" net="" plated ="Y" c_shapetype="group" id="gge2704" locked="0" c_rotation="180" c_width="6.2992" c_height="6.2992" title="" c_shape="ELLIPSE" pasteExpansion="0" solderExpansion="0.2"><ellipse cx="4072.05" cy="3566.3" rx="3.1496" ry="3.1496" stroke-width="0" /><circle c_padhole="1" cx="4072.047" cy="3566.2988" r="2.0669" stroke-width="0" /></g><g c_partid="part_pad" c_etype="pinpart" c_origin="4082.05,3566.3" layerid="11" number="16" net="" plated ="Y" c_shapetype="group" id="gge2719" locked="0" c_rotation="180" c_width="6.2992" c_height="6.2992" title="" c_shape="ELLIPSE" pasteExpansion="0" solderExpansion="0.2"><ellipse cx="4082.05" cy="3566.3" rx="3.1496" ry="3.1496" stroke-width="0" /><circle c_padhole="1" cx="4082.047" cy="3566.2988" r="2.0669" stroke-width="0" /></g><g c_partid="part_pad" c_etype="pinpart" c_origin="4092.05,3566.3" layerid="11" number="15" net="" plated ="Y" c_shapetype="group" id="gge2734" locked="0" c_rotation="180" c_width="6.2992" c_height="6.2992" title="" c_shape="ELLIPSE" pasteExpansion="0" solderExpansion="0.2"><ellipse cx="4092.05" cy="3566.3" rx="3.1496" ry="3.1496" stroke-width="0" /><circle c_padhole="1" cx="4092.047" cy="3566.2988" r="2.0669" stroke-width="0" /></g><g c_partid="part_pad" c_etype="pinpart" c_origin="4102.05,3566.3" layerid="11" number="14" net="" plated ="Y" c_shapetype="group" id="gge2749" locked="0" c_rotation="180" c_width="6.2992" c_height="6.2992" title="" c_shape="ELLIPSE" pasteExpansion="0" solderExpansion="0.2"><ellipse cx="4102.05" cy="3566.3" rx="3.1496" ry="3.1496" stroke-width="0" /><circle c_padhole="1" cx="4102.047" cy="3566.2988" r="2.0669" stroke-width="0" /></g><g c_partid="part_pad" c_etype="pinpart" c_origin="4112.05,3566.3" layerid="11" number="13" net="" plated ="Y" c_shapetype="group" id="gge2764" locked="0" c_rotation="180" c_width="6.2992" c_height="6.2992" title="" c_shape="ELLIPSE" pasteExpansion="0" solderExpansion="0.2"><ellipse cx="4112.05" cy="3566.3" rx="3.1496" ry="3.1496" stroke-width="0" /><circle c_padhole="1" cx="4112.047" cy="3566.2988" r="2.0669" stroke-width="0" /></g><g c_partid="part_pad" c_etype="pinpart" c_origin="4122.05,3566.3" layerid="11" number="12" net="" plated ="Y" c_shapetype="group" id="gge2779" locked="0" c_rotation="180" c_width="6.2992" c_height="6.2992" title="" c_shape="ELLIPSE" pasteExpansion="0" solderExpansion="0.2"><ellipse cx="4122.05" cy="3566.3" rx="3.1496" ry="3.1496" stroke-width="0" /><circle c_padhole="1" cx="4122.047" cy="3566.2988" r="2.0669" stroke-width="0" /></g><g c_partid="part_pad" c_etype="pinpart" c_origin="4132.05,3566.3" layerid="11" number="11" net="" plated ="Y" c_shapetype="group" id="gge2794" locked="0" c_rotation="180" c_width="6.2992" c_height="6.2992" title="" c_shape="ELLIPSE" pasteExpansion="0" solderExpansion="0.2"><ellipse cx="4132.05" cy="3566.3" rx="3.1496" ry="3.1496" stroke-width="0" /><circle c_padhole="1" cx="4132.047" cy="3566.2988" r="2.0669" stroke-width="0" /></g><g c_partid="part_pad" c_etype="pinpart" c_origin="4142.05,3566.3" layerid="11" number="10" net="" plated ="Y" c_shapetype="group" id="gge2809" locked="0" c_rotation="180" c_width="6.2992" c_height="6.2992" title="" c_shape="ELLIPSE" pasteExpansion="0" solderExpansion="0.2"><ellipse cx="4142.05" cy="3566.3" rx="3.1496" ry="3.1496" stroke-width="0" /><circle c_padhole="1" cx="4142.047" cy="3566.2988" r="2.0669" stroke-width="0" /></g><g c_partid="part_pad" c_etype="pinpart" c_origin="4152.05,3566.3" layerid="11" number="9" net="" plated ="Y" c_shapetype="group" id="gge2824" locked="0" c_rotation="180" c_width="6.2992" c_height="6.2992" title="" c_shape="ELLIPSE" pasteExpansion="0" solderExpansion="0.2"><ellipse cx="4152.05" cy="3566.3" rx="3.1496" ry="3.1496" stroke-width="0" /><circle c_padhole="1" cx="4152.047" cy="3566.2988" r="2.0669" stroke-width="0" /></g><g c_partid="part_pad" c_etype="pinpart" c_origin="4162.05,3566.3" layerid="11" number="8" net="" plated ="Y" c_shapetype="group" id="gge2839" locked="0" c_rotation="180" c_width="6.2992" c_height="6.2992" title="" c_shape="ELLIPSE" pasteExpansion="0" solderExpansion="0.2"><ellipse cx="4162.05" cy="3566.3" rx="3.1496" ry="3.1496" stroke-width="0" /><circle c_padhole="1" cx="4162.047" cy="3566.2988" r="2.0669" stroke-width="0" /></g><g c_partid="part_pad" c_etype="pinpart" c_origin="4172.05,3566.3" layerid="11" number="7" net="GND" plated ="Y" c_shapetype="group" id="gge2854" locked="0" c_rotation="180" c_width="6.2992" c_height="6.2992" title="GND" c_shape="ELLIPSE" pasteExpansion="0" solderExpansion="0.2"><ellipse cx="4172.05" cy="3566.3" rx="3.1496" ry="3.1496" stroke-width="0" /><circle c_padhole="1" cx="4172.047" cy="3566.2988" r="2.0669" stroke-width="0" /></g><g c_partid="part_pad" c_etype="pinpart" c_origin="4182.05,3566.3" layerid="11" number="6" net="" plated ="Y" c_shapetype="group" id="gge2869" locked="0" c_rotation="180" c_width="6.2992" c_height="6.2992" title="" c_shape="ELLIPSE" pasteExpansion="0" solderExpansion="0.2"><ellipse cx="4182.05" cy="3566.3" rx="3.1496" ry="3.1496" stroke-width="0" /><circle c_padhole="1" cx="4182.047" cy="3566.2988" r="2.0669" stroke-width="0" /></g><g c_partid="part_pad" c_etype="pinpart" c_origin="4192.05,3566.3" layerid="11" number="5" net="" plated ="Y" c_shapetype="group" id="gge2884" locked="0" c_rotation="180" c_width="6.2992" c_height="6.2992" title="" c_shape="ELLIPSE" pasteExpansion="0" solderExpansion="0.2"><ellipse cx="4192.05" cy="3566.3" rx="3.1496" ry="3.1496" stroke-width="0" /><circle c_padhole="1" cx="4192.047" cy="3566.2988" r="2.0669" stroke-width="0" /></g><g c_partid="part_pad" c_etype="pinpart" c_origin="4202.05,3566.3" layerid="11" number="4" net="" plated ="Y" c_shapetype="group" id="gge2899" locked="0" c_rotation="180" c_width="6.2992" c_height="6.2992" title="" c_shape="ELLIPSE" pasteExpansion="0" solderExpansion="0.2"><ellipse cx="4202.05" cy="3566.3" rx="3.1496" ry="3.1496" stroke-width="0" /><circle c_padhole="1" cx="4202.047" cy="3566.2988" r="2.0669" stroke-width="0" /></g><g c_partid="part_pad" c_etype="pinpart" c_origin="4212.05,3566.3" layerid="11" number="3" net="" plated ="Y" c_shapetype="group" id="gge2914" locked="0" c_rotation="180" c_width="6.2992" c_height="6.2992" title="" c_shape="ELLIPSE" pasteExpansion="0" solderExpansion="0.2"><ellipse cx="4212.05" cy="3566.3" rx="3.1496" ry="3.1496" stroke-width="0" /><circle c_padhole="1" cx="4212.047" cy="3566.2988" r="2.0669" stroke-width="0" /></g><g c_partid="part_pad" c_etype="pinpart" c_origin="4222.05,3566.3" layerid="11" number="2" net="" plated ="Y" c_shapetype="group" id="gge2929" locked="0" c_rotation="180" c_width="6.2992" c_height="6.2992" title="" c_shape="ELLIPSE" pasteExpansion="0" solderExpansion="0.2"><ellipse cx="4222.05" cy="3566.3" rx="3.1496" ry="3.1496" stroke-width="0" /><circle c_padhole="1" cx="4222.047" cy="3566.2988" r="2.0669" stroke-width="0" /></g><g c_partid="part_pad" c_etype="pinpart" c_origin="4232.05,3566.3" layerid="11" number="1" net="GND" plated ="Y" c_shapetype="group" id="gge2944" locked="0" c_rotation="180" c_width="6.2992" c_height="6.2992" title="GND" c_shape="RECT" pasteExpansion="0" solderExpansion="0.2"><polygon points="4235.197 3569.448 4228.897 3569.448 4228.897 3563.149 4235.197 3563.149" stroke-width="0" /><circle c_padhole="1" cx="4232.047" cy="3566.2988" r="2.0669" stroke-width="0" /></g><g c_partid="part_pad" c_etype="pinpart" c_origin="4052.05,3466.3" layerid="11" number="19" net="" plated ="Y" c_shapetype="group" id="gge3061" locked="0" c_rotation="180" c_width="6.2992" c_height="6.2992" title="" c_shape="ELLIPSE" pasteExpansion="0" solderExpansion="0.2"><ellipse cx="4052.05" cy="3466.3" rx="3.1496" ry="3.1496" stroke-width="0" /><circle c_padhole="1" cx="4052.047" cy="3466.299" r="2.0669" stroke-width="0" /></g><g c_partid="part_pad" c_etype="pinpart" c_origin="4062.05,3466.3" layerid="11" number="18" net="" plated ="Y" c_shapetype="group" id="gge3076" locked="0" c_rotation="180" c_width="6.2992" c_height="6.2992" title="" c_shape="ELLIPSE" pasteExpansion="0" solderExpansion="0.2"><ellipse cx="4062.05" cy="3466.3" rx="3.1496" ry="3.1496" stroke-width="0" /><circle c_padhole="1" cx="4062.047" cy="3466.299" r="2.0669" stroke-width="0" /></g><g c_partid="part_pad" c_etype="pinpart" c_origin="4072.05,3466.3" layerid="11" number="17" net="" plated ="Y" c_shapetype="group" id="gge3091" locked="0" c_rotation="180" c_width="6.2992" c_height="6.2992" title="" c_shape="ELLIPSE" pasteExpansion="0" solderExpansion="0.2"><ellipse cx="4072.05" cy="3466.3" rx="3.1496" ry="3.1496" stroke-width="0" /><circle c_padhole="1" cx="4072.047" cy="3466.299" r="2.0669" stroke-width="0" /></g><g c_partid="part_pad" c_etype="pinpart" c_origin="4082.05,3466.3" layerid="11" number="16" net="" plated ="Y" c_shapetype="group" id="gge3106" locked="0" c_rotation="180" c_width="6.2992" c_height="6.2992" title="" c_shape="ELLIPSE" pasteExpansion="0" solderExpansion="0.2"><ellipse cx="4082.05" cy="3466.3" rx="3.1496" ry="3.1496" stroke-width="0" /><circle c_padhole="1" cx="4082.047" cy="3466.299" r="2.0669" stroke-width="0" /></g><g c_partid="part_pad" c_etype="pinpart" c_origin="4092.05,3466.3" layerid="11" number="15" net="" plated ="Y" c_shapetype="group" id="gge3121" locked="0" c_rotation="180" c_width="6.2992" c_height="6.2992" title="" c_shape="ELLIPSE" pasteExpansion="0" solderExpansion="0.2"><ellipse cx="4092.05" cy="3466.3" rx="3.1496" ry="3.1496" stroke-width="0" /><circle c_padhole="1" cx="4092.047" cy="3466.299" r="2.0669" stroke-width="0" /></g><g c_partid="part_pad" c_etype="pinpart" c_origin="4102.05,3466.3" layerid="11" number="14" net="GND" plated ="Y" c_shapetype="group" id="gge3136" locked="0" c_rotation="180" c_width="6.2992" c_height="6.2992" title="GND" c_shape="ELLIPSE" pasteExpansion="0" solderExpansion="0.2"><ellipse cx="4102.05" cy="3466.3" rx="3.1496" ry="3.1496" stroke-width="0" /><circle c_padhole="1" cx="4102.047" cy="3466.299" r="2.0669" stroke-width="0" /></g><g c_partid="part_pad" c_etype="pinpart" c_origin="4112.05,3466.3" layerid="11" number="13" net="" plated ="Y" c_shapetype="group" id="gge3151" locked="0" c_rotation="180" c_width="6.2992" c_height="6.2992" title="" c_shape="ELLIPSE" pasteExpansion="0" solderExpansion="0.2"><ellipse cx="4112.05" cy="3466.3" rx="3.1496" ry="3.1496" stroke-width="0" /><circle c_padhole="1" cx="4112.047" cy="3466.299" r="2.0669" stroke-width="0" /></g><g c_partid="part_pad" c_etype="pinpart" c_origin="4122.05,3466.3" layerid="11" number="12" net="" plated ="Y" c_shapetype="group" id="gge3166" locked="0" c_rotation="180" c_width="6.2992" c_height="6.2992" title="" c_shape="ELLIPSE" pasteExpansion="0" solderExpansion="0.2"><ellipse cx="4122.05" cy="3466.3" rx="3.1496" ry="3.1496" stroke-width="0" /><circle c_padhole="1" cx="4122.047" cy="3466.299" r="2.0669" stroke-width="0" /></g><g c_partid="part_pad" c_etype="pinpart" c_origin="4132.05,3466.3" layerid="11" number="11" net="" plated ="Y" c_shapetype="group" id="gge3181" locked="0" c_rotation="180" c_width="6.2992" c_height="6.2992" title="" c_shape="ELLIPSE" pasteExpansion="0" solderExpansion="0.2"><ellipse cx="4132.05" cy="3466.3" rx="3.1496" ry="3.1496" stroke-width="0" /><circle c_padhole="1" cx="4132.047" cy="3466.299" r="2.0669" stroke-width="0" /></g><g c_partid="part_pad" c_etype="pinpart" c_origin="4142.05,3466.3" layerid="11" number="10" net="RXD" plated ="Y" c_shapetype="group" id="gge3196" locked="0" c_rotation="180" c_width="6.2992" c_height="6.2992" title="RXD" c_shape="ELLIPSE" pasteExpansion="0" solderExpansion="0.2"><ellipse cx="4142.05" cy="3466.3" rx="3.1496" ry="3.1496" stroke-width="0" /><circle c_padhole="1" cx="4142.047" cy="3466.299" r="2.0669" stroke-width="0" /></g><g c_partid="part_pad" c_etype="pinpart" c_origin="4152.05,3466.3" layerid="11" number="9" net="TXD" plated ="Y" c_shapetype="group" id="gge3211" locked="0" c_rotation="180" c_width="6.2992" c_height="6.2992" title="TXD" c_shape="ELLIPSE" pasteExpansion="0" solderExpansion="0.2"><ellipse cx="4152.05" cy="3466.3" rx="3.1496" ry="3.1496" stroke-width="0" /><circle c_padhole="1" cx="4152.047" cy="3466.299" r="2.0669" stroke-width="0" /></g><g c_partid="part_pad" c_etype="pinpart" c_origin="4162.05,3466.3" layerid="11" number="8" net="" plated ="Y" c_shapetype="group" id="gge3226" locked="0" c_rotation="180" c_width="6.2992" c_height="6.2992" title="" c_shape="ELLIPSE" pasteExpansion="0" solderExpansion="0.2"><ellipse cx="4162.05" cy="3466.3" rx="3.1496" ry="3.1496" stroke-width="0" /><circle c_padhole="1" cx="4162.047" cy="3466.299" r="2.0669" stroke-width="0" /></g><g c_partid="part_pad" c_etype="pinpart" c_origin="4172.05,3466.3" layerid="11" number="7" net="" plated ="Y" c_shapetype="group" id="gge3241" locked="0" c_rotation="180" c_width="6.2992" c_height="6.2992" title="" c_shape="ELLIPSE" pasteExpansion="0" solderExpansion="0.2"><ellipse cx="4172.05" cy="3466.3" rx="3.1496" ry="3.1496" stroke-width="0" /><circle c_padhole="1" cx="4172.047" cy="3466.299" r="2.0669" stroke-width="0" /></g><g c_partid="part_pad" c_etype="pinpart" c_origin="4182.05,3466.3" layerid="11" number="6" net="" plated ="Y" c_shapetype="group" id="gge3256" locked="0" c_rotation="180" c_width="6.2992" c_height="6.2992" title="" c_shape="ELLIPSE" pasteExpansion="0" solderExpansion="0.2"><ellipse cx="4182.05" cy="3466.3" rx="3.1496" ry="3.1496" stroke-width="0" /><circle c_padhole="1" cx="4182.047" cy="3466.299" r="2.0669" stroke-width="0" /></g><g c_partid="part_pad" c_etype="pinpart" c_origin="4192.05,3466.3" layerid="11" number="5" net="" plated ="Y" c_shapetype="group" id="gge3271" locked="0" c_rotation="180" c_width="6.2992" c_height="6.2992" title="" c_shape="ELLIPSE" pasteExpansion="0" solderExpansion="0.2"><ellipse cx="4192.05" cy="3466.3" rx="3.1496" ry="3.1496" stroke-width="0" /><circle c_padhole="1" cx="4192.047" cy="3466.299" r="2.0669" stroke-width="0" /></g><g c_partid="part_pad" c_etype="pinpart" c_origin="4202.05,3466.3" layerid="11" number="4" net="" plated ="Y" c_shapetype="group" id="gge3286" locked="0" c_rotation="180" c_width="6.2992" c_height="6.2992" title="" c_shape="ELLIPSE" pasteExpansion="0" solderExpansion="0.2"><ellipse cx="4202.05" cy="3466.3" rx="3.1496" ry="3.1496" stroke-width="0" /><circle c_padhole="1" cx="4202.047" cy="3466.299" r="2.0669" stroke-width="0" /></g><g c_partid="part_pad" c_etype="pinpart" c_origin="4212.05,3466.3" layerid="11" number="3" net="" plated ="Y" c_shapetype="group" id="gge3301" locked="0" c_rotation="180" c_width="6.2992" c_height="6.2992" title="" c_shape="ELLIPSE" pasteExpansion="0" solderExpansion="0.2"><ellipse cx="4212.05" cy="3466.3" rx="3.1496" ry="3.1496" stroke-width="0" /><circle c_padhole="1" cx="4212.047" cy="3466.299" r="2.0669" stroke-width="0" /></g><g c_partid="part_pad" c_etype="pinpart" c_origin="4222.05,3466.3" layerid="11" number="2" net="" plated ="Y" c_shapetype="group" id="gge3316" locked="0" c_rotation="180" c_width="6.2992" c_height="6.2992" title="" c_shape="ELLIPSE" pasteExpansion="0" solderExpansion="0.2"><ellipse cx="4222.05" cy="3466.3" rx="3.1496" ry="3.1496" stroke-width="0" /><circle c_padhole="1" cx="4222.047" cy="3466.299" r="2.0669" stroke-width="0" /></g><g c_partid="part_pad" c_etype="pinpart" c_origin="4232.05,3466.3" layerid="11" number="1" net="+3V3" plated ="Y" c_shapetype="group" id="gge3331" locked="0" c_rotation="180" c_width="6.2992" c_height="6.2992" title="+3V3" c_shape="RECT" pasteExpansion="0" solderExpansion="0.2"><polygon points="4235.197 3469.449 4228.897 3469.449 4228.897 3463.149 4235.197 3463.149" stroke-width="0" /><circle c_padhole="1" cx="4232.047" cy="3466.299" r="2.0669" stroke-width="0" /></g><g c_partid="part_via" c_etype="pinpart" c_shapetype="group" net="GND" c_origin="4105.1,3390.13" layerid="11" id="gge14041" locked="" solderExpansion=""><circle cx="4105.1" cy="3390.13" r="1.2008" stroke-width="0" /><circle cx="4105.1" cy="3390.13" r="0.6004"  stroke-width="0" /></g><g c_partid="part_hole" c_etype="pinpart" c_shapetype="group" c_origin="4031.81,3371.81" layerid="11" id="gge5071" ><circle cx="4031.81" cy="3371.81" r="5.4134"   stroke-width="0" /></g><g c_partid="part_hole" c_etype="pinpart" c_shapetype="group" c_origin="4031.81,3564.72" layerid="11" id="gge5101" ><circle cx="4031.81" cy="3564.72" r="5.4134"   stroke-width="0" /></g><g c_partid="part_hole" c_etype="pinpart" c_shapetype="group" c_origin="4260.16,3564.72" layerid="11" id="gge5116" ><circle cx="4260.16" cy="3564.72" r="5.4134"   stroke-width="0" /></g><g c_partid="part_hole" c_etype="pinpart" c_shapetype="group" c_origin="4260.16,3371.81" layerid="11" id="gge5143" ><circle cx="4260.16" cy="3371.81" r="5.4134"   stroke-width="0" /></g><g c_partid="part_hole" c_etype="pinpart" c_shapetype="group" c_origin="4031.81,3478.11" layerid="11" id="gge5173" ><circle cx="4031.81" cy="3478.11" r="5.4134"   stroke-width="0" /></g><g c_partid="part_hole" c_etype="pinpart" c_shapetype="group" c_origin="4260.16,3478.11" layerid="11" id="gge5188" ><circle cx="4260.16" cy="3478.11" r="5.4134"   stroke-width="0" /></g><g c_partid="part_hole" c_etype="pinpart" c_shapetype="group" c_origin="4145.98,3512.5" layerid="11" id="gge5218" ><circle cx="4145.98" cy="3512.5" r="5.4134"   stroke-width="0" /></g><polyline points="4087.678 3447.601 4091.453 3447.601 4091.453 3442.399 4087.678 3442.399" stroke-width="0.6" c_shapetype="line" stroke-linecap="round" fill="none" layerid="3" net="" id="gge330" /><polyline points="4084.322 3447.601 4080.547 3447.601 4080.547 3442.399 4084.322 3442.399" stroke-width="0.6" c_shapetype="line" stroke-linecap="round" fill="none" layerid="3" net="" id="gge333" /><polyline points="4085.554 3417.49 4085.554 3405.51 4105.446 3405.51 4105.446 3417.49 4085.554 3417.49" stroke-width="0.6" c_shapetype="line" stroke-linecap="round" fill="none" layerid="3" net="" id="gge387" /><polyline points="4212.156 3393.038 4205.713 3393.038 4204.304 3391.629 4204.304 3384.629 4205.804 3383.129 4212.156 3383.129" stroke-width="1" c_shapetype="line" stroke-linecap="round" fill="none" layerid="3" net="" id="gge630" /><polyline points="4212.156 3412.724 4205.712 3412.724 4204.303 3411.315 4204.303 3404.315 4205.803 3402.815 4212.156 3402.815" stroke-width="1" c_shapetype="line" stroke-linecap="round" fill="none" layerid="3" net="" id="gge633" /><polyline points="4212.352 3432.409 4205.909 3432.409 4204.5 3431 4204.5 3424 4206 3422.5 4212.352 3422.5" stroke-width="1" c_shapetype="line" stroke-linecap="round" fill="none" layerid="3" net="" id="gge636" /><polyline points="4181.643 3437.5 4181.643 3377.815" stroke-width="1" c_shapetype="line" stroke-linecap="round" fill="none" layerid="3" net="" id="gge639" /><polyline points="4181.643 3377.815 4212.352 3377.815" stroke-width="1" c_shapetype="line" stroke-linecap="round" fill="none" layerid="3" net="" id="gge642" /><polyline points="4212.352 3437.5 4181.643 3437.5" stroke-width="1" c_shapetype="line" stroke-linecap="round" fill="none" layerid="3" net="" id="gge645" /><polyline points="4212.352 3377.815 4212.352 3437.5" stroke-width="1" c_shapetype="line" stroke-linecap="round" fill="none" layerid="3" net="" id="gge648" /><polyline points="4185.279 3437.5 4185.279 3377.815" stroke-width="1" c_shapetype="line" stroke-linecap="round" fill="none" layerid="3" net="" id="gge651" /><polyline points="4203.5 3437.5 4203.5 3438.604 4202.604 3439.5 4206.604 3439.5 4205.604 3438.5 4205.604 3438" stroke-width="1" c_shapetype="line" stroke-linecap="round" fill="none" layerid="3" net="" id="gge654" /><polyline points="4059.579 3406.969 4030.051 3406.969 4030.051 3453.032 4059.579 3453.032 4059.579 3407.165" stroke-width="1" c_shapetype="line" stroke-linecap="round" fill="none" layerid="3" net="" id="gge1647" /><polyline points="4046.575 3561.378 4046.575 3571.22" stroke-width="1" c_shapetype="line" stroke-linecap="round" fill="none" layerid="3" net="" id="gge2596" /><polyline points="4237.519 3561.377 4046.575 3561.377" stroke-width="1" c_shapetype="line" stroke-linecap="round" fill="none" layerid="3" net="" id="gge2599" /><polyline points="4237.519 3571.22 4046.575 3571.22" stroke-width="1" c_shapetype="line" stroke-linecap="round" fill="none" layerid="3" net="" id="gge2602" /><polyline points="4227.409 3571.22 4227.409 3561.378" stroke-width="1" c_shapetype="line" stroke-linecap="round" fill="none" layerid="3" net="" id="gge2605" /><polyline points="4237.519 3561.378 4237.519 3571.22" stroke-width="1" c_shapetype="line" stroke-linecap="round" fill="none" layerid="3" net="" id="gge2608" /><polyline points="4046.575 3461.378 4046.575 3471.22" stroke-width="1" c_shapetype="line" stroke-linecap="round" fill="none" layerid="3" net="" id="gge2983" /><polyline points="4237.519 3461.378 4046.575 3461.378" stroke-width="1" c_shapetype="line" stroke-linecap="round" fill="none" layerid="3" net="" id="gge2986" /><polyline points="4237.519 3471.22 4046.575 3471.22" stroke-width="1" c_shapetype="line" stroke-linecap="round" fill="none" layerid="3" net="" id="gge2989" /><polyline points="4227.409 3471.22 4227.409 3461.378" stroke-width="1" c_shapetype="line" stroke-linecap="round" fill="none" layerid="3" net="" id="gge2992" /><polyline points="4237.519 3461.378 4237.519 3471.22" stroke-width="1" c_shapetype="line" stroke-linecap="round" fill="none" layerid="3" net="" id="gge2995" /><polyline points="4096.028 3387.574 4096.028 3384.424" stroke-width="1" c_shapetype="line" stroke-linecap="round" fill="none" layerid="3" net="" id="gge3430" /><polyline points="4100.397 3388.794 4097.247 3388.794" stroke-width="1" c_shapetype="line" stroke-linecap="round" fill="none" layerid="3" net="" id="gge3433" /><polyline points="4100.397 3383.205 4097.247 3383.205" stroke-width="1" c_shapetype="line" stroke-linecap="round" fill="none" layerid="3" net="" id="gge3436" /><polyline points="4102.664 3388.817 4105.814 3388.817" stroke-width="1" c_shapetype="line" stroke-linecap="round" fill="none" layerid="3" net="" id="gge3439" /><polyline points="4107.033 3387.597 4107.033 3384.447" stroke-width="1" c_shapetype="line" stroke-linecap="round" fill="none" layerid="3" net="" id="gge3442" /><polyline points="4102.664 3383.228 4105.814 3383.228" stroke-width="1" c_shapetype="line" stroke-linecap="round" fill="none" layerid="3" net="" id="gge3445" /><polyline points="4126.322 3372.399 4122.547 3372.399 4122.547 3377.601 4126.322 3377.601" stroke-width="0.6" c_shapetype="line" stroke-linecap="round" fill="none" layerid="3" net="" id="gge3634" /><polyline points="4129.678 3372.399 4133.453 3372.399 4133.453 3377.601 4129.678 3377.601" stroke-width="0.6" c_shapetype="line" stroke-linecap="round" fill="none" layerid="3" net="" id="gge3637" /><polyline points="4109.952 3372.141 4109.952 3372.953" stroke-width="0.5984" c_shapetype="line" stroke-linecap="round" fill="none" layerid="3" net="" id="gge12406" /><polyline points="4109.952 3377.859 4109.952 3377.087" stroke-width="0.5984" c_shapetype="line" stroke-linecap="round" fill="none" layerid="3" net="" id="gge12409" /><polyline points="4116.851 3377.859 4109.952 3377.859" stroke-width="0.6" c_shapetype="line" stroke-linecap="round" fill="none" layerid="3" net="" id="gge12412" /><polyline points="4116.851 3372.141 4109.952 3372.141" stroke-width="0.6" c_shapetype="line" stroke-linecap="round" fill="none" layerid="3" net="" id="gge12415" /><polyline points="4115.259 3377.859 4115.259 3372.141" stroke-width="0.6" c_shapetype="line" stroke-linecap="round" fill="none" layerid="3" net="" id="gge12418" /><polyline points="4150.048 3372.359 4150.048 3371.547" stroke-width="0.5984" c_shapetype="line" stroke-linecap="round" fill="none" layerid="3" net="" id="gge12700" /><polyline points="4150.048 3366.641 4150.048 3367.413" stroke-width="0.5984" c_shapetype="line" stroke-linecap="round" fill="none" layerid="3" net="" id="gge12703" /><polyline points="4143.149 3366.641 4150.048 3366.641" stroke-width="0.6" c_shapetype="line" stroke-linecap="round" fill="none" layerid="3" net="" id="gge12706" /><polyline points="4143.149 3372.359 4150.048 3372.359" stroke-width="0.6" c_shapetype="line" stroke-linecap="round" fill="none" layerid="3" net="" id="gge12709" /><polyline points="4144.741 3366.641 4144.741 3372.359" stroke-width="0.6" c_shapetype="line" stroke-linecap="round" fill="none" layerid="3" net="" id="gge12712" /><polyline points="4154.963 3413.501 4154.963 3410.391" stroke-width="0.6" c_shapetype="line" stroke-linecap="round" fill="none" layerid="3" net="" id="gge13006" /><polyline points="4151.037 3410.391 4151.037 3413.501" stroke-width="0.6" c_shapetype="line" stroke-linecap="round" fill="none" layerid="3" net="" id="gge13009" /><polyline points="4151.637 3414.101 4154.363 3414.101" stroke-width="0.6" c_shapetype="line" stroke-linecap="round" fill="none" layerid="3" net="" id="gge13012" /><polyline points="4154.963 3405.499 4154.963 3408.609" stroke-width="0.6" c_shapetype="line" stroke-linecap="round" fill="none" layerid="3" net="" id="gge13015" /><polyline points="4151.037 3408.609 4151.037 3405.499" stroke-width="0.6" c_shapetype="line" stroke-linecap="round" fill="none" layerid="3" net="" id="gge13018" /><polyline points="4151.637 3404.899 4154.363 3404.899" stroke-width="0.6" c_shapetype="line" stroke-linecap="round" fill="none" layerid="3" net="" id="gge13021" /><g c_partid="part_pcbtext" c_origin="4086,3434" c_rotation="0" c_mirror="0" id="gge303" layerid="3" c_shapetype="group" display="none"><path c_fontSize="4.5" c_fontFamily="" c_text="4.7K" d="M 4088.05 3429.46 L 4086 3432.32 L 4089.07 3432.32 M 4088.05 3429.46 L 4088.05 3433.75 M 4090.62 3432.73 L 4090.42 3432.94 L 4090.62 3433.14 L 4090.83 3432.94 L 4090.62 3432.73 M 4095.04 3429.46 L 4093 3433.75 M 4092.18 3429.46 L 4095.04 3429.46 M 4096.39 3429.46 L 4096.39 3433.75 M 4099.25 3429.46 L 4096.39 3432.32 M 4097.41 3431.3 L 4099.25 3433.75" fill="none"  stroke-width="0.6"  /></g><g c_partid="part_pcbtext" c_origin="4078.5,3454.5" c_rotation="0" c_mirror="0" id="gge309" layerid="3" c_shapetype="group" ><path c_fontSize="4.5" c_fontFamily="" c_text="R1" d="M 4078.5 3449.96 L 4078.5 3454.25 M 4078.5 3449.96 L 4080.34 3449.96 L 4080.95 3450.16 L 4081.16 3450.37 L 4081.36 3450.78 L 4081.36 3451.19 L 4081.16 3451.6 L 4080.95 3451.8 L 4080.34 3452 L 4078.5 3452 M 4079.93 3452 L 4081.36 3454.25 M 4082.71 3450.78 L 4083.12 3450.57 L 4083.74 3449.96 L 4083.74 3454.25" fill="none"  stroke-width="0.6" c_note="note_pre" /></g><g c_partid="part_pcbtext" c_origin="4094.5,3388.5" c_rotation="0" c_mirror="0" id="gge375" layerid="3" c_shapetype="group" display="none"><path c_fontSize="4.5" c_fontFamily="" c_text="TLIN1027DRQ1" d="M 4095.93 3383.96 L 4095.93 3388.25 M 4094.5 3383.96 L 4097.36 3383.96 M 4098.71 3383.96 L 4098.71 3388.25 M 4098.71 3388.25 L 4101.17 3388.25 M 4102.52 3383.96 L 4102.52 3388.25 M 4103.87 3383.96 L 4103.87 3388.25 M 4103.87 3383.96 L 4106.73 3388.25 M 4106.73 3383.96 L 4106.73 3388.25 M 4108.08 3384.78 L 4108.49 3384.57 L 4109.1 3383.96 L 4109.1 3388.25 M 4111.68 3383.96 L 4111.07 3384.16 L 4110.66 3384.78 L 4110.45 3385.8 L 4110.45 3386.41 L 4110.66 3387.44 L 4111.07 3388.05 L 4111.68 3388.25 L 4112.09 3388.25 L 4112.7 3388.05 L 4113.11 3387.44 L 4113.32 3386.41 L 4113.32 3385.8 L 4113.11 3384.78 L 4112.7 3384.16 L 4112.09 3383.96 L 4111.68 3383.96 M 4114.87 3384.98 L 4114.87 3384.78 L 4115.08 3384.37 L 4115.28 3384.16 L 4115.69 3383.96 L 4116.51 3383.96 L 4116.92 3384.16 L 4117.12 3384.37 L 4117.33 3384.78 L 4117.33 3385.19 L 4117.12 3385.6 L 4116.71 3386.21 L 4114.67 3388.25 L 4117.53 3388.25 M 4121.75 3383.96 L 4119.7 3388.25 M 4118.88 3383.96 L 4121.75 3383.96 M 4123.1 3383.96 L 4123.1 3388.25 M 4123.1 3383.96 L 4124.53 3383.96 L 4125.14 3384.16 L 4125.55 3384.57 L 4125.75 3384.98 L 4125.96 3385.6 L 4125.96 3386.62 L 4125.75 3387.23 L 4125.55 3387.64 L 4125.14 3388.05 L 4124.53 3388.25 L 4123.1 3388.25 M 4127.31 3383.96 L 4127.31 3388.25 M 4127.31 3383.96 L 4129.15 3383.96 L 4129.76 3384.16 L 4129.97 3384.37 L 4130.17 3384.78 L 4130.17 3385.19 L 4129.97 3385.6 L 4129.76 3385.8 L 4129.15 3386 L 4127.31 3386 M 4128.74 3386 L 4130.17 3388.25 M 4132.75 3383.96 L 4132.34 3384.16 L 4131.93 3384.57 L 4131.73 3384.98 L 4131.52 3385.6 L 4131.52 3386.62 L 4131.73 3387.23 L 4131.93 3387.64 L 4132.34 3388.05 L 4132.75 3388.25 L 4133.57 3388.25 L 4133.98 3388.05 L 4134.39 3387.64 L 4134.59 3387.23 L 4134.8 3386.62 L 4134.8 3385.6 L 4134.59 3384.98 L 4134.39 3384.57 L 4133.98 3384.16 L 4133.57 3383.96 L 4132.75 3383.96 M 4133.36 3387.44 L 4134.59 3388.66 M 4136.15 3384.78 L 4136.55 3384.57 L 4137.17 3383.96 L 4137.17 3388.25" fill="none"  stroke-width="0.6"  /></g><g c_partid="part_pcbtext" c_origin="4094.5,3395.5" c_rotation="0" c_mirror="0" id="gge381" layerid="3" c_shapetype="group" ><path c_fontSize="4.5" c_fontFamily="" c_text="U1" d="M 4094.5 3390.96 L 4094.5 3394.03 L 4094.7 3394.64 L 4095.11 3395.05 L 4095.73 3395.25 L 4096.14 3395.25 L 4096.75 3395.05 L 4097.16 3394.64 L 4097.36 3394.03 L 4097.36 3390.96 M 4098.71 3391.78 L 4099.12 3391.57 L 4099.74 3390.96 L 4099.74 3395.25" fill="none"  stroke-width="0.6" c_note="note_pre" /></g><g c_partid="part_pcbtext" c_origin="4173,3409.32" c_rotation="90" c_mirror="0" id="gge585" layerid="3" c_shapetype="group" display="none"><path c_fontSize="4.5" c_fontFamily="" c_text="DB301V-5.0-3P" d="M 4168.46 3409.315 L 4172.75 3409.315 M 4168.46 3409.315 L 4168.46 3407.885 L 4168.66 3407.265 L 4169.07 3406.865 L 4169.48 3406.655 L 4170.1 3406.455 L 4171.12 3406.455 L 4171.73 3406.655 L 4172.14 3406.865 L 4172.55 3407.265 L 4172.75 3407.885 L 4172.75 3409.315 M 4168.46 3405.105 L 4172.75 3405.105 M 4168.46 3405.105 L 4168.46 3403.265 L 4168.66 3402.645 L 4168.87 3402.445 L 4169.28 3402.235 L 4169.69 3402.235 L 4170.1 3402.445 L 4170.3 3402.645 L 4170.5 3403.265 M 4170.5 3405.105 L 4170.5 3403.265 L 4170.71 3402.645 L 4170.91 3402.445 L 4171.32 3402.235 L 4171.94 3402.235 L 4172.35 3402.445 L 4172.55 3402.645 L 4172.75 3403.265 L 4172.75 3405.105 M 4168.46 3400.475 L 4168.46 3398.225 L 4170.1 3399.455 L 4170.1 3398.845 L 4170.3 3398.435 L 4170.5 3398.225 L 4171.12 3398.025 L 4171.53 3398.025 L 4172.14 3398.225 L 4172.55 3398.635 L 4172.75 3399.255 L 4172.75 3399.865 L 4172.55 3400.475 L 4172.35 3400.685 L 4171.94 3400.885 M 4168.46 3395.445 L 4168.66 3396.065 L 4169.28 3396.465 L 4170.3 3396.675 L 4170.91 3396.675 L 4171.94 3396.465 L 4172.55 3396.065 L 4172.75 3395.445 L 4172.75 3395.035 L 4172.55 3394.425 L 4171.94 3394.015 L 4170.91 3393.815 L 4170.3 3393.815 L 4169.28 3394.015 L 4168.66 3394.425 L 4168.46 3395.035 L 4168.46 3395.445 M 4169.28 3392.465 L 4169.07 3392.055 L 4168.46 3391.435 L 4172.75 3391.435 M 4168.46 3390.085 L 4172.75 3388.455 M 4168.46 3386.815 L 4172.75 3388.455 M 4170.91 3385.465 L 4170.91 3381.785 M 4168.46 3377.975 L 4168.46 3380.025 L 4170.3 3380.225 L 4170.1 3380.025 L 4169.89 3379.415 L 4169.89 3378.795 L 4170.1 3378.185 L 4170.5 3377.775 L 4171.12 3377.565 L 4171.53 3377.565 L 4172.14 3377.775 L 4172.55 3378.185 L 4172.75 3378.795 L 4172.75 3379.415 L 4172.55 3380.025 L 4172.35 3380.225 L 4171.94 3380.435 M 4171.73 3376.015 L 4171.94 3376.215 L 4172.14 3376.015 L 4171.94 3375.815 L 4171.73 3376.015 M 4168.46 3373.235 L 4168.66 3373.845 L 4169.28 3374.255 L 4170.3 3374.465 L 4170.91 3374.465 L 4171.94 3374.255 L 4172.55 3373.845 L 4172.75 3373.235 L 4172.75 3372.825 L 4172.55 3372.215 L 4171.94 3371.805 L 4170.91 3371.595 L 4170.3 3371.595 L 4169.28 3371.805 L 4168.66 3372.215 L 4168.46 3372.825 L 4168.46 3373.235 M 4170.91 3370.245 L 4170.91 3366.565 M 4168.46 3364.805 L 4168.46 3362.555 L 4170.1 3363.785 L 4170.1 3363.165 L 4170.3 3362.765 L 4170.5 3362.555 L 4171.12 3362.355 L 4171.53 3362.355 L 4172.14 3362.555 L 4172.55 3362.965 L 4172.75 3363.575 L 4172.75 3364.195 L 4172.55 3364.805 L 4172.35 3365.015 L 4171.94 3365.215 M 4168.46 3361.005 L 4172.75 3361.005 M 4168.46 3361.005 L 4168.46 3359.165 L 4168.66 3358.545 L 4168.87 3358.345 L 4169.28 3358.135 L 4169.89 3358.135 L 4170.3 3358.345 L 4170.5 3358.545 L 4170.71 3359.165 L 4170.71 3361.005" fill="none"  stroke-width="0.6"  /></g><g c_partid="part_pcbtext" c_origin="4180,3409.32" c_rotation="90" c_mirror="0" id="gge591" layerid="3" c_shapetype="group" ><path c_fontSize="4.5" c_fontFamily="" c_text="U2" d="M 4175.46 3409.315 L 4178.53 3409.315 L 4179.14 3409.115 L 4179.55 3408.705 L 4179.75 3408.085 L 4179.75 3407.675 L 4179.55 3407.065 L 4179.14 3406.655 L 4178.53 3406.455 L 4175.46 3406.455 M 4176.48 3404.895 L 4176.28 3404.895 L 4175.87 3404.695 L 4175.66 3404.485 L 4175.46 3404.075 L 4175.46 3403.265 L 4175.66 3402.855 L 4175.87 3402.645 L 4176.28 3402.445 L 4176.69 3402.445 L 4177.1 3402.645 L 4177.71 3403.055 L 4179.75 3405.105 L 4179.75 3402.235" fill="none"  stroke-width="0.6" c_note="note_pre" /></g><g c_partid="part_pcbtext" c_origin="4072.92,3469.97" c_rotation="90" c_mirror="0" id="gge1617" layerid="3" c_shapetype="group" display="none"><path c_fontSize="4.5" c_fontFamily="" c_text="TSRN1-2433" d="M 4068.3802 3468.5402 L 4072.6702 3468.5402 M 4068.3802 3469.9702 L 4068.3802 3467.1102 M 4068.9902 3462.8902 L 4068.5802 3463.3002 L 4068.3802 3463.9202 L 4068.3802 3464.7302 L 4068.5802 3465.3502 L 4068.9902 3465.7602 L 4069.4002 3465.7602 L 4069.8102 3465.5502 L 4070.0202 3465.3502 L 4070.2202 3464.9402 L 4070.6302 3463.7102 L 4070.8302 3463.3002 L 4071.0402 3463.1002 L 4071.4502 3462.8902 L 4072.0602 3462.8902 L 4072.4702 3463.3002 L 4072.6702 3463.9202 L 4072.6702 3464.7302 L 4072.4702 3465.3502 L 4072.0602 3465.7602 M 4068.3802 3461.5402 L 4072.6702 3461.5402 M 4068.3802 3461.5402 L 4068.3802 3459.7002 L 4068.5802 3459.0902 L 4068.7902 3458.8802 L 4069.2002 3458.6802 L 4069.6102 3458.6802 L 4070.0202 3458.8802 L 4070.2202 3459.0902 L 4070.4202 3459.7002 L 4070.4202 3461.5402 M 4070.4202 3460.1102 L 4072.6702 3458.6802 M 4068.3802 3457.3302 L 4072.6702 3457.3302 M 4068.3802 3457.3302 L 4072.6702 3454.4702 M 4068.3802 3454.4702 L 4072.6702 3454.4702 M 4069.2002 3453.1202 L 4068.9902 3452.7102 L 4068.3802 3452.0902 L 4072.6702 3452.0902 M 4070.8302 3450.7402 L 4070.8302 3447.0602 M 4069.4002 3445.5102 L 4069.2002 3445.5102 L 4068.7902 3445.3002 L 4068.5802 3445.1002 L 4068.3802 3444.6902 L 4068.3802 3443.8702 L 4068.5802 3443.4602 L 4068.7902 3443.2602 L 4069.2002 3443.0502 L 4069.6102 3443.0502 L 4070.0202 3443.2602 L 4070.6302 3443.6702 L 4072.6702 3445.7102 L 4072.6702 3442.8502 M 4068.3802 3439.4502 L 4071.2402 3441.5002 L 4071.2402 3438.4302 M 4068.3802 3439.4502 L 4072.6702 3439.4502 M 4068.3802 3436.6702 L 4068.3802 3434.4202 L 4070.0202 3435.6502 L 4070.0202 3435.0302 L 4070.2202 3434.6202 L 4070.4202 3434.4202 L 4071.0402 3434.2202 L 4071.4502 3434.2202 L 4072.0602 3434.4202 L 4072.4702 3434.8302 L 4072.6702 3435.4402 L 4072.6702 3436.0602 L 4072.4702 3436.6702 L 4072.2702 3436.8702 L 4071.8602 3437.0802 M 4068.3802 3432.4602 L 4068.3802 3430.2102 L 4070.0202 3431.4302 L 4070.0202 3430.8202 L 4070.2202 3430.4102 L 4070.4202 3430.2102 L 4071.0402 3430.0002 L 4071.4502 3430.0002 L 4072.0602 3430.2102 L 4072.4702 3430.6202 L 4072.6702 3431.2302 L 4072.6702 3431.8402 L 4072.4702 3432.4602 L 4072.2702 3432.6602 L 4071.8602 3432.8702" fill="none"  stroke-width="0.6"  /></g><g c_partid="part_pcbtext" c_origin="4061,3433" c_rotation="270" c_mirror="0" id="gge1623" layerid="3" c_shapetype="group" ><path c_fontSize="4.5" c_fontFamily="" c_text="U6" d="M 4065.5401 3433 L 4062.4701 3433 L 4061.8601 3433.2 L 4061.4501 3433.61 L 4061.2501 3434.23 L 4061.2501 3434.64 L 4061.4501 3435.25 L 4061.8601 3435.66 L 4062.4701 3435.86 L 4065.5401 3435.86 M 4064.9301 3439.67 L 4065.3401 3439.46 L 4065.5401 3438.85 L 4065.5401 3438.44 L 4065.3401 3437.83 L 4064.7201 3437.42 L 4063.7001 3437.21 L 4062.6801 3437.21 L 4061.8601 3437.42 L 4061.4501 3437.83 L 4061.2501 3438.44 L 4061.2501 3438.65 L 4061.4501 3439.26 L 4061.8601 3439.67 L 4062.4701 3439.87 L 4062.6801 3439.87 L 4063.2901 3439.67 L 4063.7001 3439.26 L 4063.9001 3438.65 L 4063.9001 3438.44 L 4063.7001 3437.83 L 4063.2901 3437.42 L 4062.6801 3437.21" fill="none"  stroke-width="0.6" c_note="note_pre" /></g><g c_partid="part_pcbtext" c_origin="4078.5,3551.5" c_rotation="0" c_mirror="0" id="gge2578" layerid="3" c_shapetype="group" ><path c_fontSize="4.5" c_fontFamily="" c_text="PM254-1-19-Z-8.5" d="M 4078.5 3546.96 L 4078.5 3551.25 M 4078.5 3546.96 L 4080.34 3546.96 L 4080.95 3547.16 L 4081.16 3547.37 L 4081.36 3547.78 L 4081.36 3548.39 L 4081.16 3548.8 L 4080.95 3549 L 4080.34 3549.21 L 4078.5 3549.21 M 4082.71 3546.96 L 4082.71 3551.25 M 4082.71 3546.96 L 4084.35 3551.25 M 4085.99 3546.96 L 4084.35 3551.25 M 4085.99 3546.96 L 4085.99 3551.25 M 4087.54 3547.98 L 4087.54 3547.78 L 4087.75 3547.37 L 4087.95 3547.16 L 4088.36 3546.96 L 4089.18 3546.96 L 4089.59 3547.16 L 4089.79 3547.37 L 4090 3547.78 L 4090 3548.19 L 4089.79 3548.6 L 4089.38 3549.21 L 4087.34 3551.25 L 4090.2 3551.25 M 4094 3546.96 L 4091.96 3546.96 L 4091.75 3548.8 L 4091.96 3548.6 L 4092.57 3548.39 L 4093.19 3548.39 L 4093.8 3548.6 L 4094.21 3549 L 4094.41 3549.62 L 4094.41 3550.03 L 4094.21 3550.64 L 4093.8 3551.05 L 4093.19 3551.25 L 4092.57 3551.25 L 4091.96 3551.05 L 4091.75 3550.85 L 4091.55 3550.44 M 4097.81 3546.96 L 4095.76 3549.82 L 4098.83 3549.82 M 4097.81 3546.96 L 4097.81 3551.25 M 4100.18 3549.41 L 4103.86 3549.41 M 4105.21 3547.78 L 4105.62 3547.57 L 4106.24 3546.96 L 4106.24 3551.25 M 4107.59 3549.41 L 4111.27 3549.41 M 4112.62 3547.78 L 4113.03 3547.57 L 4113.64 3546.96 L 4113.64 3551.25 M 4117.65 3548.39 L 4117.45 3549 L 4117.04 3549.41 L 4116.42 3549.62 L 4116.22 3549.62 L 4115.6 3549.41 L 4115.2 3549 L 4114.99 3548.39 L 4114.99 3548.19 L 4115.2 3547.57 L 4115.6 3547.16 L 4116.22 3546.96 L 4116.42 3546.96 L 4117.04 3547.16 L 4117.45 3547.57 L 4117.65 3548.39 L 4117.65 3549.41 L 4117.45 3550.44 L 4117.04 3551.05 L 4116.42 3551.25 L 4116.01 3551.25 L 4115.4 3551.05 L 4115.2 3550.64 M 4119 3549.41 L 4122.68 3549.41 M 4126.9 3546.96 L 4124.03 3551.25 M 4124.03 3546.96 L 4126.9 3546.96 M 4124.03 3551.25 L 4126.9 3551.25 M 4128.25 3549.41 L 4131.93 3549.41 M 4134.3 3546.96 L 4133.69 3547.16 L 4133.48 3547.57 L 4133.48 3547.98 L 4133.69 3548.39 L 4134.1 3548.6 L 4134.91 3548.8 L 4135.53 3549 L 4135.94 3549.41 L 4136.14 3549.82 L 4136.14 3550.44 L 4135.94 3550.85 L 4135.73 3551.05 L 4135.12 3551.25 L 4134.3 3551.25 L 4133.69 3551.05 L 4133.48 3550.85 L 4133.28 3550.44 L 4133.28 3549.82 L 4133.48 3549.41 L 4133.89 3549 L 4134.5 3548.8 L 4135.32 3548.6 L 4135.73 3548.39 L 4135.94 3547.98 L 4135.94 3547.57 L 4135.73 3547.16 L 4135.12 3546.96 L 4134.3 3546.96 M 4137.7 3550.23 L 4137.49 3550.44 L 4137.7 3550.64 L 4137.9 3550.44 L 4137.7 3550.23 M 4141.7 3546.96 L 4139.66 3546.96 L 4139.45 3548.8 L 4139.66 3548.6 L 4140.27 3548.39 L 4140.89 3548.39 L 4141.5 3548.6 L 4141.91 3549 L 4142.11 3549.62 L 4142.11 3550.03 L 4141.91 3550.64 L 4141.5 3551.05 L 4140.89 3551.25 L 4140.27 3551.25 L 4139.66 3551.05 L 4139.45 3550.85 L 4139.25 3550.44" fill="none"  stroke-width="0.6"  /></g><g c_partid="part_pcbtext" c_origin="4140,3553.5" c_rotation="180" c_mirror="0" id="gge2584" layerid="3" c_shapetype="group" ><path c_fontSize="4.5" c_fontFamily="" c_text="U3" d="M 4140 3558.04 L 4140 3554.97 L 4139.8 3554.36 L 4139.39 3553.95 L 4138.77 3553.75 L 4138.36 3553.75 L 4137.75 3553.95 L 4137.34 3554.36 L 4137.14 3554.97 L 4137.14 3558.04 M 4135.38 3558.04 L 4133.13 3558.04 L 4134.35 3556.4 L 4133.74 3556.4 L 4133.33 3556.2 L 4133.13 3556 L 4132.92 3555.38 L 4132.92 3554.97 L 4133.13 3554.36 L 4133.54 3553.95 L 4134.15 3553.75 L 4134.76 3553.75 L 4135.38 3553.95 L 4135.58 3554.15 L 4135.79 3554.56" fill="none"  stroke-width="0.6" c_note="note_pre" /></g><g c_partid="part_pcbtext" c_origin="4079.44,3484.09" c_rotation="0" c_mirror="0" id="gge2965" layerid="3" c_shapetype="group" display="none"><path c_fontSize="4.5" c_fontFamily="" c_text="PM254-1-19-Z-8.5" d="M 4079.4369 3479.549 L 4079.4369 3483.839 M 4079.4369 3479.549 L 4081.2769 3479.549 L 4081.8869 3479.749 L 4082.0969 3479.959 L 4082.2969 3480.369 L 4082.2969 3480.979 L 4082.0969 3481.389 L 4081.8869 3481.589 L 4081.2769 3481.799 L 4079.4369 3481.799 M 4083.6469 3479.549 L 4083.6469 3483.839 M 4083.6469 3479.549 L 4085.2869 3483.839 M 4086.9269 3479.549 L 4085.2869 3483.839 M 4086.9269 3479.549 L 4086.9269 3483.839 M 4088.4769 3480.569 L 4088.4769 3480.369 L 4088.6869 3479.959 L 4088.8869 3479.749 L 4089.2969 3479.549 L 4090.1169 3479.549 L 4090.5269 3479.749 L 4090.7269 3479.959 L 4090.9369 3480.369 L 4090.9369 3480.779 L 4090.7269 3481.189 L 4090.3169 3481.799 L 4088.2769 3483.839 L 4091.1369 3483.839 M 4094.9369 3479.549 L 4092.8969 3479.549 L 4092.6869 3481.389 L 4092.8969 3481.189 L 4093.5069 3480.979 L 4094.1269 3480.979 L 4094.7369 3481.189 L 4095.1469 3481.589 L 4095.3469 3482.209 L 4095.3469 3482.619 L 4095.1469 3483.229 L 4094.7369 3483.639 L 4094.1269 3483.839 L 4093.5069 3483.839 L 4092.8969 3483.639 L 4092.6869 3483.439 L 4092.4869 3483.029 M 4098.7469 3479.549 L 4096.6969 3482.409 L 4099.7669 3482.409 M 4098.7469 3479.549 L 4098.7469 3483.839 M 4101.1169 3481.999 L 4104.7969 3481.999 M 4106.1469 3480.369 L 4106.5569 3480.159 L 4107.1769 3479.549 L 4107.1769 3483.839 M 4108.5269 3481.999 L 4112.2069 3481.999 M 4113.5569 3480.369 L 4113.9669 3480.159 L 4114.5769 3479.549 L 4114.5769 3483.839 M 4118.5869 3480.979 L 4118.3869 3481.589 L 4117.9769 3481.999 L 4117.3569 3482.209 L 4117.1569 3482.209 L 4116.5369 3481.999 L 4116.1369 3481.589 L 4115.9269 3480.979 L 4115.9269 3480.779 L 4116.1369 3480.159 L 4116.5369 3479.749 L 4117.1569 3479.549 L 4117.3569 3479.549 L 4117.9769 3479.749 L 4118.3869 3480.159 L 4118.5869 3480.979 L 4118.5869 3481.999 L 4118.3869 3483.029 L 4117.9769 3483.639 L 4117.3569 3483.839 L 4116.9469 3483.839 L 4116.3369 3483.639 L 4116.1369 3483.229 M 4119.9369 3481.999 L 4123.6169 3481.999 M 4127.8369 3479.549 L 4124.9669 3483.839 M 4124.9669 3479.549 L 4127.8369 3479.549 M 4124.9669 3483.839 L 4127.8369 3483.839 M 4129.1869 3481.999 L 4132.8669 3481.999 M 4135.2369 3479.549 L 4134.6269 3479.749 L 4134.4169 3480.159 L 4134.4169 3480.569 L 4134.6269 3480.979 L 4135.0369 3481.189 L 4135.8469 3481.389 L 4136.4669 3481.589 L 4136.8769 3481.999 L 4137.0769 3482.409 L 4137.0769 3483.029 L 4136.8769 3483.439 L 4136.6669 3483.639 L 4136.0569 3483.839 L 4135.2369 3483.839 L 4134.6269 3483.639 L 4134.4169 3483.439 L 4134.2169 3483.029 L 4134.2169 3482.409 L 4134.4169 3481.999 L 4134.8269 3481.589 L 4135.4369 3481.389 L 4136.2569 3481.189 L 4136.6669 3480.979 L 4136.8769 3480.569 L 4136.8769 3480.159 L 4136.6669 3479.749 L 4136.0569 3479.549 L 4135.2369 3479.549 M 4138.6369 3482.819 L 4138.4269 3483.029 L 4138.6369 3483.229 L 4138.8369 3483.029 L 4138.6369 3482.819 M 4142.6369 3479.549 L 4140.5969 3479.549 L 4140.3869 3481.389 L 4140.5969 3481.189 L 4141.2069 3480.979 L 4141.8269 3480.979 L 4142.4369 3481.189 L 4142.8469 3481.589 L 4143.0469 3482.209 L 4143.0469 3482.619 L 4142.8469 3483.229 L 4142.4369 3483.639 L 4141.8269 3483.839 L 4141.2069 3483.839 L 4140.5969 3483.639 L 4140.3869 3483.439 L 4140.1869 3483.029" fill="none"  stroke-width="0.6"  /></g><g c_partid="part_pcbtext" c_origin="4140.5,3473" c_rotation="180" c_mirror="0" id="gge2971" layerid="3" c_shapetype="group" ><path c_fontSize="4.5" c_fontFamily="" c_text="U4" d="M 4140.5 3477.54 L 4140.5 3474.47 L 4140.3 3473.86 L 4139.89 3473.45 L 4139.27 3473.25 L 4138.86 3473.25 L 4138.25 3473.45 L 4137.84 3473.86 L 4137.64 3474.47 L 4137.64 3477.54 M 4134.24 3477.54 L 4136.29 3474.68 L 4133.22 3474.68 M 4134.24 3477.54 L 4134.24 3473.25" fill="none"  stroke-width="0.6" c_note="note_pre" /></g><g c_partid="part_pcbtext" c_origin="4093.87,3401.79" c_rotation="0" c_mirror="0" id="gge3409" layerid="3" c_shapetype="group" display="none"><path c_fontSize="4.5" c_fontFamily="" c_text="1uF" d="M 4093.8701 3398.07 L 4094.2801 3397.86 L 4094.8901 3397.25 L 4094.8901 3401.54 M 4096.2401 3398.68 L 4096.2401 3400.73 L 4096.4501 3401.34 L 4096.8601 3401.54 L 4097.4701 3401.54 L 4097.8801 3401.34 L 4098.4901 3400.73 M 4098.4901 3398.68 L 4098.4901 3401.54 M 4099.8401 3397.25 L 4099.8401 3401.54 M 4099.8401 3397.25 L 4102.5001 3397.25 M 4099.8401 3399.29 L 4101.4801 3399.29" fill="none"  stroke-width="0.6"  /></g><g c_partid="part_pcbtext" c_origin="4094.5,3378.5" c_rotation="180" c_mirror="0" id="gge3415" layerid="3" c_shapetype="group" ><path c_fontSize="4.5" c_fontFamily="" c_text="C2" d="M 4091.43 3382.02 L 4091.64 3382.43 L 4092.05 3382.84 L 4092.45 3383.04 L 4093.27 3383.04 L 4093.68 3382.84 L 4094.09 3382.43 L 4094.3 3382.02 L 4094.5 3381.4 L 4094.5 3380.38 L 4094.3 3379.77 L 4094.09 3379.36 L 4093.68 3378.95 L 4093.27 3378.75 L 4092.45 3378.75 L 4092.05 3378.95 L 4091.64 3379.36 L 4091.43 3379.77 M 4089.88 3382.02 L 4089.88 3382.22 L 4089.67 3382.63 L 4089.47 3382.84 L 4089.06 3383.04 L 4088.24 3383.04 L 4087.83 3382.84 L 4087.63 3382.63 L 4087.42 3382.22 L 4087.42 3381.81 L 4087.63 3381.4 L 4088.04 3380.79 L 4090.08 3378.75 L 4087.22 3378.75" fill="none"  stroke-width="0.6" c_note="note_pre" /></g><g c_partid="part_pcbtext" c_origin="4122.76,3390.79" c_rotation="0" c_mirror="0" id="gge3607" layerid="3" c_shapetype="group" display="none"><path c_fontSize="4.5" c_fontFamily="" c_text="1K" d="M 4122.76 3387.07 L 4123.17 3386.86 L 4123.78 3386.25 L 4123.78 3390.54 M 4125.13 3386.25 L 4125.13 3390.54 M 4128 3386.25 L 4125.13 3389.11 M 4126.16 3388.09 L 4128 3390.54" fill="none"  stroke-width="0.6"  /></g><g c_partid="part_pcbtext" c_origin="4129.5,3380" c_rotation="180" c_mirror="0" id="gge3613" layerid="3" c_shapetype="group" ><path c_fontSize="4.5" c_fontFamily="" c_text="R2" d="M 4129.5 3384.54 L 4129.5 3380.25 M 4129.5 3384.54 L 4127.66 3384.54 L 4127.05 3384.34 L 4126.84 3384.13 L 4126.64 3383.72 L 4126.64 3383.31 L 4126.84 3382.9 L 4127.05 3382.7 L 4127.66 3382.5 L 4129.5 3382.5 M 4128.07 3382.5 L 4126.64 3380.25 M 4125.08 3383.52 L 4125.08 3383.72 L 4124.88 3384.13 L 4124.67 3384.34 L 4124.26 3384.54 L 4123.45 3384.54 L 4123.04 3384.34 L 4122.83 3384.13 L 4122.63 3383.72 L 4122.63 3383.31 L 4122.83 3382.9 L 4123.24 3382.29 L 4125.29 3380.25 L 4122.42 3380.25" fill="none"  stroke-width="0.6" c_note="note_pre" /></g><g c_partid="part_pcbtext" c_origin="4054.88,3390.35" c_rotation="0" c_mirror="0" id="gge12379" layerid="3" c_shapetype="group" display="none"><path c_fontSize="4.5" c_fontFamily="" c_text="1N4148WS_C727111" d="M 4054.8815 3386.6301 L 4055.2915 3386.4201 L 4055.9015 3385.8101 L 4055.9015 3390.1001 M 4057.2515 3385.8101 L 4057.2515 3390.1001 M 4057.2515 3385.8101 L 4060.1215 3390.1001 M 4060.1215 3385.8101 L 4060.1215 3390.1001 M 4063.5115 3385.8101 L 4061.4715 3388.6701 L 4064.5315 3388.6701 M 4063.5115 3385.8101 L 4063.5115 3390.1001 M 4065.8815 3386.6301 L 4066.2915 3386.4201 L 4066.9115 3385.8101 L 4066.9115 3390.1001 M 4070.3015 3385.8101 L 4068.2615 3388.6701 L 4071.3315 3388.6701 M 4070.3015 3385.8101 L 4070.3015 3390.1001 M 4073.7015 3385.8101 L 4073.0815 3386.0101 L 4072.8815 3386.4201 L 4072.8815 3386.8301 L 4073.0815 3387.2401 L 4073.4915 3387.4501 L 4074.3115 3387.6501 L 4074.9315 3387.8501 L 4075.3315 3388.2601 L 4075.5415 3388.6701 L 4075.5415 3389.2901 L 4075.3315 3389.7001 L 4075.1315 3389.9001 L 4074.5215 3390.1001 L 4073.7015 3390.1001 L 4073.0815 3389.9001 L 4072.8815 3389.7001 L 4072.6815 3389.2901 L 4072.6815 3388.6701 L 4072.8815 3388.2601 L 4073.2915 3387.8501 L 4073.9015 3387.6501 L 4074.7215 3387.4501 L 4075.1315 3387.2401 L 4075.3315 3386.8301 L 4075.3315 3386.4201 L 4075.1315 3386.0101 L 4074.5215 3385.8101 L 4073.7015 3385.8101 M 4076.8915 3385.8101 L 4077.9115 3390.1001 M 4078.9315 3385.8101 L 4077.9115 3390.1001 M 4078.9315 3385.8101 L 4079.9615 3390.1001 M 4080.9815 3385.8101 L 4079.9615 3390.1001 M 4085.1915 3386.4201 L 4084.7815 3386.0101 L 4084.1715 3385.8101 L 4083.3515 3385.8101 L 4082.7415 3386.0101 L 4082.3315 3386.4201 L 4082.3315 3386.8301 L 4082.5315 3387.2401 L 4082.7415 3387.4501 L 4083.1515 3387.6501 L 4084.3815 3388.0601 L 4084.7815 3388.2601 L 4084.9915 3388.4701 L 4085.1915 3388.8801 L 4085.1915 3389.4901 L 4084.7815 3389.9001 L 4084.1715 3390.1001 L 4083.3515 3390.1001 L 4082.7415 3389.9001 L 4082.3315 3389.4901 M 4086.5415 3391.5401 L 4090.2315 3391.5401 M 4094.6415 3386.8301 L 4094.4415 3386.4201 L 4094.0315 3386.0101 L 4093.6215 3385.8101 L 4092.8015 3385.8101 L 4092.3915 3386.0101 L 4091.9815 3386.4201 L 4091.7815 3386.8301 L 4091.5815 3387.4501 L 4091.5815 3388.4701 L 4091.7815 3389.0801 L 4091.9815 3389.4901 L 4092.3915 3389.9001 L 4092.8015 3390.1001 L 4093.6215 3390.1001 L 4094.0315 3389.9001 L 4094.4415 3389.4901 L 4094.6415 3389.0801 M 4098.8615 3385.8101 L 4096.8115 3390.1001 M 4095.9915 3385.8101 L 4098.8615 3385.8101 M 4100.4115 3386.8301 L 4100.4115 3386.6301 L 4100.6215 3386.2201 L 4100.8215 3386.0101 L 4101.2315 3385.8101 L 4102.0515 3385.8101 L 4102.4615 3386.0101 L 4102.6615 3386.2201 L 4102.8715 3386.6301 L 4102.8715 3387.0401 L 4102.6615 3387.4501 L 4102.2515 3388.0601 L 4100.2115 3390.1001 L 4103.0715 3390.1001 M 4107.2815 3385.8101 L 4105.2415 3390.1001 M 4104.4215 3385.8101 L 4107.2815 3385.8101 M 4108.6315 3386.6301 L 4109.0415 3386.4201 L 4109.6615 3385.8101 L 4109.6615 3390.1001 M 4111.0115 3386.6301 L 4111.4215 3386.4201 L 4112.0315 3385.8101 L 4112.0315 3390.1001 M 4113.3815 3386.6301 L 4113.7915 3386.4201 L 4114.4015 3385.8101 L 4114.4015 3390.1001" fill="none"  stroke-width="0.6"  /></g><g c_partid="part_pcbtext" c_origin="4114.4,3380" c_rotation="180" c_mirror="0" id="gge12385" layerid="3" c_shapetype="group" ><path c_fontSize="4.5" c_fontFamily="" c_text="D3" d="M 4114.4015 3384.54 L 4114.4015 3380.25 M 4114.4015 3384.54 L 4112.9715 3384.54 L 4112.3515 3384.34 L 4111.9515 3383.93 L 4111.7415 3383.52 L 4111.5415 3382.9 L 4111.5415 3381.88 L 4111.7415 3381.27 L 4111.9515 3380.86 L 4112.3515 3380.45 L 4112.9715 3380.25 L 4114.4015 3380.25 M 4109.7815 3384.54 L 4107.5315 3384.54 L 4108.7515 3382.9 L 4108.1415 3382.9 L 4107.7315 3382.7 L 4107.5315 3382.5 L 4107.3215 3381.88 L 4107.3215 3381.47 L 4107.5315 3380.86 L 4107.9415 3380.45 L 4108.5515 3380.25 L 4109.1615 3380.25 L 4109.7815 3380.45 L 4109.9815 3380.65 L 4110.1915 3381.06" fill="none"  stroke-width="0.6" c_note="note_pre" /></g><g c_partid="part_pcbtext" c_origin="4145.6,3357.5" c_rotation="0" c_mirror="0" id="gge12673" layerid="3" c_shapetype="group" display="none"><path c_fontSize="4.5" c_fontFamily="" c_text="1N4148WS_C727111" d="M 4145.5985 3353.78 L 4146.0085 3353.57 L 4146.6185 3352.96 L 4146.6185 3357.25 M 4147.9685 3352.96 L 4147.9685 3357.25 M 4147.9685 3352.96 L 4150.8385 3357.25 M 4150.8385 3352.96 L 4150.8385 3357.25 M 4154.2285 3352.96 L 4152.1885 3355.82 L 4155.2485 3355.82 M 4154.2285 3352.96 L 4154.2285 3357.25 M 4156.5985 3353.78 L 4157.0085 3353.57 L 4157.6285 3352.96 L 4157.6285 3357.25 M 4161.0185 3352.96 L 4158.9785 3355.82 L 4162.0485 3355.82 M 4161.0185 3352.96 L 4161.0185 3357.25 M 4164.4185 3352.96 L 4163.7985 3353.16 L 4163.5985 3353.57 L 4163.5985 3353.98 L 4163.7985 3354.39 L 4164.2085 3354.6 L 4165.0285 3354.8 L 4165.6485 3355 L 4166.0485 3355.41 L 4166.2585 3355.82 L 4166.2585 3356.44 L 4166.0485 3356.85 L 4165.8485 3357.05 L 4165.2385 3357.25 L 4164.4185 3357.25 L 4163.7985 3357.05 L 4163.5985 3356.85 L 4163.3985 3356.44 L 4163.3985 3355.82 L 4163.5985 3355.41 L 4164.0085 3355 L 4164.6185 3354.8 L 4165.4385 3354.6 L 4165.8485 3354.39 L 4166.0485 3353.98 L 4166.0485 3353.57 L 4165.8485 3353.16 L 4165.2385 3352.96 L 4164.4185 3352.96 M 4167.6085 3352.96 L 4168.6285 3357.25 M 4169.6485 3352.96 L 4168.6285 3357.25 M 4169.6485 3352.96 L 4170.6785 3357.25 M 4171.6985 3352.96 L 4170.6785 3357.25 M 4175.9085 3353.57 L 4175.4985 3353.16 L 4174.8885 3352.96 L 4174.0685 3352.96 L 4173.4585 3353.16 L 4173.0485 3353.57 L 4173.0485 3353.98 L 4173.2485 3354.39 L 4173.4585 3354.6 L 4173.8685 3354.8 L 4175.0985 3355.21 L 4175.4985 3355.41 L 4175.7085 3355.62 L 4175.9085 3356.03 L 4175.9085 3356.64 L 4175.4985 3357.05 L 4174.8885 3357.25 L 4174.0685 3357.25 L 4173.4585 3357.05 L 4173.0485 3356.64 M 4177.2585 3358.69 L 4180.9485 3358.69 M 4185.3585 3353.98 L 4185.1585 3353.57 L 4184.7485 3353.16 L 4184.3385 3352.96 L 4183.5185 3352.96 L 4183.1085 3353.16 L 4182.6985 3353.57 L 4182.4985 3353.98 L 4182.2985 3354.6 L 4182.2985 3355.62 L 4182.4985 3356.23 L 4182.6985 3356.64 L 4183.1085 3357.05 L 4183.5185 3357.25 L 4184.3385 3357.25 L 4184.7485 3357.05 L 4185.1585 3356.64 L 4185.3585 3356.23 M 4189.5785 3352.96 L 4187.5285 3357.25 M 4186.7085 3352.96 L 4189.5785 3352.96 M 4191.1285 3353.98 L 4191.1285 3353.78 L 4191.3385 3353.37 L 4191.5385 3353.16 L 4191.9485 3352.96 L 4192.7685 3352.96 L 4193.1785 3353.16 L 4193.3785 3353.37 L 4193.5885 3353.78 L 4193.5885 3354.19 L 4193.3785 3354.6 L 4192.9685 3355.21 L 4190.9285 3357.25 L 4193.7885 3357.25 M 4197.9985 3352.96 L 4195.9585 3357.25 M 4195.1385 3352.96 L 4197.9985 3352.96 M 4199.3485 3353.78 L 4199.7585 3353.57 L 4200.3785 3352.96 L 4200.3785 3357.25 M 4201.7285 3353.78 L 4202.1385 3353.57 L 4202.7485 3352.96 L 4202.7485 3357.25 M 4204.0985 3353.78 L 4204.5085 3353.57 L 4205.1185 3352.96 L 4205.1185 3357.25" fill="none"  stroke-width="0.6"  /></g><g c_partid="part_pcbtext" c_origin="4144,3379.5" c_rotation="0" c_mirror="0" id="gge12679" layerid="3" c_shapetype="group" ><path c_fontSize="4.5" c_fontFamily="" c_text="D1" d="M 4144 3374.96 L 4144 3379.25 M 4144 3374.96 L 4145.43 3374.96 L 4146.05 3375.16 L 4146.45 3375.57 L 4146.66 3375.98 L 4146.86 3376.6 L 4146.86 3377.62 L 4146.66 3378.23 L 4146.45 3378.64 L 4146.05 3379.05 L 4145.43 3379.25 L 4144 3379.25 M 4148.21 3375.78 L 4148.62 3375.57 L 4149.24 3374.96 L 4149.24 3379.25" fill="none"  stroke-width="0.6" c_note="note_pre" /></g><g c_partid="part_pcbtext" c_origin="4166.35,3428.6" c_rotation="90" c_mirror="0" id="gge12979" layerid="3" c_shapetype="group" display="none"><path c_fontSize="4.5" c_fontFamily="" c_text="220pF" d="M 4162.8301 3428.4001 L 4162.6301 3428.4001 L 4162.2201 3428.1901 L 4162.0101 3427.9901 L 4161.8101 3427.5801 L 4161.8101 3426.7601 L 4162.0101 3426.3501 L 4162.2201 3426.1501 L 4162.6301 3425.9401 L 4163.0401 3425.9401 L 4163.4501 3426.1501 L 4164.0601 3426.5501 L 4166.1001 3428.6001 L 4166.1001 3425.7401 M 4162.8301 3424.1801 L 4162.6301 3424.1801 L 4162.2201 3423.9801 L 4162.0101 3423.7701 L 4161.8101 3423.3601 L 4161.8101 3422.5501 L 4162.0101 3422.1401 L 4162.2201 3421.9301 L 4162.6301 3421.7301 L 4163.0401 3421.7301 L 4163.4501 3421.9301 L 4164.0601 3422.3401 L 4166.1001 3424.3901 L 4166.1001 3421.5201 M 4161.8101 3418.9501 L 4162.0101 3419.5601 L 4162.6301 3419.9701 L 4163.6501 3420.1701 L 4164.2601 3420.1701 L 4165.2901 3419.9701 L 4165.9001 3419.5601 L 4166.1001 3418.9501 L 4166.1001 3418.5401 L 4165.9001 3417.9201 L 4165.2901 3417.5101 L 4164.2601 3417.3101 L 4163.6501 3417.3101 L 4162.6301 3417.5101 L 4162.0101 3417.9201 L 4161.8101 3418.5401 L 4161.8101 3418.9501 M 4163.2401 3415.9601 L 4167.5401 3415.9601 M 4163.8501 3415.9601 L 4163.4501 3415.5501 L 4163.2401 3415.1401 L 4163.2401 3414.5301 L 4163.4501 3414.1201 L 4163.8501 3413.7101 L 4164.4701 3413.5001 L 4164.8801 3413.5001 L 4165.4901 3413.7101 L 4165.9001 3414.1201 L 4166.1001 3414.5301 L 4166.1001 3415.1401 L 4165.9001 3415.5501 L 4165.4901 3415.9601 M 4161.8101 3412.1501 L 4166.1001 3412.1501 M 4161.8101 3412.1501 L 4161.8101 3409.5001 M 4163.8501 3412.1501 L 4163.8501 3410.5201" fill="none"  stroke-width="0.6"  /></g><g c_partid="part_pcbtext" c_origin="4150.5,3417" c_rotation="270" c_mirror="0" id="gge12985" layerid="3" c_shapetype="group" ><path c_fontSize="4.5" c_fontFamily="" c_text="C1" d="M 4154.02 3420.07 L 4154.43 3419.86 L 4154.84 3419.45 L 4155.04 3419.05 L 4155.04 3418.23 L 4154.84 3417.82 L 4154.43 3417.41 L 4154.02 3417.2 L 4153.4 3417 L 4152.38 3417 L 4151.77 3417.2 L 4151.36 3417.41 L 4150.95 3417.82 L 4150.75 3418.23 L 4150.75 3419.05 L 4150.95 3419.45 L 4151.36 3419.86 L 4151.77 3420.07 M 4154.22 3421.42 L 4154.43 3421.83 L 4155.04 3422.44 L 4150.75 3422.44" fill="none"  stroke-width="0.6" c_note="note_pre" /></g><path d="M 4107.0335 3387.5969 A 1.2198 1.2198 0 0 1 4105.8137 3388.8167" c_shapetype="line" fill="none" stroke-width="1" c_helper_type="arc2" net="" layerid="3" id="gge3448" /><path d="M 4105.8137 3383.2275 A 1.2198 1.2198 0 0 1 4107.0335 3384.4474" c_shapetype="line" fill="none" stroke-width="1" c_helper_type="arc2" net="" layerid="3" id="gge3451" /><path d="M 4097.2473 3388.7938 A 1.2198 1.2198 0 0 1 4096.0275 3387.5739" c_shapetype="line" fill="none" stroke-width="1" c_helper_type="arc2" net="" layerid="3" id="gge3454" /><path d="M 4096.0275 3384.4244 A 1.2198 1.2198 0 0 1 4097.2473 3383.2046" c_shapetype="line" fill="none" stroke-width="1" c_helper_type="arc2" net="" layerid="3" id="gge3457" /><path d="M 4151.037 3413.5012 A 0.6 0.6 0 0 0 4151.637 3414.1012" c_shapetype="line" fill="none" stroke-width="0.6" c_helper_type="arc2" net="" layerid="3" id="gge13024" /><path d="M 4154.363 3414.1012 A 0.6 0.6 0 0 0 4154.963 3413.5012" c_shapetype="line" fill="none" stroke-width="0.6" c_helper_type="arc2" net="" layerid="3" id="gge13027" /><path d="M 4151.037 3405.4988 A 0.6 0.6 0 0 1 4151.637 3404.8988" c_shapetype="line" fill="none" stroke-width="0.6" c_helper_type="arc2" net="" layerid="3" id="gge13030" /><path d="M 4154.363 3404.8988 A 0.6 0.6 0 0 1 4154.963 3405.4988" c_shapetype="line" fill="none" stroke-width="0.6" c_helper_type="arc2" net="" layerid="3" id="gge13033" /><circle cx="4088" cy="3414.53" r="0.59" stroke-width="1.1811" fill="none" layerid="3" id="gge390" c_shapetype="line" /><circle cx="4085.06" cy="3422.42" r="0.59" stroke-width="1.1811" fill="none" layerid="3" id="gge393" c_shapetype="line" /><path d="M 4116.5511 3378.1591 L 4116.5511 3376.7717 L 4117.7511 3376.7717 L 4117.7511 3378.1591 Z" stroke-width="0"  c_shapetype="line" net="" type="solid" layerid="3" id="gge12421" locked="0" c_teardrop="" c_targetpad="" c_targetwire="" /><path d="M 4116.5511 3371.8409 L 4116.5511 3373.2283 L 4117.7511 3373.2283 L 4117.7511 3371.8409 Z" stroke-width="0"  c_shapetype="line" net="" type="solid" layerid="3" id="gge12424" locked="0" c_teardrop="" c_targetpad="" c_targetwire="" /><path d="M 4143.4489 3366.3409 L 4143.4489 3367.7283 L 4142.2489 3367.7283 L 4142.2489 3366.3409 Z " stroke-width="0"  c_shapetype="line" net="" type="solid" layerid="3" id="gge12715" locked="0" c_teardrop="" c_targetpad="" c_targetwire="" /><path d="M 4143.4489 3372.6591 L 4143.4489 3371.2717 L 4142.2489 3371.2717 L 4142.2489 3372.6591 Z " stroke-width="0"  c_shapetype="line" net="" type="solid" layerid="3" id="gge12718" locked="0" c_teardrop="" c_targetpad="" c_targetwire="" /><polyline points="4020 3360 4271.968 3360 4271.968 3576.535" stroke-width="1" c_shapetype="line" stroke-linecap="round" fill="none" layerid="10" net="" id="gge5302" /><polyline points="4020 3576.535 4020 3360" stroke-width="1" c_shapetype="line" stroke-linecap="round" fill="none" layerid="10" net="" id="gge5305" /><polyline points="4271.968 3576.535 4020 3576.535" stroke-width="1" c_shapetype="line" stroke-linecap="round" fill="none" layerid="10" net="" id="gge5332" /></g></svg>
