%TF.GenerationSoftware,KiCad,Pcbnew,9.0.1+1*%
%TF.CreationDate,2025-05-19T20:13:15-04:00*%
%TF.ProjectId,lg_hvac_esp32,6c675f68-7661-4635-9f65-737033322e6b,rev?*%
%TF.SameCoordinates,Original*%
%TF.FileFunction,Legend,Bot*%
%TF.FilePolarity,Positive*%
%FSLAX46Y46*%
G04 Gerber Fmt 4.6, Leading zero omitted, Abs format (unit mm)*
G04 Created by KiCad (PCBNEW 9.0.1+1) date 2025-05-19 20:13:15*
%MOMM*%
%LPD*%
G01*
G04 APERTURE LIST*
G04 Aperture macros list*
%AMRoundRect*
0 Rectangle with rounded corners*
0 $1 Rounding radius*
0 $2 $3 $4 $5 $6 $7 $8 $9 X,Y pos of 4 corners*
0 Add a 4 corners polygon primitive as box body*
4,1,4,$2,$3,$4,$5,$6,$7,$8,$9,$2,$3,0*
0 Add four circle primitives for the rounded corners*
1,1,$1+$1,$2,$3*
1,1,$1+$1,$4,$5*
1,1,$1+$1,$6,$7*
1,1,$1+$1,$8,$9*
0 Add four rect primitives between the rounded corners*
20,1,$1+$1,$2,$3,$4,$5,0*
20,1,$1+$1,$4,$5,$6,$7,0*
20,1,$1+$1,$6,$7,$8,$9,0*
20,1,$1+$1,$8,$9,$2,$3,0*%
G04 Aperture macros list end*
%ADD10C,0.300000*%
%ADD11C,0.150000*%
%ADD12RoundRect,0.050000X0.850000X0.850000X-0.850000X0.850000X-0.850000X-0.850000X0.850000X-0.850000X0*%
%ADD13C,1.800000*%
%ADD14RoundRect,0.050000X-0.850000X-0.850000X0.850000X-0.850000X0.850000X0.850000X-0.850000X0.850000X0*%
%ADD15C,2.800000*%
%ADD16RoundRect,0.264706X0.635294X0.760294X-0.635294X0.760294X-0.635294X-0.760294X0.635294X-0.760294X0*%
%ADD17O,1.800000X2.050000*%
G04 APERTURE END LIST*
D10*
X38608000Y-32766000D02*
X60452000Y-32766000D01*
X60452000Y-53340000D01*
X38608000Y-53340000D01*
X38608000Y-32766000D01*
X94056000Y-55626000D02*
X112100000Y-55626000D01*
X112100000Y-75550000D01*
X94056000Y-75550000D01*
X94056000Y-55626000D01*
D11*
X43616285Y-55480295D02*
X43901999Y-55480295D01*
X43901999Y-55480295D02*
X43901999Y-54680295D01*
X43416285Y-55480295D02*
X43416285Y-54680295D01*
X43130571Y-55480295D02*
X43130571Y-54680295D01*
X43130571Y-54680295D02*
X42787714Y-55480295D01*
X42787714Y-55480295D02*
X42787714Y-54680295D01*
X42302000Y-55061247D02*
X42216286Y-55099342D01*
X42216286Y-55099342D02*
X42187715Y-55137438D01*
X42187715Y-55137438D02*
X42159143Y-55213628D01*
X42159143Y-55213628D02*
X42159143Y-55327914D01*
X42159143Y-55327914D02*
X42187715Y-55404104D01*
X42187715Y-55404104D02*
X42216286Y-55442200D01*
X42216286Y-55442200D02*
X42273429Y-55480295D01*
X42273429Y-55480295D02*
X42502000Y-55480295D01*
X42502000Y-55480295D02*
X42502000Y-54680295D01*
X42502000Y-54680295D02*
X42302000Y-54680295D01*
X42302000Y-54680295D02*
X42244858Y-54718390D01*
X42244858Y-54718390D02*
X42216286Y-54756485D01*
X42216286Y-54756485D02*
X42187715Y-54832676D01*
X42187715Y-54832676D02*
X42187715Y-54908866D01*
X42187715Y-54908866D02*
X42216286Y-54985057D01*
X42216286Y-54985057D02*
X42244858Y-55023152D01*
X42244858Y-55023152D02*
X42302000Y-55061247D01*
X42302000Y-55061247D02*
X42502000Y-55061247D01*
X41902000Y-54680295D02*
X41902000Y-55327914D01*
X41902000Y-55327914D02*
X41873429Y-55404104D01*
X41873429Y-55404104D02*
X41844858Y-55442200D01*
X41844858Y-55442200D02*
X41787715Y-55480295D01*
X41787715Y-55480295D02*
X41673429Y-55480295D01*
X41673429Y-55480295D02*
X41616286Y-55442200D01*
X41616286Y-55442200D02*
X41587715Y-55404104D01*
X41587715Y-55404104D02*
X41559143Y-55327914D01*
X41559143Y-55327914D02*
X41559143Y-54680295D01*
X41302001Y-55442200D02*
X41216287Y-55480295D01*
X41216287Y-55480295D02*
X41073429Y-55480295D01*
X41073429Y-55480295D02*
X41016287Y-55442200D01*
X41016287Y-55442200D02*
X40987715Y-55404104D01*
X40987715Y-55404104D02*
X40959144Y-55327914D01*
X40959144Y-55327914D02*
X40959144Y-55251723D01*
X40959144Y-55251723D02*
X40987715Y-55175533D01*
X40987715Y-55175533D02*
X41016287Y-55137438D01*
X41016287Y-55137438D02*
X41073429Y-55099342D01*
X41073429Y-55099342D02*
X41187715Y-55061247D01*
X41187715Y-55061247D02*
X41244858Y-55023152D01*
X41244858Y-55023152D02*
X41273429Y-54985057D01*
X41273429Y-54985057D02*
X41302001Y-54908866D01*
X41302001Y-54908866D02*
X41302001Y-54832676D01*
X41302001Y-54832676D02*
X41273429Y-54756485D01*
X41273429Y-54756485D02*
X41244858Y-54718390D01*
X41244858Y-54718390D02*
X41187715Y-54680295D01*
X41187715Y-54680295D02*
X41044858Y-54680295D01*
X41044858Y-54680295D02*
X40959144Y-54718390D01*
X40330572Y-54680295D02*
X39987715Y-54680295D01*
X40159143Y-55480295D02*
X40159143Y-54680295D01*
X39844857Y-54680295D02*
X39444857Y-55480295D01*
X39444857Y-54680295D02*
X39844857Y-55480295D01*
X39216285Y-55480295D02*
X39216285Y-54680295D01*
X39216285Y-54680295D02*
X39073428Y-54680295D01*
X39073428Y-54680295D02*
X38987714Y-54718390D01*
X38987714Y-54718390D02*
X38930571Y-54794580D01*
X38930571Y-54794580D02*
X38902000Y-54870771D01*
X38902000Y-54870771D02*
X38873428Y-55023152D01*
X38873428Y-55023152D02*
X38873428Y-55137438D01*
X38873428Y-55137438D02*
X38902000Y-55289819D01*
X38902000Y-55289819D02*
X38930571Y-55366009D01*
X38930571Y-55366009D02*
X38987714Y-55442200D01*
X38987714Y-55442200D02*
X39073428Y-55480295D01*
X39073428Y-55480295D02*
X39216285Y-55480295D01*
X95557142Y-38700390D02*
X95614285Y-38662295D01*
X95614285Y-38662295D02*
X95699999Y-38662295D01*
X95699999Y-38662295D02*
X95785713Y-38700390D01*
X95785713Y-38700390D02*
X95842856Y-38776580D01*
X95842856Y-38776580D02*
X95871427Y-38852771D01*
X95871427Y-38852771D02*
X95899999Y-39005152D01*
X95899999Y-39005152D02*
X95899999Y-39119438D01*
X95899999Y-39119438D02*
X95871427Y-39271819D01*
X95871427Y-39271819D02*
X95842856Y-39348009D01*
X95842856Y-39348009D02*
X95785713Y-39424200D01*
X95785713Y-39424200D02*
X95699999Y-39462295D01*
X95699999Y-39462295D02*
X95642856Y-39462295D01*
X95642856Y-39462295D02*
X95557142Y-39424200D01*
X95557142Y-39424200D02*
X95528570Y-39386104D01*
X95528570Y-39386104D02*
X95528570Y-39119438D01*
X95528570Y-39119438D02*
X95642856Y-39119438D01*
X95271427Y-39462295D02*
X95271427Y-38662295D01*
X95271427Y-38662295D02*
X94928570Y-39462295D01*
X94928570Y-39462295D02*
X94928570Y-38662295D01*
X94642856Y-39462295D02*
X94642856Y-38662295D01*
X94642856Y-38662295D02*
X94499999Y-38662295D01*
X94499999Y-38662295D02*
X94414285Y-38700390D01*
X94414285Y-38700390D02*
X94357142Y-38776580D01*
X94357142Y-38776580D02*
X94328571Y-38852771D01*
X94328571Y-38852771D02*
X94299999Y-39005152D01*
X94299999Y-39005152D02*
X94299999Y-39119438D01*
X94299999Y-39119438D02*
X94328571Y-39271819D01*
X94328571Y-39271819D02*
X94357142Y-39348009D01*
X94357142Y-39348009D02*
X94414285Y-39424200D01*
X94414285Y-39424200D02*
X94499999Y-39462295D01*
X94499999Y-39462295D02*
X94642856Y-39462295D01*
X95985714Y-33662295D02*
X95614286Y-33662295D01*
X95614286Y-33662295D02*
X95814286Y-33967057D01*
X95814286Y-33967057D02*
X95728571Y-33967057D01*
X95728571Y-33967057D02*
X95671429Y-34005152D01*
X95671429Y-34005152D02*
X95642857Y-34043247D01*
X95642857Y-34043247D02*
X95614286Y-34119438D01*
X95614286Y-34119438D02*
X95614286Y-34309914D01*
X95614286Y-34309914D02*
X95642857Y-34386104D01*
X95642857Y-34386104D02*
X95671429Y-34424200D01*
X95671429Y-34424200D02*
X95728571Y-34462295D01*
X95728571Y-34462295D02*
X95900000Y-34462295D01*
X95900000Y-34462295D02*
X95957143Y-34424200D01*
X95957143Y-34424200D02*
X95985714Y-34386104D01*
X95357142Y-34386104D02*
X95328571Y-34424200D01*
X95328571Y-34424200D02*
X95357142Y-34462295D01*
X95357142Y-34462295D02*
X95385714Y-34424200D01*
X95385714Y-34424200D02*
X95357142Y-34386104D01*
X95357142Y-34386104D02*
X95357142Y-34462295D01*
X95128571Y-33662295D02*
X94757143Y-33662295D01*
X94757143Y-33662295D02*
X94957143Y-33967057D01*
X94957143Y-33967057D02*
X94871428Y-33967057D01*
X94871428Y-33967057D02*
X94814286Y-34005152D01*
X94814286Y-34005152D02*
X94785714Y-34043247D01*
X94785714Y-34043247D02*
X94757143Y-34119438D01*
X94757143Y-34119438D02*
X94757143Y-34309914D01*
X94757143Y-34309914D02*
X94785714Y-34386104D01*
X94785714Y-34386104D02*
X94814286Y-34424200D01*
X94814286Y-34424200D02*
X94871428Y-34462295D01*
X94871428Y-34462295D02*
X95042857Y-34462295D01*
X95042857Y-34462295D02*
X95100000Y-34424200D01*
X95100000Y-34424200D02*
X95128571Y-34386104D01*
X94585714Y-33662295D02*
X94385714Y-34462295D01*
X94385714Y-34462295D02*
X94185714Y-33662295D01*
X50170667Y-77404318D02*
X50170667Y-77975746D01*
X50170667Y-77975746D02*
X50208762Y-78090032D01*
X50208762Y-78090032D02*
X50284953Y-78166223D01*
X50284953Y-78166223D02*
X50399238Y-78204318D01*
X50399238Y-78204318D02*
X50475429Y-78204318D01*
X49827810Y-78166223D02*
X49713524Y-78204318D01*
X49713524Y-78204318D02*
X49523048Y-78204318D01*
X49523048Y-78204318D02*
X49446857Y-78166223D01*
X49446857Y-78166223D02*
X49408762Y-78128127D01*
X49408762Y-78128127D02*
X49370667Y-78051937D01*
X49370667Y-78051937D02*
X49370667Y-77975746D01*
X49370667Y-77975746D02*
X49408762Y-77899556D01*
X49408762Y-77899556D02*
X49446857Y-77861461D01*
X49446857Y-77861461D02*
X49523048Y-77823365D01*
X49523048Y-77823365D02*
X49675429Y-77785270D01*
X49675429Y-77785270D02*
X49751619Y-77747175D01*
X49751619Y-77747175D02*
X49789714Y-77709080D01*
X49789714Y-77709080D02*
X49827810Y-77632889D01*
X49827810Y-77632889D02*
X49827810Y-77556699D01*
X49827810Y-77556699D02*
X49789714Y-77480508D01*
X49789714Y-77480508D02*
X49751619Y-77442413D01*
X49751619Y-77442413D02*
X49675429Y-77404318D01*
X49675429Y-77404318D02*
X49484952Y-77404318D01*
X49484952Y-77404318D02*
X49370667Y-77442413D01*
X49142095Y-77404318D02*
X48684952Y-77404318D01*
X48913524Y-78204318D02*
X48913524Y-77404318D01*
X47884952Y-77404318D02*
X47351618Y-78204318D01*
X47351618Y-77404318D02*
X47884952Y-78204318D01*
X47046856Y-78204318D02*
X47046856Y-77404318D01*
X47046856Y-77785270D02*
X46589713Y-77785270D01*
X46589713Y-78204318D02*
X46589713Y-77404318D01*
X45637333Y-77480508D02*
X45599237Y-77442413D01*
X45599237Y-77442413D02*
X45523047Y-77404318D01*
X45523047Y-77404318D02*
X45332571Y-77404318D01*
X45332571Y-77404318D02*
X45256380Y-77442413D01*
X45256380Y-77442413D02*
X45218285Y-77480508D01*
X45218285Y-77480508D02*
X45180190Y-77556699D01*
X45180190Y-77556699D02*
X45180190Y-77632889D01*
X45180190Y-77632889D02*
X45218285Y-77747175D01*
X45218285Y-77747175D02*
X45675428Y-78204318D01*
X45675428Y-78204318D02*
X45180190Y-78204318D01*
X44837332Y-78128127D02*
X44799237Y-78166223D01*
X44799237Y-78166223D02*
X44837332Y-78204318D01*
X44837332Y-78204318D02*
X44875428Y-78166223D01*
X44875428Y-78166223D02*
X44837332Y-78128127D01*
X44837332Y-78128127D02*
X44837332Y-78204318D01*
X44075428Y-77404318D02*
X44456380Y-77404318D01*
X44456380Y-77404318D02*
X44494476Y-77785270D01*
X44494476Y-77785270D02*
X44456380Y-77747175D01*
X44456380Y-77747175D02*
X44380190Y-77709080D01*
X44380190Y-77709080D02*
X44189714Y-77709080D01*
X44189714Y-77709080D02*
X44113523Y-77747175D01*
X44113523Y-77747175D02*
X44075428Y-77785270D01*
X44075428Y-77785270D02*
X44037333Y-77861461D01*
X44037333Y-77861461D02*
X44037333Y-78051937D01*
X44037333Y-78051937D02*
X44075428Y-78128127D01*
X44075428Y-78128127D02*
X44113523Y-78166223D01*
X44113523Y-78166223D02*
X44189714Y-78204318D01*
X44189714Y-78204318D02*
X44380190Y-78204318D01*
X44380190Y-78204318D02*
X44456380Y-78166223D01*
X44456380Y-78166223D02*
X44494476Y-78128127D01*
X43542094Y-77404318D02*
X43465904Y-77404318D01*
X43465904Y-77404318D02*
X43389713Y-77442413D01*
X43389713Y-77442413D02*
X43351618Y-77480508D01*
X43351618Y-77480508D02*
X43313523Y-77556699D01*
X43313523Y-77556699D02*
X43275428Y-77709080D01*
X43275428Y-77709080D02*
X43275428Y-77899556D01*
X43275428Y-77899556D02*
X43313523Y-78051937D01*
X43313523Y-78051937D02*
X43351618Y-78128127D01*
X43351618Y-78128127D02*
X43389713Y-78166223D01*
X43389713Y-78166223D02*
X43465904Y-78204318D01*
X43465904Y-78204318D02*
X43542094Y-78204318D01*
X43542094Y-78204318D02*
X43618285Y-78166223D01*
X43618285Y-78166223D02*
X43656380Y-78128127D01*
X43656380Y-78128127D02*
X43694475Y-78051937D01*
X43694475Y-78051937D02*
X43732571Y-77899556D01*
X43732571Y-77899556D02*
X43732571Y-77709080D01*
X43732571Y-77709080D02*
X43694475Y-77556699D01*
X43694475Y-77556699D02*
X43656380Y-77480508D01*
X43656380Y-77480508D02*
X43618285Y-77442413D01*
X43618285Y-77442413D02*
X43542094Y-77404318D01*
X42932570Y-78204318D02*
X42932570Y-77670984D01*
X42932570Y-77747175D02*
X42894475Y-77709080D01*
X42894475Y-77709080D02*
X42818285Y-77670984D01*
X42818285Y-77670984D02*
X42703999Y-77670984D01*
X42703999Y-77670984D02*
X42627808Y-77709080D01*
X42627808Y-77709080D02*
X42589713Y-77785270D01*
X42589713Y-77785270D02*
X42589713Y-78204318D01*
X42589713Y-77785270D02*
X42551618Y-77709080D01*
X42551618Y-77709080D02*
X42475427Y-77670984D01*
X42475427Y-77670984D02*
X42361142Y-77670984D01*
X42361142Y-77670984D02*
X42284951Y-77709080D01*
X42284951Y-77709080D02*
X42246856Y-77785270D01*
X42246856Y-77785270D02*
X42246856Y-78204318D01*
X41865903Y-78204318D02*
X41865903Y-77670984D01*
X41865903Y-77747175D02*
X41827808Y-77709080D01*
X41827808Y-77709080D02*
X41751618Y-77670984D01*
X41751618Y-77670984D02*
X41637332Y-77670984D01*
X41637332Y-77670984D02*
X41561141Y-77709080D01*
X41561141Y-77709080D02*
X41523046Y-77785270D01*
X41523046Y-77785270D02*
X41523046Y-78204318D01*
X41523046Y-77785270D02*
X41484951Y-77709080D01*
X41484951Y-77709080D02*
X41408760Y-77670984D01*
X41408760Y-77670984D02*
X41294475Y-77670984D01*
X41294475Y-77670984D02*
X41218284Y-77709080D01*
X41218284Y-77709080D02*
X41180189Y-77785270D01*
X41180189Y-77785270D02*
X41180189Y-78204318D01*
X40265903Y-77404318D02*
X39770665Y-77404318D01*
X39770665Y-77404318D02*
X40037331Y-77709080D01*
X40037331Y-77709080D02*
X39923046Y-77709080D01*
X39923046Y-77709080D02*
X39846855Y-77747175D01*
X39846855Y-77747175D02*
X39808760Y-77785270D01*
X39808760Y-77785270D02*
X39770665Y-77861461D01*
X39770665Y-77861461D02*
X39770665Y-78051937D01*
X39770665Y-78051937D02*
X39808760Y-78128127D01*
X39808760Y-78128127D02*
X39846855Y-78166223D01*
X39846855Y-78166223D02*
X39923046Y-78204318D01*
X39923046Y-78204318D02*
X40151617Y-78204318D01*
X40151617Y-78204318D02*
X40227808Y-78166223D01*
X40227808Y-78166223D02*
X40265903Y-78128127D01*
X39427807Y-78204318D02*
X39427807Y-77404318D01*
X39427807Y-77404318D02*
X39123045Y-77404318D01*
X39123045Y-77404318D02*
X39046855Y-77442413D01*
X39046855Y-77442413D02*
X39008760Y-77480508D01*
X39008760Y-77480508D02*
X38970664Y-77556699D01*
X38970664Y-77556699D02*
X38970664Y-77670984D01*
X38970664Y-77670984D02*
X39008760Y-77747175D01*
X39008760Y-77747175D02*
X39046855Y-77785270D01*
X39046855Y-77785270D02*
X39123045Y-77823365D01*
X39123045Y-77823365D02*
X39427807Y-77823365D01*
X48284952Y-78958939D02*
X47980190Y-78958939D01*
X48170666Y-78692273D02*
X48170666Y-79377987D01*
X48170666Y-79377987D02*
X48132571Y-79454178D01*
X48132571Y-79454178D02*
X48056381Y-79492273D01*
X48056381Y-79492273D02*
X47980190Y-79492273D01*
X47599238Y-79492273D02*
X47675428Y-79454178D01*
X47675428Y-79454178D02*
X47713523Y-79416082D01*
X47713523Y-79416082D02*
X47751619Y-79339892D01*
X47751619Y-79339892D02*
X47751619Y-79111320D01*
X47751619Y-79111320D02*
X47713523Y-79035130D01*
X47713523Y-79035130D02*
X47675428Y-78997035D01*
X47675428Y-78997035D02*
X47599238Y-78958939D01*
X47599238Y-78958939D02*
X47484952Y-78958939D01*
X47484952Y-78958939D02*
X47408761Y-78997035D01*
X47408761Y-78997035D02*
X47370666Y-79035130D01*
X47370666Y-79035130D02*
X47332571Y-79111320D01*
X47332571Y-79111320D02*
X47332571Y-79339892D01*
X47332571Y-79339892D02*
X47370666Y-79416082D01*
X47370666Y-79416082D02*
X47408761Y-79454178D01*
X47408761Y-79454178D02*
X47484952Y-79492273D01*
X47484952Y-79492273D02*
X47599238Y-79492273D01*
X45923046Y-79416082D02*
X45961142Y-79454178D01*
X45961142Y-79454178D02*
X46075427Y-79492273D01*
X46075427Y-79492273D02*
X46151618Y-79492273D01*
X46151618Y-79492273D02*
X46265904Y-79454178D01*
X46265904Y-79454178D02*
X46342094Y-79377987D01*
X46342094Y-79377987D02*
X46380189Y-79301797D01*
X46380189Y-79301797D02*
X46418285Y-79149416D01*
X46418285Y-79149416D02*
X46418285Y-79035130D01*
X46418285Y-79035130D02*
X46380189Y-78882749D01*
X46380189Y-78882749D02*
X46342094Y-78806558D01*
X46342094Y-78806558D02*
X46265904Y-78730368D01*
X46265904Y-78730368D02*
X46151618Y-78692273D01*
X46151618Y-78692273D02*
X46075427Y-78692273D01*
X46075427Y-78692273D02*
X45961142Y-78730368D01*
X45961142Y-78730368D02*
X45923046Y-78768463D01*
X45580189Y-79492273D02*
X45580189Y-78692273D01*
X45580189Y-78692273D02*
X45123046Y-79492273D01*
X45123046Y-79492273D02*
X45123046Y-78692273D01*
X44932571Y-79568463D02*
X44323047Y-79568463D01*
X43675427Y-79492273D02*
X43942094Y-79111320D01*
X44132570Y-79492273D02*
X44132570Y-78692273D01*
X44132570Y-78692273D02*
X43827808Y-78692273D01*
X43827808Y-78692273D02*
X43751618Y-78730368D01*
X43751618Y-78730368D02*
X43713523Y-78768463D01*
X43713523Y-78768463D02*
X43675427Y-78844654D01*
X43675427Y-78844654D02*
X43675427Y-78958939D01*
X43675427Y-78958939D02*
X43713523Y-79035130D01*
X43713523Y-79035130D02*
X43751618Y-79073225D01*
X43751618Y-79073225D02*
X43827808Y-79111320D01*
X43827808Y-79111320D02*
X44132570Y-79111320D01*
X43332570Y-79073225D02*
X43065904Y-79073225D01*
X42951618Y-79492273D02*
X43332570Y-79492273D01*
X43332570Y-79492273D02*
X43332570Y-78692273D01*
X43332570Y-78692273D02*
X42951618Y-78692273D01*
X42608760Y-79492273D02*
X42608760Y-78692273D01*
X42608760Y-78692273D02*
X42342094Y-79263701D01*
X42342094Y-79263701D02*
X42075427Y-78692273D01*
X42075427Y-78692273D02*
X42075427Y-79492273D01*
X41542093Y-78692273D02*
X41389712Y-78692273D01*
X41389712Y-78692273D02*
X41313522Y-78730368D01*
X41313522Y-78730368D02*
X41237331Y-78806558D01*
X41237331Y-78806558D02*
X41199236Y-78958939D01*
X41199236Y-78958939D02*
X41199236Y-79225606D01*
X41199236Y-79225606D02*
X41237331Y-79377987D01*
X41237331Y-79377987D02*
X41313522Y-79454178D01*
X41313522Y-79454178D02*
X41389712Y-79492273D01*
X41389712Y-79492273D02*
X41542093Y-79492273D01*
X41542093Y-79492273D02*
X41618284Y-79454178D01*
X41618284Y-79454178D02*
X41694474Y-79377987D01*
X41694474Y-79377987D02*
X41732570Y-79225606D01*
X41732570Y-79225606D02*
X41732570Y-78958939D01*
X41732570Y-78958939D02*
X41694474Y-78806558D01*
X41694474Y-78806558D02*
X41618284Y-78730368D01*
X41618284Y-78730368D02*
X41542093Y-78692273D01*
X99185713Y-42062295D02*
X99471427Y-42062295D01*
X99471427Y-42062295D02*
X99471427Y-41262295D01*
X98985713Y-42062295D02*
X98985713Y-41262295D01*
X98699999Y-42062295D02*
X98699999Y-41262295D01*
X98699999Y-41262295D02*
X98357142Y-42062295D01*
X98357142Y-42062295D02*
X98357142Y-41262295D01*
X97871428Y-41643247D02*
X97785714Y-41681342D01*
X97785714Y-41681342D02*
X97757143Y-41719438D01*
X97757143Y-41719438D02*
X97728571Y-41795628D01*
X97728571Y-41795628D02*
X97728571Y-41909914D01*
X97728571Y-41909914D02*
X97757143Y-41986104D01*
X97757143Y-41986104D02*
X97785714Y-42024200D01*
X97785714Y-42024200D02*
X97842857Y-42062295D01*
X97842857Y-42062295D02*
X98071428Y-42062295D01*
X98071428Y-42062295D02*
X98071428Y-41262295D01*
X98071428Y-41262295D02*
X97871428Y-41262295D01*
X97871428Y-41262295D02*
X97814286Y-41300390D01*
X97814286Y-41300390D02*
X97785714Y-41338485D01*
X97785714Y-41338485D02*
X97757143Y-41414676D01*
X97757143Y-41414676D02*
X97757143Y-41490866D01*
X97757143Y-41490866D02*
X97785714Y-41567057D01*
X97785714Y-41567057D02*
X97814286Y-41605152D01*
X97814286Y-41605152D02*
X97871428Y-41643247D01*
X97871428Y-41643247D02*
X98071428Y-41643247D01*
X97471428Y-41262295D02*
X97471428Y-41909914D01*
X97471428Y-41909914D02*
X97442857Y-41986104D01*
X97442857Y-41986104D02*
X97414286Y-42024200D01*
X97414286Y-42024200D02*
X97357143Y-42062295D01*
X97357143Y-42062295D02*
X97242857Y-42062295D01*
X97242857Y-42062295D02*
X97185714Y-42024200D01*
X97185714Y-42024200D02*
X97157143Y-41986104D01*
X97157143Y-41986104D02*
X97128571Y-41909914D01*
X97128571Y-41909914D02*
X97128571Y-41262295D01*
X96871429Y-42024200D02*
X96785715Y-42062295D01*
X96785715Y-42062295D02*
X96642857Y-42062295D01*
X96642857Y-42062295D02*
X96585715Y-42024200D01*
X96585715Y-42024200D02*
X96557143Y-41986104D01*
X96557143Y-41986104D02*
X96528572Y-41909914D01*
X96528572Y-41909914D02*
X96528572Y-41833723D01*
X96528572Y-41833723D02*
X96557143Y-41757533D01*
X96557143Y-41757533D02*
X96585715Y-41719438D01*
X96585715Y-41719438D02*
X96642857Y-41681342D01*
X96642857Y-41681342D02*
X96757143Y-41643247D01*
X96757143Y-41643247D02*
X96814286Y-41605152D01*
X96814286Y-41605152D02*
X96842857Y-41567057D01*
X96842857Y-41567057D02*
X96871429Y-41490866D01*
X96871429Y-41490866D02*
X96871429Y-41414676D01*
X96871429Y-41414676D02*
X96842857Y-41338485D01*
X96842857Y-41338485D02*
X96814286Y-41300390D01*
X96814286Y-41300390D02*
X96757143Y-41262295D01*
X96757143Y-41262295D02*
X96614286Y-41262295D01*
X96614286Y-41262295D02*
X96528572Y-41300390D01*
X95471428Y-42062295D02*
X95671428Y-41681342D01*
X95814285Y-42062295D02*
X95814285Y-41262295D01*
X95814285Y-41262295D02*
X95585714Y-41262295D01*
X95585714Y-41262295D02*
X95528571Y-41300390D01*
X95528571Y-41300390D02*
X95500000Y-41338485D01*
X95500000Y-41338485D02*
X95471428Y-41414676D01*
X95471428Y-41414676D02*
X95471428Y-41528961D01*
X95471428Y-41528961D02*
X95500000Y-41605152D01*
X95500000Y-41605152D02*
X95528571Y-41643247D01*
X95528571Y-41643247D02*
X95585714Y-41681342D01*
X95585714Y-41681342D02*
X95814285Y-41681342D01*
X95271428Y-41262295D02*
X94871428Y-42062295D01*
X94871428Y-41262295D02*
X95271428Y-42062295D01*
X94642856Y-42062295D02*
X94642856Y-41262295D01*
X94642856Y-41262295D02*
X94499999Y-41262295D01*
X94499999Y-41262295D02*
X94414285Y-41300390D01*
X94414285Y-41300390D02*
X94357142Y-41376580D01*
X94357142Y-41376580D02*
X94328571Y-41452771D01*
X94328571Y-41452771D02*
X94299999Y-41605152D01*
X94299999Y-41605152D02*
X94299999Y-41719438D01*
X94299999Y-41719438D02*
X94328571Y-41871819D01*
X94328571Y-41871819D02*
X94357142Y-41948009D01*
X94357142Y-41948009D02*
X94414285Y-42024200D01*
X94414285Y-42024200D02*
X94499999Y-42062295D01*
X94499999Y-42062295D02*
X94642856Y-42062295D01*
X43687713Y-58020295D02*
X43973427Y-58020295D01*
X43973427Y-58020295D02*
X43973427Y-57220295D01*
X43487713Y-58020295D02*
X43487713Y-57220295D01*
X43201999Y-58020295D02*
X43201999Y-57220295D01*
X43201999Y-57220295D02*
X42859142Y-58020295D01*
X42859142Y-58020295D02*
X42859142Y-57220295D01*
X42373428Y-57601247D02*
X42287714Y-57639342D01*
X42287714Y-57639342D02*
X42259143Y-57677438D01*
X42259143Y-57677438D02*
X42230571Y-57753628D01*
X42230571Y-57753628D02*
X42230571Y-57867914D01*
X42230571Y-57867914D02*
X42259143Y-57944104D01*
X42259143Y-57944104D02*
X42287714Y-57982200D01*
X42287714Y-57982200D02*
X42344857Y-58020295D01*
X42344857Y-58020295D02*
X42573428Y-58020295D01*
X42573428Y-58020295D02*
X42573428Y-57220295D01*
X42573428Y-57220295D02*
X42373428Y-57220295D01*
X42373428Y-57220295D02*
X42316286Y-57258390D01*
X42316286Y-57258390D02*
X42287714Y-57296485D01*
X42287714Y-57296485D02*
X42259143Y-57372676D01*
X42259143Y-57372676D02*
X42259143Y-57448866D01*
X42259143Y-57448866D02*
X42287714Y-57525057D01*
X42287714Y-57525057D02*
X42316286Y-57563152D01*
X42316286Y-57563152D02*
X42373428Y-57601247D01*
X42373428Y-57601247D02*
X42573428Y-57601247D01*
X41973428Y-57220295D02*
X41973428Y-57867914D01*
X41973428Y-57867914D02*
X41944857Y-57944104D01*
X41944857Y-57944104D02*
X41916286Y-57982200D01*
X41916286Y-57982200D02*
X41859143Y-58020295D01*
X41859143Y-58020295D02*
X41744857Y-58020295D01*
X41744857Y-58020295D02*
X41687714Y-57982200D01*
X41687714Y-57982200D02*
X41659143Y-57944104D01*
X41659143Y-57944104D02*
X41630571Y-57867914D01*
X41630571Y-57867914D02*
X41630571Y-57220295D01*
X41373429Y-57982200D02*
X41287715Y-58020295D01*
X41287715Y-58020295D02*
X41144857Y-58020295D01*
X41144857Y-58020295D02*
X41087715Y-57982200D01*
X41087715Y-57982200D02*
X41059143Y-57944104D01*
X41059143Y-57944104D02*
X41030572Y-57867914D01*
X41030572Y-57867914D02*
X41030572Y-57791723D01*
X41030572Y-57791723D02*
X41059143Y-57715533D01*
X41059143Y-57715533D02*
X41087715Y-57677438D01*
X41087715Y-57677438D02*
X41144857Y-57639342D01*
X41144857Y-57639342D02*
X41259143Y-57601247D01*
X41259143Y-57601247D02*
X41316286Y-57563152D01*
X41316286Y-57563152D02*
X41344857Y-57525057D01*
X41344857Y-57525057D02*
X41373429Y-57448866D01*
X41373429Y-57448866D02*
X41373429Y-57372676D01*
X41373429Y-57372676D02*
X41344857Y-57296485D01*
X41344857Y-57296485D02*
X41316286Y-57258390D01*
X41316286Y-57258390D02*
X41259143Y-57220295D01*
X41259143Y-57220295D02*
X41116286Y-57220295D01*
X41116286Y-57220295D02*
X41030572Y-57258390D01*
X39973428Y-58020295D02*
X40173428Y-57639342D01*
X40316285Y-58020295D02*
X40316285Y-57220295D01*
X40316285Y-57220295D02*
X40087714Y-57220295D01*
X40087714Y-57220295D02*
X40030571Y-57258390D01*
X40030571Y-57258390D02*
X40002000Y-57296485D01*
X40002000Y-57296485D02*
X39973428Y-57372676D01*
X39973428Y-57372676D02*
X39973428Y-57486961D01*
X39973428Y-57486961D02*
X40002000Y-57563152D01*
X40002000Y-57563152D02*
X40030571Y-57601247D01*
X40030571Y-57601247D02*
X40087714Y-57639342D01*
X40087714Y-57639342D02*
X40316285Y-57639342D01*
X39773428Y-57220295D02*
X39373428Y-58020295D01*
X39373428Y-57220295D02*
X39773428Y-58020295D01*
X39144856Y-58020295D02*
X39144856Y-57220295D01*
X39144856Y-57220295D02*
X39001999Y-57220295D01*
X39001999Y-57220295D02*
X38916285Y-57258390D01*
X38916285Y-57258390D02*
X38859142Y-57334580D01*
X38859142Y-57334580D02*
X38830571Y-57410771D01*
X38830571Y-57410771D02*
X38801999Y-57563152D01*
X38801999Y-57563152D02*
X38801999Y-57677438D01*
X38801999Y-57677438D02*
X38830571Y-57829819D01*
X38830571Y-57829819D02*
X38859142Y-57906009D01*
X38859142Y-57906009D02*
X38916285Y-57982200D01*
X38916285Y-57982200D02*
X39001999Y-58020295D01*
X39001999Y-58020295D02*
X39144856Y-58020295D01*
X99114285Y-44562295D02*
X99399999Y-44562295D01*
X99399999Y-44562295D02*
X99399999Y-43762295D01*
X98914285Y-44562295D02*
X98914285Y-43762295D01*
X98628571Y-44562295D02*
X98628571Y-43762295D01*
X98628571Y-43762295D02*
X98285714Y-44562295D01*
X98285714Y-44562295D02*
X98285714Y-43762295D01*
X97800000Y-44143247D02*
X97714286Y-44181342D01*
X97714286Y-44181342D02*
X97685715Y-44219438D01*
X97685715Y-44219438D02*
X97657143Y-44295628D01*
X97657143Y-44295628D02*
X97657143Y-44409914D01*
X97657143Y-44409914D02*
X97685715Y-44486104D01*
X97685715Y-44486104D02*
X97714286Y-44524200D01*
X97714286Y-44524200D02*
X97771429Y-44562295D01*
X97771429Y-44562295D02*
X98000000Y-44562295D01*
X98000000Y-44562295D02*
X98000000Y-43762295D01*
X98000000Y-43762295D02*
X97800000Y-43762295D01*
X97800000Y-43762295D02*
X97742858Y-43800390D01*
X97742858Y-43800390D02*
X97714286Y-43838485D01*
X97714286Y-43838485D02*
X97685715Y-43914676D01*
X97685715Y-43914676D02*
X97685715Y-43990866D01*
X97685715Y-43990866D02*
X97714286Y-44067057D01*
X97714286Y-44067057D02*
X97742858Y-44105152D01*
X97742858Y-44105152D02*
X97800000Y-44143247D01*
X97800000Y-44143247D02*
X98000000Y-44143247D01*
X97400000Y-43762295D02*
X97400000Y-44409914D01*
X97400000Y-44409914D02*
X97371429Y-44486104D01*
X97371429Y-44486104D02*
X97342858Y-44524200D01*
X97342858Y-44524200D02*
X97285715Y-44562295D01*
X97285715Y-44562295D02*
X97171429Y-44562295D01*
X97171429Y-44562295D02*
X97114286Y-44524200D01*
X97114286Y-44524200D02*
X97085715Y-44486104D01*
X97085715Y-44486104D02*
X97057143Y-44409914D01*
X97057143Y-44409914D02*
X97057143Y-43762295D01*
X96800001Y-44524200D02*
X96714287Y-44562295D01*
X96714287Y-44562295D02*
X96571429Y-44562295D01*
X96571429Y-44562295D02*
X96514287Y-44524200D01*
X96514287Y-44524200D02*
X96485715Y-44486104D01*
X96485715Y-44486104D02*
X96457144Y-44409914D01*
X96457144Y-44409914D02*
X96457144Y-44333723D01*
X96457144Y-44333723D02*
X96485715Y-44257533D01*
X96485715Y-44257533D02*
X96514287Y-44219438D01*
X96514287Y-44219438D02*
X96571429Y-44181342D01*
X96571429Y-44181342D02*
X96685715Y-44143247D01*
X96685715Y-44143247D02*
X96742858Y-44105152D01*
X96742858Y-44105152D02*
X96771429Y-44067057D01*
X96771429Y-44067057D02*
X96800001Y-43990866D01*
X96800001Y-43990866D02*
X96800001Y-43914676D01*
X96800001Y-43914676D02*
X96771429Y-43838485D01*
X96771429Y-43838485D02*
X96742858Y-43800390D01*
X96742858Y-43800390D02*
X96685715Y-43762295D01*
X96685715Y-43762295D02*
X96542858Y-43762295D01*
X96542858Y-43762295D02*
X96457144Y-43800390D01*
X95828572Y-43762295D02*
X95485715Y-43762295D01*
X95657143Y-44562295D02*
X95657143Y-43762295D01*
X95342857Y-43762295D02*
X94942857Y-44562295D01*
X94942857Y-43762295D02*
X95342857Y-44562295D01*
X94714285Y-44562295D02*
X94714285Y-43762295D01*
X94714285Y-43762295D02*
X94571428Y-43762295D01*
X94571428Y-43762295D02*
X94485714Y-43800390D01*
X94485714Y-43800390D02*
X94428571Y-43876580D01*
X94428571Y-43876580D02*
X94400000Y-43952771D01*
X94400000Y-43952771D02*
X94371428Y-44105152D01*
X94371428Y-44105152D02*
X94371428Y-44219438D01*
X94371428Y-44219438D02*
X94400000Y-44371819D01*
X94400000Y-44371819D02*
X94428571Y-44448009D01*
X94428571Y-44448009D02*
X94485714Y-44524200D01*
X94485714Y-44524200D02*
X94571428Y-44562295D01*
X94571428Y-44562295D02*
X94714285Y-44562295D01*
X50426285Y-81607866D02*
X49664381Y-81607866D01*
X50045333Y-81988819D02*
X50045333Y-81226914D01*
X48664381Y-81988819D02*
X49235809Y-81988819D01*
X48950095Y-81988819D02*
X48950095Y-80988819D01*
X48950095Y-80988819D02*
X49045333Y-81131676D01*
X49045333Y-81131676D02*
X49140571Y-81226914D01*
X49140571Y-81226914D02*
X49235809Y-81274533D01*
X48283428Y-81084057D02*
X48235809Y-81036438D01*
X48235809Y-81036438D02*
X48140571Y-80988819D01*
X48140571Y-80988819D02*
X47902476Y-80988819D01*
X47902476Y-80988819D02*
X47807238Y-81036438D01*
X47807238Y-81036438D02*
X47759619Y-81084057D01*
X47759619Y-81084057D02*
X47712000Y-81179295D01*
X47712000Y-81179295D02*
X47712000Y-81274533D01*
X47712000Y-81274533D02*
X47759619Y-81417390D01*
X47759619Y-81417390D02*
X48331047Y-81988819D01*
X48331047Y-81988819D02*
X47712000Y-81988819D01*
X47426285Y-80988819D02*
X47092952Y-81988819D01*
X47092952Y-81988819D02*
X46759619Y-80988819D01*
X45188190Y-81988819D02*
X45664380Y-81988819D01*
X45664380Y-81988819D02*
X45664380Y-80988819D01*
X44854856Y-81988819D02*
X44854856Y-80988819D01*
X44378666Y-81988819D02*
X44378666Y-80988819D01*
X44378666Y-80988819D02*
X43807238Y-81988819D01*
X43807238Y-81988819D02*
X43807238Y-80988819D01*
X42045333Y-81036438D02*
X42140571Y-80988819D01*
X42140571Y-80988819D02*
X42283428Y-80988819D01*
X42283428Y-80988819D02*
X42426285Y-81036438D01*
X42426285Y-81036438D02*
X42521523Y-81131676D01*
X42521523Y-81131676D02*
X42569142Y-81226914D01*
X42569142Y-81226914D02*
X42616761Y-81417390D01*
X42616761Y-81417390D02*
X42616761Y-81560247D01*
X42616761Y-81560247D02*
X42569142Y-81750723D01*
X42569142Y-81750723D02*
X42521523Y-81845961D01*
X42521523Y-81845961D02*
X42426285Y-81941200D01*
X42426285Y-81941200D02*
X42283428Y-81988819D01*
X42283428Y-81988819D02*
X42188190Y-81988819D01*
X42188190Y-81988819D02*
X42045333Y-81941200D01*
X42045333Y-81941200D02*
X41997714Y-81893580D01*
X41997714Y-81893580D02*
X41997714Y-81560247D01*
X41997714Y-81560247D02*
X42188190Y-81560247D01*
X41569142Y-81988819D02*
X41569142Y-80988819D01*
X41569142Y-80988819D02*
X40997714Y-81988819D01*
X40997714Y-81988819D02*
X40997714Y-80988819D01*
X40521523Y-81988819D02*
X40521523Y-80988819D01*
X40521523Y-80988819D02*
X40283428Y-80988819D01*
X40283428Y-80988819D02*
X40140571Y-81036438D01*
X40140571Y-81036438D02*
X40045333Y-81131676D01*
X40045333Y-81131676D02*
X39997714Y-81226914D01*
X39997714Y-81226914D02*
X39950095Y-81417390D01*
X39950095Y-81417390D02*
X39950095Y-81560247D01*
X39950095Y-81560247D02*
X39997714Y-81750723D01*
X39997714Y-81750723D02*
X40045333Y-81845961D01*
X40045333Y-81845961D02*
X40140571Y-81941200D01*
X40140571Y-81941200D02*
X40283428Y-81988819D01*
X40283428Y-81988819D02*
X40521523Y-81988819D01*
X59235180Y-81310287D02*
X59235180Y-81786477D01*
X59235180Y-81786477D02*
X60235180Y-81786477D01*
X60187561Y-80453144D02*
X60235180Y-80548382D01*
X60235180Y-80548382D02*
X60235180Y-80691239D01*
X60235180Y-80691239D02*
X60187561Y-80834096D01*
X60187561Y-80834096D02*
X60092323Y-80929334D01*
X60092323Y-80929334D02*
X59997085Y-80976953D01*
X59997085Y-80976953D02*
X59806609Y-81024572D01*
X59806609Y-81024572D02*
X59663752Y-81024572D01*
X59663752Y-81024572D02*
X59473276Y-80976953D01*
X59473276Y-80976953D02*
X59378038Y-80929334D01*
X59378038Y-80929334D02*
X59282800Y-80834096D01*
X59282800Y-80834096D02*
X59235180Y-80691239D01*
X59235180Y-80691239D02*
X59235180Y-80596001D01*
X59235180Y-80596001D02*
X59282800Y-80453144D01*
X59282800Y-80453144D02*
X59330419Y-80405525D01*
X59330419Y-80405525D02*
X59663752Y-80405525D01*
X59663752Y-80405525D02*
X59663752Y-80596001D01*
X59235180Y-79215048D02*
X60235180Y-79215048D01*
X59758990Y-79215048D02*
X59758990Y-78643620D01*
X59235180Y-78643620D02*
X60235180Y-78643620D01*
X60235180Y-78310286D02*
X59235180Y-77976953D01*
X59235180Y-77976953D02*
X60235180Y-77643620D01*
X59520895Y-77357905D02*
X59520895Y-76881715D01*
X59235180Y-77453143D02*
X60235180Y-77119810D01*
X60235180Y-77119810D02*
X59235180Y-76786477D01*
X59330419Y-75881715D02*
X59282800Y-75929334D01*
X59282800Y-75929334D02*
X59235180Y-76072191D01*
X59235180Y-76072191D02*
X59235180Y-76167429D01*
X59235180Y-76167429D02*
X59282800Y-76310286D01*
X59282800Y-76310286D02*
X59378038Y-76405524D01*
X59378038Y-76405524D02*
X59473276Y-76453143D01*
X59473276Y-76453143D02*
X59663752Y-76500762D01*
X59663752Y-76500762D02*
X59806609Y-76500762D01*
X59806609Y-76500762D02*
X59997085Y-76453143D01*
X59997085Y-76453143D02*
X60092323Y-76405524D01*
X60092323Y-76405524D02*
X60187561Y-76310286D01*
X60187561Y-76310286D02*
X60235180Y-76167429D01*
X60235180Y-76167429D02*
X60235180Y-76072191D01*
X60235180Y-76072191D02*
X60187561Y-75929334D01*
X60187561Y-75929334D02*
X60139942Y-75881715D01*
X59758990Y-74691238D02*
X59758990Y-74357905D01*
X59235180Y-74215048D02*
X59235180Y-74691238D01*
X59235180Y-74691238D02*
X60235180Y-74691238D01*
X60235180Y-74691238D02*
X60235180Y-74215048D01*
X59282800Y-73834095D02*
X59235180Y-73691238D01*
X59235180Y-73691238D02*
X59235180Y-73453143D01*
X59235180Y-73453143D02*
X59282800Y-73357905D01*
X59282800Y-73357905D02*
X59330419Y-73310286D01*
X59330419Y-73310286D02*
X59425657Y-73262667D01*
X59425657Y-73262667D02*
X59520895Y-73262667D01*
X59520895Y-73262667D02*
X59616133Y-73310286D01*
X59616133Y-73310286D02*
X59663752Y-73357905D01*
X59663752Y-73357905D02*
X59711371Y-73453143D01*
X59711371Y-73453143D02*
X59758990Y-73643619D01*
X59758990Y-73643619D02*
X59806609Y-73738857D01*
X59806609Y-73738857D02*
X59854228Y-73786476D01*
X59854228Y-73786476D02*
X59949466Y-73834095D01*
X59949466Y-73834095D02*
X60044704Y-73834095D01*
X60044704Y-73834095D02*
X60139942Y-73786476D01*
X60139942Y-73786476D02*
X60187561Y-73738857D01*
X60187561Y-73738857D02*
X60235180Y-73643619D01*
X60235180Y-73643619D02*
X60235180Y-73405524D01*
X60235180Y-73405524D02*
X60187561Y-73262667D01*
X59235180Y-72834095D02*
X60235180Y-72834095D01*
X60235180Y-72834095D02*
X60235180Y-72453143D01*
X60235180Y-72453143D02*
X60187561Y-72357905D01*
X60187561Y-72357905D02*
X60139942Y-72310286D01*
X60139942Y-72310286D02*
X60044704Y-72262667D01*
X60044704Y-72262667D02*
X59901847Y-72262667D01*
X59901847Y-72262667D02*
X59806609Y-72310286D01*
X59806609Y-72310286D02*
X59758990Y-72357905D01*
X59758990Y-72357905D02*
X59711371Y-72453143D01*
X59711371Y-72453143D02*
X59711371Y-72834095D01*
X60235180Y-71929333D02*
X60235180Y-71310286D01*
X60235180Y-71310286D02*
X59854228Y-71643619D01*
X59854228Y-71643619D02*
X59854228Y-71500762D01*
X59854228Y-71500762D02*
X59806609Y-71405524D01*
X59806609Y-71405524D02*
X59758990Y-71357905D01*
X59758990Y-71357905D02*
X59663752Y-71310286D01*
X59663752Y-71310286D02*
X59425657Y-71310286D01*
X59425657Y-71310286D02*
X59330419Y-71357905D01*
X59330419Y-71357905D02*
X59282800Y-71405524D01*
X59282800Y-71405524D02*
X59235180Y-71500762D01*
X59235180Y-71500762D02*
X59235180Y-71786476D01*
X59235180Y-71786476D02*
X59282800Y-71881714D01*
X59282800Y-71881714D02*
X59330419Y-71929333D01*
X60139942Y-70929333D02*
X60187561Y-70881714D01*
X60187561Y-70881714D02*
X60235180Y-70786476D01*
X60235180Y-70786476D02*
X60235180Y-70548381D01*
X60235180Y-70548381D02*
X60187561Y-70453143D01*
X60187561Y-70453143D02*
X60139942Y-70405524D01*
X60139942Y-70405524D02*
X60044704Y-70357905D01*
X60044704Y-70357905D02*
X59949466Y-70357905D01*
X59949466Y-70357905D02*
X59806609Y-70405524D01*
X59806609Y-70405524D02*
X59235180Y-70976952D01*
X59235180Y-70976952D02*
X59235180Y-70357905D01*
X59330419Y-68596000D02*
X59282800Y-68643619D01*
X59282800Y-68643619D02*
X59235180Y-68786476D01*
X59235180Y-68786476D02*
X59235180Y-68881714D01*
X59235180Y-68881714D02*
X59282800Y-69024571D01*
X59282800Y-69024571D02*
X59378038Y-69119809D01*
X59378038Y-69119809D02*
X59473276Y-69167428D01*
X59473276Y-69167428D02*
X59663752Y-69215047D01*
X59663752Y-69215047D02*
X59806609Y-69215047D01*
X59806609Y-69215047D02*
X59997085Y-69167428D01*
X59997085Y-69167428D02*
X60092323Y-69119809D01*
X60092323Y-69119809D02*
X60187561Y-69024571D01*
X60187561Y-69024571D02*
X60235180Y-68881714D01*
X60235180Y-68881714D02*
X60235180Y-68786476D01*
X60235180Y-68786476D02*
X60187561Y-68643619D01*
X60187561Y-68643619D02*
X60139942Y-68596000D01*
X59235180Y-68024571D02*
X59282800Y-68119809D01*
X59282800Y-68119809D02*
X59330419Y-68167428D01*
X59330419Y-68167428D02*
X59425657Y-68215047D01*
X59425657Y-68215047D02*
X59711371Y-68215047D01*
X59711371Y-68215047D02*
X59806609Y-68167428D01*
X59806609Y-68167428D02*
X59854228Y-68119809D01*
X59854228Y-68119809D02*
X59901847Y-68024571D01*
X59901847Y-68024571D02*
X59901847Y-67881714D01*
X59901847Y-67881714D02*
X59854228Y-67786476D01*
X59854228Y-67786476D02*
X59806609Y-67738857D01*
X59806609Y-67738857D02*
X59711371Y-67691238D01*
X59711371Y-67691238D02*
X59425657Y-67691238D01*
X59425657Y-67691238D02*
X59330419Y-67738857D01*
X59330419Y-67738857D02*
X59282800Y-67786476D01*
X59282800Y-67786476D02*
X59235180Y-67881714D01*
X59235180Y-67881714D02*
X59235180Y-68024571D01*
X59901847Y-67262666D02*
X59235180Y-67262666D01*
X59806609Y-67262666D02*
X59854228Y-67215047D01*
X59854228Y-67215047D02*
X59901847Y-67119809D01*
X59901847Y-67119809D02*
X59901847Y-66976952D01*
X59901847Y-66976952D02*
X59854228Y-66881714D01*
X59854228Y-66881714D02*
X59758990Y-66834095D01*
X59758990Y-66834095D02*
X59235180Y-66834095D01*
X59901847Y-66500761D02*
X59901847Y-66119809D01*
X60235180Y-66357904D02*
X59378038Y-66357904D01*
X59378038Y-66357904D02*
X59282800Y-66310285D01*
X59282800Y-66310285D02*
X59235180Y-66215047D01*
X59235180Y-66215047D02*
X59235180Y-66119809D01*
X59235180Y-65786475D02*
X59901847Y-65786475D01*
X59711371Y-65786475D02*
X59806609Y-65738856D01*
X59806609Y-65738856D02*
X59854228Y-65691237D01*
X59854228Y-65691237D02*
X59901847Y-65595999D01*
X59901847Y-65595999D02*
X59901847Y-65500761D01*
X59235180Y-65024570D02*
X59282800Y-65119808D01*
X59282800Y-65119808D02*
X59330419Y-65167427D01*
X59330419Y-65167427D02*
X59425657Y-65215046D01*
X59425657Y-65215046D02*
X59711371Y-65215046D01*
X59711371Y-65215046D02*
X59806609Y-65167427D01*
X59806609Y-65167427D02*
X59854228Y-65119808D01*
X59854228Y-65119808D02*
X59901847Y-65024570D01*
X59901847Y-65024570D02*
X59901847Y-64881713D01*
X59901847Y-64881713D02*
X59854228Y-64786475D01*
X59854228Y-64786475D02*
X59806609Y-64738856D01*
X59806609Y-64738856D02*
X59711371Y-64691237D01*
X59711371Y-64691237D02*
X59425657Y-64691237D01*
X59425657Y-64691237D02*
X59330419Y-64738856D01*
X59330419Y-64738856D02*
X59282800Y-64786475D01*
X59282800Y-64786475D02*
X59235180Y-64881713D01*
X59235180Y-64881713D02*
X59235180Y-65024570D01*
X59235180Y-64119808D02*
X59282800Y-64215046D01*
X59282800Y-64215046D02*
X59378038Y-64262665D01*
X59378038Y-64262665D02*
X60235180Y-64262665D01*
X59235180Y-63595998D02*
X59282800Y-63691236D01*
X59282800Y-63691236D02*
X59378038Y-63738855D01*
X59378038Y-63738855D02*
X60235180Y-63738855D01*
X59282800Y-62834093D02*
X59235180Y-62929331D01*
X59235180Y-62929331D02*
X59235180Y-63119807D01*
X59235180Y-63119807D02*
X59282800Y-63215045D01*
X59282800Y-63215045D02*
X59378038Y-63262664D01*
X59378038Y-63262664D02*
X59758990Y-63262664D01*
X59758990Y-63262664D02*
X59854228Y-63215045D01*
X59854228Y-63215045D02*
X59901847Y-63119807D01*
X59901847Y-63119807D02*
X59901847Y-62929331D01*
X59901847Y-62929331D02*
X59854228Y-62834093D01*
X59854228Y-62834093D02*
X59758990Y-62786474D01*
X59758990Y-62786474D02*
X59663752Y-62786474D01*
X59663752Y-62786474D02*
X59568514Y-63262664D01*
X59235180Y-62357902D02*
X59901847Y-62357902D01*
X59711371Y-62357902D02*
X59806609Y-62310283D01*
X59806609Y-62310283D02*
X59854228Y-62262664D01*
X59854228Y-62262664D02*
X59901847Y-62167426D01*
X59901847Y-62167426D02*
X59901847Y-62072188D01*
X59235180Y-60405521D02*
X59711371Y-60738854D01*
X59235180Y-60976949D02*
X60235180Y-60976949D01*
X60235180Y-60976949D02*
X60235180Y-60595997D01*
X60235180Y-60595997D02*
X60187561Y-60500759D01*
X60187561Y-60500759D02*
X60139942Y-60453140D01*
X60139942Y-60453140D02*
X60044704Y-60405521D01*
X60044704Y-60405521D02*
X59901847Y-60405521D01*
X59901847Y-60405521D02*
X59806609Y-60453140D01*
X59806609Y-60453140D02*
X59758990Y-60500759D01*
X59758990Y-60500759D02*
X59711371Y-60595997D01*
X59711371Y-60595997D02*
X59711371Y-60976949D01*
X59282800Y-59595997D02*
X59235180Y-59691235D01*
X59235180Y-59691235D02*
X59235180Y-59881711D01*
X59235180Y-59881711D02*
X59282800Y-59976949D01*
X59282800Y-59976949D02*
X59378038Y-60024568D01*
X59378038Y-60024568D02*
X59758990Y-60024568D01*
X59758990Y-60024568D02*
X59854228Y-59976949D01*
X59854228Y-59976949D02*
X59901847Y-59881711D01*
X59901847Y-59881711D02*
X59901847Y-59691235D01*
X59901847Y-59691235D02*
X59854228Y-59595997D01*
X59854228Y-59595997D02*
X59758990Y-59548378D01*
X59758990Y-59548378D02*
X59663752Y-59548378D01*
X59663752Y-59548378D02*
X59568514Y-60024568D01*
X59901847Y-59215044D02*
X59235180Y-58976949D01*
X59235180Y-58976949D02*
X59901847Y-58738854D01*
X59330419Y-58357901D02*
X59282800Y-58310282D01*
X59282800Y-58310282D02*
X59235180Y-58357901D01*
X59235180Y-58357901D02*
X59282800Y-58405520D01*
X59282800Y-58405520D02*
X59330419Y-58357901D01*
X59330419Y-58357901D02*
X59235180Y-58357901D01*
X59235180Y-57357902D02*
X59235180Y-57929330D01*
X59235180Y-57643616D02*
X60235180Y-57643616D01*
X60235180Y-57643616D02*
X60092323Y-57738854D01*
X60092323Y-57738854D02*
X59997085Y-57834092D01*
X59997085Y-57834092D02*
X59949466Y-57929330D01*
X54791904Y-42841104D02*
X54315714Y-42841104D01*
X54887142Y-43126819D02*
X54553809Y-42126819D01*
X54553809Y-42126819D02*
X54220476Y-43126819D01*
X53887142Y-43126819D02*
X53887142Y-42126819D01*
X53887142Y-42126819D02*
X53315714Y-43126819D01*
X53315714Y-43126819D02*
X53315714Y-42126819D01*
X52982380Y-42126819D02*
X52410952Y-42126819D01*
X52696666Y-43126819D02*
X52696666Y-42126819D01*
X52077618Y-42603009D02*
X51744285Y-42603009D01*
X51601428Y-43126819D02*
X52077618Y-43126819D01*
X52077618Y-43126819D02*
X52077618Y-42126819D01*
X52077618Y-42126819D02*
X51601428Y-42126819D01*
X51172856Y-43126819D02*
X51172856Y-42126819D01*
X51172856Y-42126819D02*
X50601428Y-43126819D01*
X50601428Y-43126819D02*
X50601428Y-42126819D01*
X50125237Y-43126819D02*
X50125237Y-42126819D01*
X50125237Y-42126819D02*
X49553809Y-43126819D01*
X49553809Y-43126819D02*
X49553809Y-42126819D01*
X49125237Y-42841104D02*
X48649047Y-42841104D01*
X49220475Y-43126819D02*
X48887142Y-42126819D01*
X48887142Y-42126819D02*
X48553809Y-43126819D01*
X47506189Y-42841104D02*
X47029999Y-42841104D01*
X47601427Y-43126819D02*
X47268094Y-42126819D01*
X47268094Y-42126819D02*
X46934761Y-43126819D01*
X46029999Y-43126819D02*
X46363332Y-42650628D01*
X46601427Y-43126819D02*
X46601427Y-42126819D01*
X46601427Y-42126819D02*
X46220475Y-42126819D01*
X46220475Y-42126819D02*
X46125237Y-42174438D01*
X46125237Y-42174438D02*
X46077618Y-42222057D01*
X46077618Y-42222057D02*
X46029999Y-42317295D01*
X46029999Y-42317295D02*
X46029999Y-42460152D01*
X46029999Y-42460152D02*
X46077618Y-42555390D01*
X46077618Y-42555390D02*
X46125237Y-42603009D01*
X46125237Y-42603009D02*
X46220475Y-42650628D01*
X46220475Y-42650628D02*
X46601427Y-42650628D01*
X45601427Y-42603009D02*
X45268094Y-42603009D01*
X45125237Y-43126819D02*
X45601427Y-43126819D01*
X45601427Y-43126819D02*
X45601427Y-42126819D01*
X45601427Y-42126819D02*
X45125237Y-42126819D01*
X44744284Y-42841104D02*
X44268094Y-42841104D01*
X44839522Y-43126819D02*
X44506189Y-42126819D01*
X44506189Y-42126819D02*
X44172856Y-43126819D01*
X109945180Y-59747621D02*
X109945180Y-60223811D01*
X109945180Y-60223811D02*
X110945180Y-60223811D01*
X110897561Y-58890478D02*
X110945180Y-58985716D01*
X110945180Y-58985716D02*
X110945180Y-59128573D01*
X110945180Y-59128573D02*
X110897561Y-59271430D01*
X110897561Y-59271430D02*
X110802323Y-59366668D01*
X110802323Y-59366668D02*
X110707085Y-59414287D01*
X110707085Y-59414287D02*
X110516609Y-59461906D01*
X110516609Y-59461906D02*
X110373752Y-59461906D01*
X110373752Y-59461906D02*
X110183276Y-59414287D01*
X110183276Y-59414287D02*
X110088038Y-59366668D01*
X110088038Y-59366668D02*
X109992800Y-59271430D01*
X109992800Y-59271430D02*
X109945180Y-59128573D01*
X109945180Y-59128573D02*
X109945180Y-59033335D01*
X109945180Y-59033335D02*
X109992800Y-58890478D01*
X109992800Y-58890478D02*
X110040419Y-58842859D01*
X110040419Y-58842859D02*
X110373752Y-58842859D01*
X110373752Y-58842859D02*
X110373752Y-59033335D01*
X109945180Y-57652382D02*
X110945180Y-57652382D01*
X110468990Y-57652382D02*
X110468990Y-57080954D01*
X109945180Y-57080954D02*
X110945180Y-57080954D01*
X110945180Y-56747620D02*
X109945180Y-56414287D01*
X109945180Y-56414287D02*
X110945180Y-56080954D01*
X110230895Y-55795239D02*
X110230895Y-55319049D01*
X109945180Y-55890477D02*
X110945180Y-55557144D01*
X110945180Y-55557144D02*
X109945180Y-55223811D01*
X110040419Y-54319049D02*
X109992800Y-54366668D01*
X109992800Y-54366668D02*
X109945180Y-54509525D01*
X109945180Y-54509525D02*
X109945180Y-54604763D01*
X109945180Y-54604763D02*
X109992800Y-54747620D01*
X109992800Y-54747620D02*
X110088038Y-54842858D01*
X110088038Y-54842858D02*
X110183276Y-54890477D01*
X110183276Y-54890477D02*
X110373752Y-54938096D01*
X110373752Y-54938096D02*
X110516609Y-54938096D01*
X110516609Y-54938096D02*
X110707085Y-54890477D01*
X110707085Y-54890477D02*
X110802323Y-54842858D01*
X110802323Y-54842858D02*
X110897561Y-54747620D01*
X110897561Y-54747620D02*
X110945180Y-54604763D01*
X110945180Y-54604763D02*
X110945180Y-54509525D01*
X110945180Y-54509525D02*
X110897561Y-54366668D01*
X110897561Y-54366668D02*
X110849942Y-54319049D01*
X110468990Y-53128572D02*
X110468990Y-52795239D01*
X109945180Y-52652382D02*
X109945180Y-53128572D01*
X109945180Y-53128572D02*
X110945180Y-53128572D01*
X110945180Y-53128572D02*
X110945180Y-52652382D01*
X109992800Y-52271429D02*
X109945180Y-52128572D01*
X109945180Y-52128572D02*
X109945180Y-51890477D01*
X109945180Y-51890477D02*
X109992800Y-51795239D01*
X109992800Y-51795239D02*
X110040419Y-51747620D01*
X110040419Y-51747620D02*
X110135657Y-51700001D01*
X110135657Y-51700001D02*
X110230895Y-51700001D01*
X110230895Y-51700001D02*
X110326133Y-51747620D01*
X110326133Y-51747620D02*
X110373752Y-51795239D01*
X110373752Y-51795239D02*
X110421371Y-51890477D01*
X110421371Y-51890477D02*
X110468990Y-52080953D01*
X110468990Y-52080953D02*
X110516609Y-52176191D01*
X110516609Y-52176191D02*
X110564228Y-52223810D01*
X110564228Y-52223810D02*
X110659466Y-52271429D01*
X110659466Y-52271429D02*
X110754704Y-52271429D01*
X110754704Y-52271429D02*
X110849942Y-52223810D01*
X110849942Y-52223810D02*
X110897561Y-52176191D01*
X110897561Y-52176191D02*
X110945180Y-52080953D01*
X110945180Y-52080953D02*
X110945180Y-51842858D01*
X110945180Y-51842858D02*
X110897561Y-51700001D01*
X109945180Y-51271429D02*
X110945180Y-51271429D01*
X110945180Y-51271429D02*
X110945180Y-50890477D01*
X110945180Y-50890477D02*
X110897561Y-50795239D01*
X110897561Y-50795239D02*
X110849942Y-50747620D01*
X110849942Y-50747620D02*
X110754704Y-50700001D01*
X110754704Y-50700001D02*
X110611847Y-50700001D01*
X110611847Y-50700001D02*
X110516609Y-50747620D01*
X110516609Y-50747620D02*
X110468990Y-50795239D01*
X110468990Y-50795239D02*
X110421371Y-50890477D01*
X110421371Y-50890477D02*
X110421371Y-51271429D01*
X110945180Y-50366667D02*
X110945180Y-49747620D01*
X110945180Y-49747620D02*
X110564228Y-50080953D01*
X110564228Y-50080953D02*
X110564228Y-49938096D01*
X110564228Y-49938096D02*
X110516609Y-49842858D01*
X110516609Y-49842858D02*
X110468990Y-49795239D01*
X110468990Y-49795239D02*
X110373752Y-49747620D01*
X110373752Y-49747620D02*
X110135657Y-49747620D01*
X110135657Y-49747620D02*
X110040419Y-49795239D01*
X110040419Y-49795239D02*
X109992800Y-49842858D01*
X109992800Y-49842858D02*
X109945180Y-49938096D01*
X109945180Y-49938096D02*
X109945180Y-50223810D01*
X109945180Y-50223810D02*
X109992800Y-50319048D01*
X109992800Y-50319048D02*
X110040419Y-50366667D01*
X110849942Y-49366667D02*
X110897561Y-49319048D01*
X110897561Y-49319048D02*
X110945180Y-49223810D01*
X110945180Y-49223810D02*
X110945180Y-48985715D01*
X110945180Y-48985715D02*
X110897561Y-48890477D01*
X110897561Y-48890477D02*
X110849942Y-48842858D01*
X110849942Y-48842858D02*
X110754704Y-48795239D01*
X110754704Y-48795239D02*
X110659466Y-48795239D01*
X110659466Y-48795239D02*
X110516609Y-48842858D01*
X110516609Y-48842858D02*
X109945180Y-49414286D01*
X109945180Y-49414286D02*
X109945180Y-48795239D01*
X110040419Y-47033334D02*
X109992800Y-47080953D01*
X109992800Y-47080953D02*
X109945180Y-47223810D01*
X109945180Y-47223810D02*
X109945180Y-47319048D01*
X109945180Y-47319048D02*
X109992800Y-47461905D01*
X109992800Y-47461905D02*
X110088038Y-47557143D01*
X110088038Y-47557143D02*
X110183276Y-47604762D01*
X110183276Y-47604762D02*
X110373752Y-47652381D01*
X110373752Y-47652381D02*
X110516609Y-47652381D01*
X110516609Y-47652381D02*
X110707085Y-47604762D01*
X110707085Y-47604762D02*
X110802323Y-47557143D01*
X110802323Y-47557143D02*
X110897561Y-47461905D01*
X110897561Y-47461905D02*
X110945180Y-47319048D01*
X110945180Y-47319048D02*
X110945180Y-47223810D01*
X110945180Y-47223810D02*
X110897561Y-47080953D01*
X110897561Y-47080953D02*
X110849942Y-47033334D01*
X109945180Y-46461905D02*
X109992800Y-46557143D01*
X109992800Y-46557143D02*
X110040419Y-46604762D01*
X110040419Y-46604762D02*
X110135657Y-46652381D01*
X110135657Y-46652381D02*
X110421371Y-46652381D01*
X110421371Y-46652381D02*
X110516609Y-46604762D01*
X110516609Y-46604762D02*
X110564228Y-46557143D01*
X110564228Y-46557143D02*
X110611847Y-46461905D01*
X110611847Y-46461905D02*
X110611847Y-46319048D01*
X110611847Y-46319048D02*
X110564228Y-46223810D01*
X110564228Y-46223810D02*
X110516609Y-46176191D01*
X110516609Y-46176191D02*
X110421371Y-46128572D01*
X110421371Y-46128572D02*
X110135657Y-46128572D01*
X110135657Y-46128572D02*
X110040419Y-46176191D01*
X110040419Y-46176191D02*
X109992800Y-46223810D01*
X109992800Y-46223810D02*
X109945180Y-46319048D01*
X109945180Y-46319048D02*
X109945180Y-46461905D01*
X110611847Y-45700000D02*
X109945180Y-45700000D01*
X110516609Y-45700000D02*
X110564228Y-45652381D01*
X110564228Y-45652381D02*
X110611847Y-45557143D01*
X110611847Y-45557143D02*
X110611847Y-45414286D01*
X110611847Y-45414286D02*
X110564228Y-45319048D01*
X110564228Y-45319048D02*
X110468990Y-45271429D01*
X110468990Y-45271429D02*
X109945180Y-45271429D01*
X110611847Y-44938095D02*
X110611847Y-44557143D01*
X110945180Y-44795238D02*
X110088038Y-44795238D01*
X110088038Y-44795238D02*
X109992800Y-44747619D01*
X109992800Y-44747619D02*
X109945180Y-44652381D01*
X109945180Y-44652381D02*
X109945180Y-44557143D01*
X109945180Y-44223809D02*
X110611847Y-44223809D01*
X110421371Y-44223809D02*
X110516609Y-44176190D01*
X110516609Y-44176190D02*
X110564228Y-44128571D01*
X110564228Y-44128571D02*
X110611847Y-44033333D01*
X110611847Y-44033333D02*
X110611847Y-43938095D01*
X109945180Y-43461904D02*
X109992800Y-43557142D01*
X109992800Y-43557142D02*
X110040419Y-43604761D01*
X110040419Y-43604761D02*
X110135657Y-43652380D01*
X110135657Y-43652380D02*
X110421371Y-43652380D01*
X110421371Y-43652380D02*
X110516609Y-43604761D01*
X110516609Y-43604761D02*
X110564228Y-43557142D01*
X110564228Y-43557142D02*
X110611847Y-43461904D01*
X110611847Y-43461904D02*
X110611847Y-43319047D01*
X110611847Y-43319047D02*
X110564228Y-43223809D01*
X110564228Y-43223809D02*
X110516609Y-43176190D01*
X110516609Y-43176190D02*
X110421371Y-43128571D01*
X110421371Y-43128571D02*
X110135657Y-43128571D01*
X110135657Y-43128571D02*
X110040419Y-43176190D01*
X110040419Y-43176190D02*
X109992800Y-43223809D01*
X109992800Y-43223809D02*
X109945180Y-43319047D01*
X109945180Y-43319047D02*
X109945180Y-43461904D01*
X109945180Y-42557142D02*
X109992800Y-42652380D01*
X109992800Y-42652380D02*
X110088038Y-42699999D01*
X110088038Y-42699999D02*
X110945180Y-42699999D01*
X109945180Y-42033332D02*
X109992800Y-42128570D01*
X109992800Y-42128570D02*
X110088038Y-42176189D01*
X110088038Y-42176189D02*
X110945180Y-42176189D01*
X109992800Y-41271427D02*
X109945180Y-41366665D01*
X109945180Y-41366665D02*
X109945180Y-41557141D01*
X109945180Y-41557141D02*
X109992800Y-41652379D01*
X109992800Y-41652379D02*
X110088038Y-41699998D01*
X110088038Y-41699998D02*
X110468990Y-41699998D01*
X110468990Y-41699998D02*
X110564228Y-41652379D01*
X110564228Y-41652379D02*
X110611847Y-41557141D01*
X110611847Y-41557141D02*
X110611847Y-41366665D01*
X110611847Y-41366665D02*
X110564228Y-41271427D01*
X110564228Y-41271427D02*
X110468990Y-41223808D01*
X110468990Y-41223808D02*
X110373752Y-41223808D01*
X110373752Y-41223808D02*
X110278514Y-41699998D01*
X109945180Y-40795236D02*
X110611847Y-40795236D01*
X110421371Y-40795236D02*
X110516609Y-40747617D01*
X110516609Y-40747617D02*
X110564228Y-40699998D01*
X110564228Y-40699998D02*
X110611847Y-40604760D01*
X110611847Y-40604760D02*
X110611847Y-40509522D01*
X109945180Y-38842855D02*
X110421371Y-39176188D01*
X109945180Y-39414283D02*
X110945180Y-39414283D01*
X110945180Y-39414283D02*
X110945180Y-39033331D01*
X110945180Y-39033331D02*
X110897561Y-38938093D01*
X110897561Y-38938093D02*
X110849942Y-38890474D01*
X110849942Y-38890474D02*
X110754704Y-38842855D01*
X110754704Y-38842855D02*
X110611847Y-38842855D01*
X110611847Y-38842855D02*
X110516609Y-38890474D01*
X110516609Y-38890474D02*
X110468990Y-38938093D01*
X110468990Y-38938093D02*
X110421371Y-39033331D01*
X110421371Y-39033331D02*
X110421371Y-39414283D01*
X109992800Y-38033331D02*
X109945180Y-38128569D01*
X109945180Y-38128569D02*
X109945180Y-38319045D01*
X109945180Y-38319045D02*
X109992800Y-38414283D01*
X109992800Y-38414283D02*
X110088038Y-38461902D01*
X110088038Y-38461902D02*
X110468990Y-38461902D01*
X110468990Y-38461902D02*
X110564228Y-38414283D01*
X110564228Y-38414283D02*
X110611847Y-38319045D01*
X110611847Y-38319045D02*
X110611847Y-38128569D01*
X110611847Y-38128569D02*
X110564228Y-38033331D01*
X110564228Y-38033331D02*
X110468990Y-37985712D01*
X110468990Y-37985712D02*
X110373752Y-37985712D01*
X110373752Y-37985712D02*
X110278514Y-38461902D01*
X110611847Y-37652378D02*
X109945180Y-37414283D01*
X109945180Y-37414283D02*
X110611847Y-37176188D01*
X110040419Y-36795235D02*
X109992800Y-36747616D01*
X109992800Y-36747616D02*
X109945180Y-36795235D01*
X109945180Y-36795235D02*
X109992800Y-36842854D01*
X109992800Y-36842854D02*
X110040419Y-36795235D01*
X110040419Y-36795235D02*
X109945180Y-36795235D01*
X110849942Y-36366664D02*
X110897561Y-36319045D01*
X110897561Y-36319045D02*
X110945180Y-36223807D01*
X110945180Y-36223807D02*
X110945180Y-35985712D01*
X110945180Y-35985712D02*
X110897561Y-35890474D01*
X110897561Y-35890474D02*
X110849942Y-35842855D01*
X110849942Y-35842855D02*
X110754704Y-35795236D01*
X110754704Y-35795236D02*
X110659466Y-35795236D01*
X110659466Y-35795236D02*
X110516609Y-35842855D01*
X110516609Y-35842855D02*
X109945180Y-36414283D01*
X109945180Y-36414283D02*
X109945180Y-35795236D01*
X110945180Y-35176188D02*
X110945180Y-35080950D01*
X110945180Y-35080950D02*
X110897561Y-34985712D01*
X110897561Y-34985712D02*
X110849942Y-34938093D01*
X110849942Y-34938093D02*
X110754704Y-34890474D01*
X110754704Y-34890474D02*
X110564228Y-34842855D01*
X110564228Y-34842855D02*
X110326133Y-34842855D01*
X110326133Y-34842855D02*
X110135657Y-34890474D01*
X110135657Y-34890474D02*
X110040419Y-34938093D01*
X110040419Y-34938093D02*
X109992800Y-34985712D01*
X109992800Y-34985712D02*
X109945180Y-35080950D01*
X109945180Y-35080950D02*
X109945180Y-35176188D01*
X109945180Y-35176188D02*
X109992800Y-35271426D01*
X109992800Y-35271426D02*
X110040419Y-35319045D01*
X110040419Y-35319045D02*
X110135657Y-35366664D01*
X110135657Y-35366664D02*
X110326133Y-35414283D01*
X110326133Y-35414283D02*
X110564228Y-35414283D01*
X110564228Y-35414283D02*
X110754704Y-35366664D01*
X110754704Y-35366664D02*
X110849942Y-35319045D01*
X110849942Y-35319045D02*
X110897561Y-35271426D01*
X110897561Y-35271426D02*
X110945180Y-35176188D01*
X110849942Y-34461902D02*
X110897561Y-34414283D01*
X110897561Y-34414283D02*
X110945180Y-34319045D01*
X110945180Y-34319045D02*
X110945180Y-34080950D01*
X110945180Y-34080950D02*
X110897561Y-33985712D01*
X110897561Y-33985712D02*
X110849942Y-33938093D01*
X110849942Y-33938093D02*
X110754704Y-33890474D01*
X110754704Y-33890474D02*
X110659466Y-33890474D01*
X110659466Y-33890474D02*
X110516609Y-33938093D01*
X110516609Y-33938093D02*
X109945180Y-34509521D01*
X109945180Y-34509521D02*
X109945180Y-33890474D01*
X110945180Y-32985712D02*
X110945180Y-33461902D01*
X110945180Y-33461902D02*
X110468990Y-33509521D01*
X110468990Y-33509521D02*
X110516609Y-33461902D01*
X110516609Y-33461902D02*
X110564228Y-33366664D01*
X110564228Y-33366664D02*
X110564228Y-33128569D01*
X110564228Y-33128569D02*
X110516609Y-33033331D01*
X110516609Y-33033331D02*
X110468990Y-32985712D01*
X110468990Y-32985712D02*
X110373752Y-32938093D01*
X110373752Y-32938093D02*
X110135657Y-32938093D01*
X110135657Y-32938093D02*
X110040419Y-32985712D01*
X110040419Y-32985712D02*
X109992800Y-33033331D01*
X109992800Y-33033331D02*
X109945180Y-33128569D01*
X109945180Y-33128569D02*
X109945180Y-33366664D01*
X109945180Y-33366664D02*
X109992800Y-33461902D01*
X109992800Y-33461902D02*
X110040419Y-33509521D01*
X110945180Y-32319045D02*
X110945180Y-32223807D01*
X110945180Y-32223807D02*
X110897561Y-32128569D01*
X110897561Y-32128569D02*
X110849942Y-32080950D01*
X110849942Y-32080950D02*
X110754704Y-32033331D01*
X110754704Y-32033331D02*
X110564228Y-31985712D01*
X110564228Y-31985712D02*
X110326133Y-31985712D01*
X110326133Y-31985712D02*
X110135657Y-32033331D01*
X110135657Y-32033331D02*
X110040419Y-32080950D01*
X110040419Y-32080950D02*
X109992800Y-32128569D01*
X109992800Y-32128569D02*
X109945180Y-32223807D01*
X109945180Y-32223807D02*
X109945180Y-32319045D01*
X109945180Y-32319045D02*
X109992800Y-32414283D01*
X109992800Y-32414283D02*
X110040419Y-32461902D01*
X110040419Y-32461902D02*
X110135657Y-32509521D01*
X110135657Y-32509521D02*
X110326133Y-32557140D01*
X110326133Y-32557140D02*
X110564228Y-32557140D01*
X110564228Y-32557140D02*
X110754704Y-32509521D01*
X110754704Y-32509521D02*
X110849942Y-32461902D01*
X110849942Y-32461902D02*
X110897561Y-32414283D01*
X110897561Y-32414283D02*
X110945180Y-32319045D01*
X110945180Y-31080950D02*
X110945180Y-31557140D01*
X110945180Y-31557140D02*
X110468990Y-31604759D01*
X110468990Y-31604759D02*
X110516609Y-31557140D01*
X110516609Y-31557140D02*
X110564228Y-31461902D01*
X110564228Y-31461902D02*
X110564228Y-31223807D01*
X110564228Y-31223807D02*
X110516609Y-31128569D01*
X110516609Y-31128569D02*
X110468990Y-31080950D01*
X110468990Y-31080950D02*
X110373752Y-31033331D01*
X110373752Y-31033331D02*
X110135657Y-31033331D01*
X110135657Y-31033331D02*
X110040419Y-31080950D01*
X110040419Y-31080950D02*
X109992800Y-31128569D01*
X109992800Y-31128569D02*
X109945180Y-31223807D01*
X109945180Y-31223807D02*
X109945180Y-31461902D01*
X109945180Y-31461902D02*
X109992800Y-31557140D01*
X109992800Y-31557140D02*
X110040419Y-31604759D01*
X109945180Y-30080950D02*
X109945180Y-30652378D01*
X109945180Y-30366664D02*
X110945180Y-30366664D01*
X110945180Y-30366664D02*
X110802323Y-30461902D01*
X110802323Y-30461902D02*
X110707085Y-30557140D01*
X110707085Y-30557140D02*
X110659466Y-30652378D01*
X109945180Y-29604759D02*
X109945180Y-29414283D01*
X109945180Y-29414283D02*
X109992800Y-29319045D01*
X109992800Y-29319045D02*
X110040419Y-29271426D01*
X110040419Y-29271426D02*
X110183276Y-29176188D01*
X110183276Y-29176188D02*
X110373752Y-29128569D01*
X110373752Y-29128569D02*
X110754704Y-29128569D01*
X110754704Y-29128569D02*
X110849942Y-29176188D01*
X110849942Y-29176188D02*
X110897561Y-29223807D01*
X110897561Y-29223807D02*
X110945180Y-29319045D01*
X110945180Y-29319045D02*
X110945180Y-29509521D01*
X110945180Y-29509521D02*
X110897561Y-29604759D01*
X110897561Y-29604759D02*
X110849942Y-29652378D01*
X110849942Y-29652378D02*
X110754704Y-29699997D01*
X110754704Y-29699997D02*
X110516609Y-29699997D01*
X110516609Y-29699997D02*
X110421371Y-29652378D01*
X110421371Y-29652378D02*
X110373752Y-29604759D01*
X110373752Y-29604759D02*
X110326133Y-29509521D01*
X110326133Y-29509521D02*
X110326133Y-29319045D01*
X110326133Y-29319045D02*
X110373752Y-29223807D01*
X110373752Y-29223807D02*
X110421371Y-29176188D01*
X110421371Y-29176188D02*
X110516609Y-29128569D01*
X108139904Y-65701104D02*
X107663714Y-65701104D01*
X108235142Y-65986819D02*
X107901809Y-64986819D01*
X107901809Y-64986819D02*
X107568476Y-65986819D01*
X107235142Y-65986819D02*
X107235142Y-64986819D01*
X107235142Y-64986819D02*
X106663714Y-65986819D01*
X106663714Y-65986819D02*
X106663714Y-64986819D01*
X106330380Y-64986819D02*
X105758952Y-64986819D01*
X106044666Y-65986819D02*
X106044666Y-64986819D01*
X105425618Y-65463009D02*
X105092285Y-65463009D01*
X104949428Y-65986819D02*
X105425618Y-65986819D01*
X105425618Y-65986819D02*
X105425618Y-64986819D01*
X105425618Y-64986819D02*
X104949428Y-64986819D01*
X104520856Y-65986819D02*
X104520856Y-64986819D01*
X104520856Y-64986819D02*
X103949428Y-65986819D01*
X103949428Y-65986819D02*
X103949428Y-64986819D01*
X103473237Y-65986819D02*
X103473237Y-64986819D01*
X103473237Y-64986819D02*
X102901809Y-65986819D01*
X102901809Y-65986819D02*
X102901809Y-64986819D01*
X102473237Y-65701104D02*
X101997047Y-65701104D01*
X102568475Y-65986819D02*
X102235142Y-64986819D01*
X102235142Y-64986819D02*
X101901809Y-65986819D01*
X100854189Y-65701104D02*
X100377999Y-65701104D01*
X100949427Y-65986819D02*
X100616094Y-64986819D01*
X100616094Y-64986819D02*
X100282761Y-65986819D01*
X99377999Y-65986819D02*
X99711332Y-65510628D01*
X99949427Y-65986819D02*
X99949427Y-64986819D01*
X99949427Y-64986819D02*
X99568475Y-64986819D01*
X99568475Y-64986819D02*
X99473237Y-65034438D01*
X99473237Y-65034438D02*
X99425618Y-65082057D01*
X99425618Y-65082057D02*
X99377999Y-65177295D01*
X99377999Y-65177295D02*
X99377999Y-65320152D01*
X99377999Y-65320152D02*
X99425618Y-65415390D01*
X99425618Y-65415390D02*
X99473237Y-65463009D01*
X99473237Y-65463009D02*
X99568475Y-65510628D01*
X99568475Y-65510628D02*
X99949427Y-65510628D01*
X98949427Y-65463009D02*
X98616094Y-65463009D01*
X98473237Y-65986819D02*
X98949427Y-65986819D01*
X98949427Y-65986819D02*
X98949427Y-64986819D01*
X98949427Y-64986819D02*
X98473237Y-64986819D01*
X98092284Y-65701104D02*
X97616094Y-65701104D01*
X98187522Y-65986819D02*
X97854189Y-64986819D01*
X97854189Y-64986819D02*
X97520856Y-65986819D01*
%LPC*%
D12*
%TO.C,J3*%
X113110000Y-69580000D03*
D13*
X113110000Y-67040000D03*
X113110000Y-64500000D03*
X113110000Y-61960000D03*
X113110000Y-59420000D03*
X113110000Y-56880000D03*
X113110000Y-54340000D03*
X113110000Y-51800000D03*
X113110000Y-49260000D03*
X113110000Y-46720000D03*
X113110000Y-44180000D03*
X113110000Y-41640000D03*
%TD*%
D14*
%TO.C,J2*%
X92790000Y-31480000D03*
D13*
X92790000Y-34020000D03*
X92790000Y-36560000D03*
X92790000Y-39100000D03*
X92790000Y-41640000D03*
X92790000Y-44180000D03*
X92790000Y-46720000D03*
X92790000Y-49260000D03*
X92790000Y-51800000D03*
X92790000Y-54340000D03*
X92790000Y-56880000D03*
X92790000Y-59420000D03*
X92790000Y-61960000D03*
X92790000Y-64500000D03*
X92790000Y-67040000D03*
X92790000Y-69580000D03*
%TD*%
D15*
%TO.C,H3*%
X94060000Y-73390000D03*
%TD*%
%TO.C,H1*%
X111840000Y-27670000D03*
%TD*%
%TO.C,H4*%
X111840000Y-73390000D03*
%TD*%
%TO.C,H2*%
X94060000Y-27670000D03*
%TD*%
D16*
%TO.C,J1*%
X105750000Y-33100000D03*
D17*
X103250000Y-33100000D03*
X100750000Y-33100000D03*
%TD*%
%LPD*%
M02*
