M48
; DRILL file {KiCad 9.0.1+1} date 2025-05-19T20:13:15-0400
; FORMAT={-:-/ absolute / inch / decimal}
; #@! TF.CreationDate,2025-05-19T20:13:15-04:00
; #@! TF.GenerationSoftware,Kicad,Pcbnew,9.0.1+1
; #@! TF.FileFunction,Plated,1,4,PTH
FMAT,2
INCH
; #@! TA.AperFunction,Plated,PTH,ComponentDrill
T1C0.0079
; #@! TA.AperFunction,Plated,PTH,ViaDrill
T2C0.0118
; #@! TA.AperFunction,Plated,PTH,ViaDrill
T3C0.0157
; #@! TA.AperFunction,Plated,PTH,ComponentDrill
T4C0.0374
; #@! TA.AperFunction,Plated,PTH,ComponentDrill
T5C0.0394
%
G90
G05
T1
X4.1024Y-1.9882
X4.1024Y-2.0177
X4.1024Y-2.0472
T2
X4.0039Y-1.9528
X4.2047Y-2.0315
X4.2047Y-2.0906
T3
X3.7657Y-2.1437
X3.8352Y-1.7913
X3.8455Y-2.0502
X4.0188Y-2.1428
X4.0453Y-1.5846
X4.0453Y-1.6201
X4.2018Y-1.9587
X4.2815Y-1.7913
X4.3386Y-1.311
X4.3445Y-1.4261
X4.3465Y-1.7244
X4.3504Y-2.1358
X4.4645Y-1.4261
X4.4685Y-1.311
T4
X3.9665Y-1.3031
X4.065Y-1.3031
X4.1634Y-1.3031
T5
X3.6531Y-1.2394
X3.6531Y-1.3394
X3.6531Y-1.4394
X3.6531Y-1.5394
X3.6531Y-1.6394
X3.6531Y-1.7394
X3.6531Y-1.8394
X3.6531Y-1.9394
X3.6531Y-2.0394
X3.6531Y-2.1394
X3.6531Y-2.2394
X3.6531Y-2.3394
X3.6531Y-2.4394
X3.6531Y-2.5394
X3.6531Y-2.6394
X3.6531Y-2.7394
X4.4531Y-1.6394
X4.4531Y-1.7394
X4.4531Y-1.8394
X4.4531Y-1.9394
X4.4531Y-2.0394
X4.4531Y-2.1394
X4.4531Y-2.2394
X4.4531Y-2.3394
X4.4531Y-2.4394
X4.4531Y-2.5394
X4.4531Y-2.6394
X4.4531Y-2.7394
M30
