%TF.GenerationSoftware,KiCad,Pcbnew,9.0.1+1*%
%TF.CreationDate,2025-05-19T20:13:15-04:00*%
%TF.ProjectId,lg_hvac_esp32,6c675f68-7661-4635-9f65-737033322e6b,rev?*%
%TF.SameCoordinates,Original*%
%TF.FileFunction,Copper,L2,Inr*%
%TF.FilePolarity,Positive*%
%FSLAX46Y46*%
G04 Gerber Fmt 4.6, Leading zero omitted, Abs format (unit mm)*
G04 Created by KiCad (PCBNEW 9.0.1+1) date 2025-05-19 20:13:15*
%MOMM*%
%LPD*%
G01*
G04 APERTURE LIST*
G04 Aperture macros list*
%AMRoundRect*
0 Rectangle with rounded corners*
0 $1 Rounding radius*
0 $2 $3 $4 $5 $6 $7 $8 $9 X,Y pos of 4 corners*
0 Add a 4 corners polygon primitive as box body*
4,1,4,$2,$3,$4,$5,$6,$7,$8,$9,$2,$3,0*
0 Add four circle primitives for the rounded corners*
1,1,$1+$1,$2,$3*
1,1,$1+$1,$4,$5*
1,1,$1+$1,$6,$7*
1,1,$1+$1,$8,$9*
0 Add four rect primitives between the rounded corners*
20,1,$1+$1,$2,$3,$4,$5,0*
20,1,$1+$1,$4,$5,$6,$7,0*
20,1,$1+$1,$6,$7,$8,$9,0*
20,1,$1+$1,$8,$9,$2,$3,0*%
G04 Aperture macros list end*
%TA.AperFunction,ComponentPad*%
%ADD10R,1.700000X1.700000*%
%TD*%
%TA.AperFunction,ComponentPad*%
%ADD11C,1.700000*%
%TD*%
%TA.AperFunction,ComponentPad*%
%ADD12RoundRect,0.250000X0.600000X0.725000X-0.600000X0.725000X-0.600000X-0.725000X0.600000X-0.725000X0*%
%TD*%
%TA.AperFunction,ComponentPad*%
%ADD13O,1.700000X1.950000*%
%TD*%
%TA.AperFunction,HeatsinkPad*%
%ADD14C,0.500000*%
%TD*%
%TA.AperFunction,ViaPad*%
%ADD15C,0.600000*%
%TD*%
%TA.AperFunction,ViaPad*%
%ADD16C,0.800000*%
%TD*%
G04 APERTURE END LIST*
D10*
%TO.N,N/C*%
%TO.C,J3*%
X113110000Y-69580000D03*
D11*
X113110000Y-67040000D03*
X113110000Y-64500000D03*
X113110000Y-61960000D03*
X113110000Y-59420000D03*
X113110000Y-56880000D03*
X113110000Y-54340000D03*
X113110000Y-51800000D03*
X113110000Y-49260000D03*
X113110000Y-46720000D03*
X113110000Y-44180000D03*
X113110000Y-41640000D03*
%TD*%
D10*
%TO.N,N/C*%
%TO.C,J2*%
X92790000Y-31480000D03*
D11*
%TO.N,+3V3*%
X92790000Y-34020000D03*
%TO.N,N/C*%
X92790000Y-36560000D03*
%TO.N,GND*%
X92790000Y-39100000D03*
%TO.N,RXD*%
X92790000Y-41640000D03*
%TO.N,TXD*%
X92790000Y-44180000D03*
%TO.N,N/C*%
X92790000Y-46720000D03*
X92790000Y-49260000D03*
X92790000Y-51800000D03*
X92790000Y-54340000D03*
X92790000Y-56880000D03*
X92790000Y-59420000D03*
X92790000Y-61960000D03*
X92790000Y-64500000D03*
X92790000Y-67040000D03*
X92790000Y-69580000D03*
%TD*%
D12*
%TO.N,LINBUS*%
%TO.C,J1*%
X105750000Y-33100000D03*
D13*
%TO.N,GND*%
X103250000Y-33100000D03*
%TO.N,Net-(D1-A)*%
X100750000Y-33100000D03*
%TD*%
D14*
%TO.N,GND*%
%TO.C,U1*%
X104200000Y-50500000D03*
X104200000Y-51250000D03*
X104200000Y-52000000D03*
%TD*%
D15*
%TO.N,+12V*%
X106800000Y-51600000D03*
D16*
X102750000Y-41150000D03*
X102750000Y-40250000D03*
X113500000Y-33300000D03*
X110200000Y-33300000D03*
X108750000Y-45500000D03*
D15*
X106800000Y-53100000D03*
D16*
X110500000Y-54250000D03*
%TO.N,GND*%
X97676000Y-52074000D03*
X110400000Y-43800000D03*
X102078000Y-54428000D03*
X106725000Y-49750000D03*
X113398000Y-36224000D03*
X110350000Y-36224000D03*
D15*
%TO.N,+3V3*%
X101700000Y-49600000D03*
D16*
X95650000Y-54450000D03*
X97413500Y-45500000D03*
%TD*%
%TA.AperFunction,Conductor*%
%TO.N,GND*%
G36*
X111843471Y-25130695D02*
G01*
X111860477Y-25131650D01*
X112093772Y-25144751D01*
X112101700Y-25145454D01*
X112157220Y-25152195D01*
X112163006Y-25153038D01*
X112381284Y-25190125D01*
X112390124Y-25191963D01*
X112438416Y-25203866D01*
X112442958Y-25205079D01*
X112662542Y-25268340D01*
X112672149Y-25271540D01*
X112692692Y-25279331D01*
X112706555Y-25284589D01*
X112710021Y-25285963D01*
X112933563Y-25378558D01*
X112943723Y-25383317D01*
X112952957Y-25388163D01*
X112955280Y-25389414D01*
X113052221Y-25442991D01*
X113184999Y-25516375D01*
X113196773Y-25523773D01*
X113417671Y-25680508D01*
X113428543Y-25689178D01*
X113630505Y-25869661D01*
X113640338Y-25879494D01*
X113820821Y-26081456D01*
X113829491Y-26092328D01*
X113986226Y-26313226D01*
X113993624Y-26325000D01*
X114120565Y-26554682D01*
X114121835Y-26557041D01*
X114126681Y-26566275D01*
X114131444Y-26576444D01*
X114224029Y-26799963D01*
X114225409Y-26803443D01*
X114238454Y-26837838D01*
X114241667Y-26847484D01*
X114304905Y-27066991D01*
X114306148Y-27071642D01*
X114318027Y-27119836D01*
X114319878Y-27128742D01*
X114356958Y-27346983D01*
X114357806Y-27352805D01*
X114364540Y-27408260D01*
X114365249Y-27416255D01*
X114379305Y-27666527D01*
X114379500Y-27673480D01*
X114379500Y-32595324D01*
X114359815Y-32662363D01*
X114307011Y-32708118D01*
X114237853Y-32718062D01*
X114174297Y-32689037D01*
X114167819Y-32683005D01*
X114079138Y-32594324D01*
X114079134Y-32594321D01*
X113930342Y-32494901D01*
X113930332Y-32494896D01*
X113765000Y-32426413D01*
X113764992Y-32426411D01*
X113589483Y-32391500D01*
X113589479Y-32391500D01*
X113410521Y-32391500D01*
X113410516Y-32391500D01*
X113235007Y-32426411D01*
X113234999Y-32426413D01*
X113069667Y-32494896D01*
X113069657Y-32494901D01*
X112920865Y-32594321D01*
X112920861Y-32594324D01*
X112794324Y-32720861D01*
X112794321Y-32720865D01*
X112694901Y-32869657D01*
X112694896Y-32869667D01*
X112626413Y-33034999D01*
X112626411Y-33035007D01*
X112591500Y-33210516D01*
X112591500Y-33389483D01*
X112626411Y-33564992D01*
X112626413Y-33565000D01*
X112694896Y-33730332D01*
X112694901Y-33730342D01*
X112794321Y-33879134D01*
X112794324Y-33879138D01*
X112920861Y-34005675D01*
X112920865Y-34005678D01*
X113069657Y-34105098D01*
X113069661Y-34105100D01*
X113069664Y-34105102D01*
X113235000Y-34173587D01*
X113410516Y-34208499D01*
X113410520Y-34208500D01*
X113410521Y-34208500D01*
X113589480Y-34208500D01*
X113589481Y-34208499D01*
X113765000Y-34173587D01*
X113930336Y-34105102D01*
X114079135Y-34005678D01*
X114105387Y-33979426D01*
X114167819Y-33916995D01*
X114229142Y-33883510D01*
X114298834Y-33888494D01*
X114354767Y-33930366D01*
X114379184Y-33995830D01*
X114379500Y-34004676D01*
X114379500Y-40694465D01*
X114359815Y-40761504D01*
X114307011Y-40807259D01*
X114237853Y-40817203D01*
X114174297Y-40788178D01*
X114155183Y-40767351D01*
X114146210Y-40755002D01*
X114146206Y-40754996D01*
X113995004Y-40603794D01*
X113822009Y-40478106D01*
X113817305Y-40475709D01*
X113631483Y-40381027D01*
X113631480Y-40381026D01*
X113428117Y-40314951D01*
X113322516Y-40298225D01*
X113216916Y-40281500D01*
X113003084Y-40281500D01*
X112932684Y-40292650D01*
X112791882Y-40314951D01*
X112588519Y-40381026D01*
X112588516Y-40381027D01*
X112397990Y-40478106D01*
X112224993Y-40603796D01*
X112073796Y-40754993D01*
X111948106Y-40927990D01*
X111851027Y-41118516D01*
X111851026Y-41118519D01*
X111784951Y-41321882D01*
X111751500Y-41533084D01*
X111751500Y-41746915D01*
X111784951Y-41958117D01*
X111851026Y-42161480D01*
X111851027Y-42161483D01*
X111948106Y-42352009D01*
X112073794Y-42525004D01*
X112224996Y-42676206D01*
X112397991Y-42801894D01*
X112401873Y-42804273D01*
X112448748Y-42856086D01*
X112460169Y-42925016D01*
X112432512Y-42989178D01*
X112401873Y-43015727D01*
X112397991Y-43018105D01*
X112224993Y-43143796D01*
X112073796Y-43294993D01*
X111948106Y-43467990D01*
X111851027Y-43658516D01*
X111851026Y-43658519D01*
X111784951Y-43861882D01*
X111751500Y-44073084D01*
X111751500Y-44286915D01*
X111784951Y-44498117D01*
X111851026Y-44701480D01*
X111851027Y-44701483D01*
X111948106Y-44892009D01*
X112073794Y-45065004D01*
X112224996Y-45216206D01*
X112345562Y-45303802D01*
X112397991Y-45341894D01*
X112401873Y-45344273D01*
X112448748Y-45396086D01*
X112460169Y-45465016D01*
X112432512Y-45529178D01*
X112401873Y-45555727D01*
X112397991Y-45558105D01*
X112224993Y-45683796D01*
X112073796Y-45834993D01*
X111948106Y-46007990D01*
X111851027Y-46198516D01*
X111851026Y-46198519D01*
X111784951Y-46401882D01*
X111751500Y-46613084D01*
X111751500Y-46826915D01*
X111784951Y-47038117D01*
X111851026Y-47241480D01*
X111851027Y-47241483D01*
X111948106Y-47432009D01*
X112073794Y-47605004D01*
X112224996Y-47756206D01*
X112397991Y-47881894D01*
X112401873Y-47884273D01*
X112448748Y-47936086D01*
X112460169Y-48005016D01*
X112432512Y-48069178D01*
X112401873Y-48095727D01*
X112397991Y-48098105D01*
X112224993Y-48223796D01*
X112073796Y-48374993D01*
X111948106Y-48547990D01*
X111851027Y-48738516D01*
X111851026Y-48738519D01*
X111784951Y-48941882D01*
X111751500Y-49153084D01*
X111751500Y-49366915D01*
X111784951Y-49578117D01*
X111851026Y-49781480D01*
X111851027Y-49781483D01*
X111948106Y-49972009D01*
X112073794Y-50145004D01*
X112224996Y-50296206D01*
X112379554Y-50408499D01*
X112397991Y-50421894D01*
X112401873Y-50424273D01*
X112448748Y-50476086D01*
X112460169Y-50545016D01*
X112432512Y-50609178D01*
X112401873Y-50635727D01*
X112397991Y-50638105D01*
X112224993Y-50763796D01*
X112073796Y-50914993D01*
X111948106Y-51087990D01*
X111851027Y-51278516D01*
X111851026Y-51278519D01*
X111784951Y-51481882D01*
X111765344Y-51605677D01*
X111751500Y-51693084D01*
X111751500Y-51906916D01*
X111763093Y-51980109D01*
X111784951Y-52118117D01*
X111851026Y-52321480D01*
X111851027Y-52321483D01*
X111918091Y-52453102D01*
X111948106Y-52512009D01*
X112073794Y-52685004D01*
X112224996Y-52836206D01*
X112397991Y-52961894D01*
X112401873Y-52964273D01*
X112448748Y-53016086D01*
X112460169Y-53085016D01*
X112432512Y-53149178D01*
X112401873Y-53175727D01*
X112397991Y-53178105D01*
X112224993Y-53303796D01*
X112073796Y-53454993D01*
X111948106Y-53627990D01*
X111851027Y-53818516D01*
X111851026Y-53818519D01*
X111784951Y-54021882D01*
X111751500Y-54233084D01*
X111751500Y-54446915D01*
X111784951Y-54658117D01*
X111851026Y-54861480D01*
X111851027Y-54861483D01*
X111936451Y-55029135D01*
X111948106Y-55052009D01*
X112073794Y-55225004D01*
X112224996Y-55376206D01*
X112323101Y-55447483D01*
X112397991Y-55501894D01*
X112401873Y-55504273D01*
X112407217Y-55510180D01*
X111250000Y-55481250D01*
X111250000Y-55600000D01*
X95784370Y-55600000D01*
X95717331Y-55580315D01*
X95671576Y-55527511D01*
X95661632Y-55458353D01*
X95690657Y-55394797D01*
X95749435Y-55357023D01*
X95760179Y-55354383D01*
X95827158Y-55341059D01*
X95915000Y-55323587D01*
X96080336Y-55255102D01*
X96229135Y-55155678D01*
X96355678Y-55029135D01*
X96455102Y-54880336D01*
X96523587Y-54715000D01*
X96558500Y-54539479D01*
X96558500Y-54360521D01*
X96554315Y-54339479D01*
X96523588Y-54185004D01*
X96523587Y-54185001D01*
X96523586Y-54184999D01*
X96513445Y-54160516D01*
X109591500Y-54160516D01*
X109591500Y-54339483D01*
X109626411Y-54514992D01*
X109626413Y-54515000D01*
X109694896Y-54680332D01*
X109694901Y-54680342D01*
X109794321Y-54829134D01*
X109794324Y-54829138D01*
X109920861Y-54955675D01*
X109920865Y-54955678D01*
X110069657Y-55055098D01*
X110069661Y-55055100D01*
X110069664Y-55055102D01*
X110235000Y-55123587D01*
X110396319Y-55155675D01*
X110410516Y-55158499D01*
X110410520Y-55158500D01*
X110410521Y-55158500D01*
X110589480Y-55158500D01*
X110589481Y-55158499D01*
X110765000Y-55123587D01*
X110930336Y-55055102D01*
X111079135Y-54955678D01*
X111205678Y-54829135D01*
X111305102Y-54680336D01*
X111373587Y-54515000D01*
X111408500Y-54339479D01*
X111408500Y-54160521D01*
X111373587Y-53985000D01*
X111305102Y-53819664D01*
X111305100Y-53819661D01*
X111305098Y-53819657D01*
X111205678Y-53670865D01*
X111205675Y-53670861D01*
X111079138Y-53544324D01*
X111079134Y-53544321D01*
X110930342Y-53444901D01*
X110930332Y-53444896D01*
X110765000Y-53376413D01*
X110764992Y-53376411D01*
X110589483Y-53341500D01*
X110589479Y-53341500D01*
X110410521Y-53341500D01*
X110410516Y-53341500D01*
X110235007Y-53376411D01*
X110234999Y-53376413D01*
X110069667Y-53444896D01*
X110069657Y-53444901D01*
X109920865Y-53544321D01*
X109920861Y-53544324D01*
X109794324Y-53670861D01*
X109794321Y-53670865D01*
X109694901Y-53819657D01*
X109694896Y-53819667D01*
X109626413Y-53984999D01*
X109626411Y-53985007D01*
X109591500Y-54160516D01*
X96513445Y-54160516D01*
X96455102Y-54019664D01*
X96455100Y-54019661D01*
X96455098Y-54019657D01*
X96355678Y-53870865D01*
X96355675Y-53870861D01*
X96229138Y-53744324D01*
X96229134Y-53744321D01*
X96080342Y-53644901D01*
X96080332Y-53644896D01*
X95915000Y-53576413D01*
X95914992Y-53576411D01*
X95739483Y-53541500D01*
X95739479Y-53541500D01*
X95560521Y-53541500D01*
X95560516Y-53541500D01*
X95385007Y-53576411D01*
X95384999Y-53576413D01*
X95219667Y-53644896D01*
X95219657Y-53644901D01*
X95070865Y-53744321D01*
X95070861Y-53744324D01*
X94944324Y-53870861D01*
X94944321Y-53870865D01*
X94844901Y-54019657D01*
X94844896Y-54019667D01*
X94776413Y-54184999D01*
X94776411Y-54185007D01*
X94741500Y-54360516D01*
X94741500Y-54539483D01*
X94776411Y-54714992D01*
X94776413Y-54715000D01*
X94844896Y-54880332D01*
X94844901Y-54880342D01*
X94944321Y-55029134D01*
X94944324Y-55029138D01*
X95070861Y-55155675D01*
X95070865Y-55155678D01*
X95219657Y-55255098D01*
X95219661Y-55255100D01*
X95219664Y-55255102D01*
X95385000Y-55323587D01*
X95457041Y-55337916D01*
X95539821Y-55354383D01*
X95601732Y-55386768D01*
X95636306Y-55447483D01*
X95632567Y-55517253D01*
X95591701Y-55573925D01*
X95526683Y-55599506D01*
X95515630Y-55600000D01*
X94750000Y-55600000D01*
X94750000Y-55481250D01*
X93488295Y-55512792D01*
X93498132Y-55504270D01*
X93502005Y-55501896D01*
X93502004Y-55501896D01*
X93502009Y-55501894D01*
X93675004Y-55376206D01*
X93826206Y-55225004D01*
X93951894Y-55052009D01*
X94048972Y-54861483D01*
X94115049Y-54658116D01*
X94148500Y-54446916D01*
X94148500Y-54233084D01*
X94115049Y-54021884D01*
X94068114Y-53877430D01*
X94048973Y-53818519D01*
X94048972Y-53818516D01*
X93960510Y-53644901D01*
X93951894Y-53627991D01*
X93826206Y-53454996D01*
X93675004Y-53303794D01*
X93502009Y-53178106D01*
X93502005Y-53178103D01*
X93498132Y-53175730D01*
X93451254Y-53123920D01*
X93439829Y-53054991D01*
X93467483Y-52990827D01*
X93498132Y-52964270D01*
X93502005Y-52961896D01*
X93502004Y-52961896D01*
X93502009Y-52961894D01*
X93675004Y-52836206D01*
X93826206Y-52685004D01*
X93831602Y-52677577D01*
X103875975Y-52677577D01*
X103981236Y-52721178D01*
X103981240Y-52721179D01*
X104126126Y-52749999D01*
X104126129Y-52750000D01*
X104273871Y-52750000D01*
X104273873Y-52749999D01*
X104418760Y-52721179D01*
X104418775Y-52721175D01*
X104524024Y-52677578D01*
X104524024Y-52677577D01*
X104200001Y-52353554D01*
X104200000Y-52353554D01*
X103875975Y-52677577D01*
X93831602Y-52677577D01*
X93951894Y-52512009D01*
X94048972Y-52321483D01*
X94115049Y-52118116D01*
X94148500Y-51906916D01*
X94148500Y-51693084D01*
X94115049Y-51481884D01*
X94072198Y-51350000D01*
X94048973Y-51278519D01*
X94048972Y-51278516D01*
X93951893Y-51087990D01*
X93910653Y-51031228D01*
X93826206Y-50914996D01*
X93675004Y-50763794D01*
X93502009Y-50638106D01*
X93502005Y-50638103D01*
X93498132Y-50635730D01*
X93451254Y-50583920D01*
X93439829Y-50514991D01*
X93467483Y-50450827D01*
X93495990Y-50426126D01*
X103450000Y-50426126D01*
X103450000Y-50573873D01*
X103478820Y-50718759D01*
X103478823Y-50718771D01*
X103523880Y-50827548D01*
X103531349Y-50897017D01*
X103523880Y-50922452D01*
X103478823Y-51031228D01*
X103478820Y-51031240D01*
X103450000Y-51176126D01*
X103450000Y-51323873D01*
X103478820Y-51468759D01*
X103478823Y-51468771D01*
X103523880Y-51577548D01*
X103531349Y-51647017D01*
X103523880Y-51672452D01*
X103478823Y-51781228D01*
X103478820Y-51781240D01*
X103450000Y-51926126D01*
X103450000Y-52073873D01*
X103478820Y-52218759D01*
X103478822Y-52218767D01*
X103522421Y-52324024D01*
X103935542Y-51910904D01*
X103996865Y-51877419D01*
X104066557Y-51882403D01*
X104110904Y-51910904D01*
X104129289Y-51929289D01*
X104115224Y-51943355D01*
X104100000Y-51980109D01*
X104100000Y-52019891D01*
X104115224Y-52056645D01*
X104143355Y-52084776D01*
X104180109Y-52100000D01*
X104219891Y-52100000D01*
X104256645Y-52084776D01*
X104284776Y-52056645D01*
X104300000Y-52019891D01*
X104300000Y-51980109D01*
X104284776Y-51943355D01*
X104270709Y-51929288D01*
X104289094Y-51910904D01*
X104350417Y-51877419D01*
X104420109Y-51882403D01*
X104464457Y-51910904D01*
X104877577Y-52324024D01*
X104877578Y-52324024D01*
X104921175Y-52218775D01*
X104921179Y-52218760D01*
X104949999Y-52073873D01*
X104950000Y-52073871D01*
X104950000Y-51926128D01*
X104949999Y-51926126D01*
X104921179Y-51781240D01*
X104921177Y-51781232D01*
X104876119Y-51672453D01*
X104872838Y-51641937D01*
X104867391Y-51611745D01*
X104868939Y-51605677D01*
X104868650Y-51602984D01*
X104876119Y-51577547D01*
X104899805Y-51520365D01*
X105991500Y-51520365D01*
X105991500Y-51679634D01*
X106022568Y-51835823D01*
X106022570Y-51835831D01*
X106083517Y-51982969D01*
X106171995Y-52115387D01*
X106172001Y-52115394D01*
X106284608Y-52228001D01*
X106284611Y-52228003D01*
X106312888Y-52246897D01*
X106312890Y-52246898D01*
X106357695Y-52300510D01*
X106366402Y-52369835D01*
X106336248Y-52432862D01*
X106312891Y-52453100D01*
X106307527Y-52456685D01*
X106284608Y-52471998D01*
X106172001Y-52584605D01*
X106171995Y-52584612D01*
X106083517Y-52717030D01*
X106022570Y-52864168D01*
X106022568Y-52864176D01*
X105991500Y-53020365D01*
X105991500Y-53179634D01*
X106022568Y-53335823D01*
X106022570Y-53335831D01*
X106083517Y-53482969D01*
X106171995Y-53615387D01*
X106172001Y-53615394D01*
X106284605Y-53727998D01*
X106284612Y-53728004D01*
X106417030Y-53816482D01*
X106417031Y-53816482D01*
X106417032Y-53816483D01*
X106564169Y-53877430D01*
X106720365Y-53908499D01*
X106720369Y-53908500D01*
X106720370Y-53908500D01*
X106879631Y-53908500D01*
X106879632Y-53908499D01*
X107035831Y-53877430D01*
X107182968Y-53816483D01*
X107315389Y-53728003D01*
X107428003Y-53615389D01*
X107516483Y-53482968D01*
X107577430Y-53335831D01*
X107608500Y-53179630D01*
X107608500Y-53020370D01*
X107577430Y-52864169D01*
X107516483Y-52717032D01*
X107495083Y-52685005D01*
X107428004Y-52584612D01*
X107427998Y-52584605D01*
X107315394Y-52472001D01*
X107315389Y-52471997D01*
X107287109Y-52453101D01*
X107242305Y-52399492D01*
X107233596Y-52330167D01*
X107263750Y-52267139D01*
X107287110Y-52246898D01*
X107315389Y-52228003D01*
X107428003Y-52115389D01*
X107516483Y-51982968D01*
X107577430Y-51835831D01*
X107608500Y-51679630D01*
X107608500Y-51520370D01*
X107577430Y-51364169D01*
X107516483Y-51217032D01*
X107481866Y-51165224D01*
X107428004Y-51084612D01*
X107427998Y-51084605D01*
X107315394Y-50972001D01*
X107315387Y-50971995D01*
X107182969Y-50883517D01*
X107035831Y-50822570D01*
X107035823Y-50822568D01*
X106879634Y-50791500D01*
X106879630Y-50791500D01*
X106720370Y-50791500D01*
X106720365Y-50791500D01*
X106564176Y-50822568D01*
X106564168Y-50822570D01*
X106417030Y-50883517D01*
X106284612Y-50971995D01*
X106284605Y-50972001D01*
X106172001Y-51084605D01*
X106171995Y-51084612D01*
X106083517Y-51217030D01*
X106022570Y-51364168D01*
X106022568Y-51364176D01*
X105991500Y-51520365D01*
X104899805Y-51520365D01*
X104921178Y-51468765D01*
X104921179Y-51468759D01*
X104949999Y-51323873D01*
X104950000Y-51323871D01*
X104950000Y-51176128D01*
X104949999Y-51176126D01*
X104921179Y-51031240D01*
X104921177Y-51031232D01*
X104876119Y-50922453D01*
X104868650Y-50852984D01*
X104876119Y-50827547D01*
X104921177Y-50718767D01*
X104921179Y-50718759D01*
X104949999Y-50573873D01*
X104950000Y-50573871D01*
X104950000Y-50426128D01*
X104949999Y-50426126D01*
X104921179Y-50281240D01*
X104921178Y-50281236D01*
X104877576Y-50175974D01*
X104464457Y-50589095D01*
X104403134Y-50622580D01*
X104333442Y-50617596D01*
X104289095Y-50589095D01*
X104270710Y-50570710D01*
X104284776Y-50556645D01*
X104300000Y-50519891D01*
X104300000Y-50480109D01*
X104284776Y-50443355D01*
X104256645Y-50415224D01*
X104219891Y-50400000D01*
X104180109Y-50400000D01*
X104143355Y-50415224D01*
X104115224Y-50443355D01*
X104100000Y-50480109D01*
X104100000Y-50519891D01*
X104115224Y-50556645D01*
X104129289Y-50570710D01*
X104110904Y-50589096D01*
X104049581Y-50622580D01*
X103979889Y-50617596D01*
X103935542Y-50589095D01*
X103522421Y-50175974D01*
X103522420Y-50175974D01*
X103478823Y-50281228D01*
X103478820Y-50281240D01*
X103450000Y-50426126D01*
X93495990Y-50426126D01*
X93498132Y-50424270D01*
X93502005Y-50421896D01*
X93502004Y-50421896D01*
X93502009Y-50421894D01*
X93675004Y-50296206D01*
X93826206Y-50145004D01*
X93951894Y-49972009D01*
X94048972Y-49781483D01*
X94115049Y-49578116D01*
X94124196Y-49520365D01*
X100891500Y-49520365D01*
X100891500Y-49679634D01*
X100922568Y-49835823D01*
X100922570Y-49835831D01*
X100983517Y-49982969D01*
X101071995Y-50115387D01*
X101072001Y-50115394D01*
X101184605Y-50227998D01*
X101184612Y-50228004D01*
X101317030Y-50316482D01*
X101317031Y-50316482D01*
X101317032Y-50316483D01*
X101464169Y-50377430D01*
X101620365Y-50408499D01*
X101620369Y-50408500D01*
X101620370Y-50408500D01*
X101779631Y-50408500D01*
X101779632Y-50408499D01*
X101935831Y-50377430D01*
X102082968Y-50316483D01*
X102215389Y-50228003D01*
X102328003Y-50115389D01*
X102416483Y-49982968D01*
X102477430Y-49835831D01*
X102480098Y-49822420D01*
X103875974Y-49822420D01*
X103875974Y-49822421D01*
X104200000Y-50146446D01*
X104200001Y-50146446D01*
X104524024Y-49822421D01*
X104418767Y-49778822D01*
X104418759Y-49778820D01*
X104273872Y-49750000D01*
X104126128Y-49750000D01*
X103981240Y-49778820D01*
X103981228Y-49778823D01*
X103875974Y-49822420D01*
X102480098Y-49822420D01*
X102508500Y-49679630D01*
X102508500Y-49520370D01*
X102477430Y-49364169D01*
X102416483Y-49217032D01*
X102328003Y-49084611D01*
X102327998Y-49084605D01*
X102215394Y-48972001D01*
X102215387Y-48971995D01*
X102082969Y-48883517D01*
X101935831Y-48822570D01*
X101935823Y-48822568D01*
X101779634Y-48791500D01*
X101779630Y-48791500D01*
X101620370Y-48791500D01*
X101620365Y-48791500D01*
X101464176Y-48822568D01*
X101464168Y-48822570D01*
X101317030Y-48883517D01*
X101184612Y-48971995D01*
X101184605Y-48972001D01*
X101072001Y-49084605D01*
X101071995Y-49084612D01*
X100983517Y-49217030D01*
X100922570Y-49364168D01*
X100922568Y-49364176D01*
X100891500Y-49520365D01*
X94124196Y-49520365D01*
X94148500Y-49366916D01*
X94148500Y-49153084D01*
X94115049Y-48941884D01*
X94048972Y-48738517D01*
X94048972Y-48738516D01*
X93951893Y-48547990D01*
X93826206Y-48374996D01*
X93675004Y-48223794D01*
X93502009Y-48098106D01*
X93502005Y-48098103D01*
X93498132Y-48095730D01*
X93451254Y-48043920D01*
X93439829Y-47974991D01*
X93467483Y-47910827D01*
X93498132Y-47884270D01*
X93502005Y-47881896D01*
X93502004Y-47881896D01*
X93502009Y-47881894D01*
X93675004Y-47756206D01*
X93826206Y-47605004D01*
X93951894Y-47432009D01*
X94048972Y-47241483D01*
X94115049Y-47038116D01*
X94148500Y-46826916D01*
X94148500Y-46613084D01*
X94115049Y-46401884D01*
X94048972Y-46198517D01*
X94048972Y-46198516D01*
X93951893Y-46007990D01*
X93826206Y-45834996D01*
X93675004Y-45683794D01*
X93502009Y-45558106D01*
X93502005Y-45558103D01*
X93498132Y-45555730D01*
X93475740Y-45530982D01*
X93452707Y-45506831D01*
X93452387Y-45505172D01*
X93451254Y-45503920D01*
X93445798Y-45471005D01*
X93439477Y-45438225D01*
X93440104Y-45436655D01*
X93439829Y-45434991D01*
X93450377Y-45410516D01*
X96505000Y-45410516D01*
X96505000Y-45589483D01*
X96539911Y-45764992D01*
X96539913Y-45765000D01*
X96608396Y-45930332D01*
X96608401Y-45930342D01*
X96707821Y-46079134D01*
X96707824Y-46079138D01*
X96834361Y-46205675D01*
X96834365Y-46205678D01*
X96983157Y-46305098D01*
X96983161Y-46305100D01*
X96983164Y-46305102D01*
X97148500Y-46373587D01*
X97290750Y-46401882D01*
X97324016Y-46408499D01*
X97324020Y-46408500D01*
X97324021Y-46408500D01*
X97502980Y-46408500D01*
X97502981Y-46408499D01*
X97678500Y-46373587D01*
X97843836Y-46305102D01*
X97992635Y-46205678D01*
X98119178Y-46079135D01*
X98218602Y-45930336D01*
X98287087Y-45765000D01*
X98322000Y-45589479D01*
X98322000Y-45410521D01*
X98321999Y-45410516D01*
X107841500Y-45410516D01*
X107841500Y-45589483D01*
X107876411Y-45764992D01*
X107876413Y-45765000D01*
X107944896Y-45930332D01*
X107944901Y-45930342D01*
X108044321Y-46079134D01*
X108044324Y-46079138D01*
X108170861Y-46205675D01*
X108170865Y-46205678D01*
X108319657Y-46305098D01*
X108319661Y-46305100D01*
X108319664Y-46305102D01*
X108485000Y-46373587D01*
X108627250Y-46401882D01*
X108660516Y-46408499D01*
X108660520Y-46408500D01*
X108660521Y-46408500D01*
X108839480Y-46408500D01*
X108839481Y-46408499D01*
X109015000Y-46373587D01*
X109180336Y-46305102D01*
X109329135Y-46205678D01*
X109455678Y-46079135D01*
X109555102Y-45930336D01*
X109623587Y-45765000D01*
X109658500Y-45589479D01*
X109658500Y-45410521D01*
X109623587Y-45235000D01*
X109555102Y-45069664D01*
X109555100Y-45069661D01*
X109555098Y-45069657D01*
X109455678Y-44920865D01*
X109455675Y-44920861D01*
X109329138Y-44794324D01*
X109329134Y-44794321D01*
X109180342Y-44694901D01*
X109180332Y-44694896D01*
X109015000Y-44626413D01*
X109014992Y-44626411D01*
X108839483Y-44591500D01*
X108839479Y-44591500D01*
X108660521Y-44591500D01*
X108660516Y-44591500D01*
X108485007Y-44626411D01*
X108484999Y-44626413D01*
X108319667Y-44694896D01*
X108319657Y-44694901D01*
X108170865Y-44794321D01*
X108170861Y-44794324D01*
X108044324Y-44920861D01*
X108044321Y-44920865D01*
X107944901Y-45069657D01*
X107944896Y-45069667D01*
X107876413Y-45234999D01*
X107876411Y-45235007D01*
X107841500Y-45410516D01*
X98321999Y-45410516D01*
X98287087Y-45235000D01*
X98218602Y-45069664D01*
X98218600Y-45069661D01*
X98218598Y-45069657D01*
X98119178Y-44920865D01*
X98119175Y-44920861D01*
X97992638Y-44794324D01*
X97992634Y-44794321D01*
X97843842Y-44694901D01*
X97843832Y-44694896D01*
X97678500Y-44626413D01*
X97678492Y-44626411D01*
X97502983Y-44591500D01*
X97502979Y-44591500D01*
X97324021Y-44591500D01*
X97324016Y-44591500D01*
X97148507Y-44626411D01*
X97148499Y-44626413D01*
X96983167Y-44694896D01*
X96983157Y-44694901D01*
X96834365Y-44794321D01*
X96834361Y-44794324D01*
X96707824Y-44920861D01*
X96707821Y-44920865D01*
X96608401Y-45069657D01*
X96608396Y-45069667D01*
X96539913Y-45234999D01*
X96539911Y-45235007D01*
X96505000Y-45410516D01*
X93450377Y-45410516D01*
X93453034Y-45404350D01*
X93465439Y-45373358D01*
X93466985Y-45371982D01*
X93467483Y-45370827D01*
X93490980Y-45349000D01*
X93498311Y-45343777D01*
X93502009Y-45341894D01*
X93675004Y-45216206D01*
X93826206Y-45065004D01*
X93951894Y-44892009D01*
X94048972Y-44701483D01*
X94115049Y-44498116D01*
X94148500Y-44286916D01*
X94148500Y-44073084D01*
X94115049Y-43861884D01*
X94048972Y-43658517D01*
X94048972Y-43658516D01*
X93951893Y-43467990D01*
X93826206Y-43294996D01*
X93675004Y-43143794D01*
X93502009Y-43018106D01*
X93502005Y-43018103D01*
X93498132Y-43015730D01*
X93451254Y-42963920D01*
X93439829Y-42894991D01*
X93467483Y-42830827D01*
X93498132Y-42804270D01*
X93502005Y-42801896D01*
X93502004Y-42801896D01*
X93502009Y-42801894D01*
X93675004Y-42676206D01*
X93826206Y-42525004D01*
X93951894Y-42352009D01*
X94048972Y-42161483D01*
X94115049Y-41958116D01*
X94148500Y-41746916D01*
X94148500Y-41533084D01*
X94115049Y-41321884D01*
X94048972Y-41118517D01*
X94048972Y-41118516D01*
X93951893Y-40927990D01*
X93920659Y-40885000D01*
X93826206Y-40754996D01*
X93675004Y-40603794D01*
X93502009Y-40478106D01*
X93502010Y-40478106D01*
X93502008Y-40478105D01*
X93497311Y-40475712D01*
X93446517Y-40427735D01*
X93429724Y-40359914D01*
X93444242Y-40306795D01*
X93513540Y-40177093D01*
X93496963Y-40160516D01*
X101841500Y-40160516D01*
X101841500Y-40339483D01*
X101876411Y-40514992D01*
X101876413Y-40515000D01*
X101933387Y-40652547D01*
X101940856Y-40722017D01*
X101933387Y-40747453D01*
X101876413Y-40884999D01*
X101876411Y-40885007D01*
X101841500Y-41060516D01*
X101841500Y-41239483D01*
X101876411Y-41414992D01*
X101876413Y-41415000D01*
X101944896Y-41580332D01*
X101944901Y-41580342D01*
X102044321Y-41729134D01*
X102044324Y-41729138D01*
X102170861Y-41855675D01*
X102170865Y-41855678D01*
X102319657Y-41955098D01*
X102319661Y-41955100D01*
X102319664Y-41955102D01*
X102485000Y-42023587D01*
X102660516Y-42058499D01*
X102660520Y-42058500D01*
X102660521Y-42058500D01*
X102839480Y-42058500D01*
X102839481Y-42058499D01*
X103015000Y-42023587D01*
X103180336Y-41955102D01*
X103329135Y-41855678D01*
X103455678Y-41729135D01*
X103555102Y-41580336D01*
X103623587Y-41415000D01*
X103658500Y-41239479D01*
X103658500Y-41060521D01*
X103623587Y-40885000D01*
X103566611Y-40747450D01*
X103559143Y-40677984D01*
X103566610Y-40652552D01*
X103623587Y-40515000D01*
X103658500Y-40339479D01*
X103658500Y-40160521D01*
X103623587Y-39985000D01*
X103555102Y-39819664D01*
X103555100Y-39819661D01*
X103555098Y-39819657D01*
X103455678Y-39670865D01*
X103455675Y-39670861D01*
X103329138Y-39544324D01*
X103329134Y-39544321D01*
X103180342Y-39444901D01*
X103180332Y-39444896D01*
X103015000Y-39376413D01*
X103014992Y-39376411D01*
X102839483Y-39341500D01*
X102839479Y-39341500D01*
X102660521Y-39341500D01*
X102660516Y-39341500D01*
X102485007Y-39376411D01*
X102484999Y-39376413D01*
X102319667Y-39444896D01*
X102319657Y-39444901D01*
X102170865Y-39544321D01*
X102170861Y-39544324D01*
X102044324Y-39670861D01*
X102044321Y-39670865D01*
X101944901Y-39819657D01*
X101944896Y-39819667D01*
X101876413Y-39984999D01*
X101876411Y-39985007D01*
X101841500Y-40160516D01*
X93496963Y-40160516D01*
X92919408Y-39582962D01*
X92982993Y-39565925D01*
X93097007Y-39500099D01*
X93190099Y-39407007D01*
X93255925Y-39292993D01*
X93272962Y-39229408D01*
X93905270Y-39861717D01*
X93905270Y-39861716D01*
X93944622Y-39807554D01*
X94041095Y-39618217D01*
X94106757Y-39416130D01*
X94106757Y-39416127D01*
X94140000Y-39206246D01*
X94140000Y-38993753D01*
X94106757Y-38783872D01*
X94106757Y-38783869D01*
X94041095Y-38581782D01*
X93944624Y-38392449D01*
X93905270Y-38338282D01*
X93905269Y-38338282D01*
X93272962Y-38970590D01*
X93255925Y-38907007D01*
X93190099Y-38792993D01*
X93097007Y-38699901D01*
X92982993Y-38634075D01*
X92919409Y-38617037D01*
X93551716Y-37984728D01*
X93497547Y-37945373D01*
X93497545Y-37945371D01*
X93497308Y-37945251D01*
X93497234Y-37945181D01*
X93493396Y-37942829D01*
X93493890Y-37942022D01*
X93446515Y-37897274D01*
X93429724Y-37829451D01*
X93452266Y-37763318D01*
X93497319Y-37724283D01*
X93502009Y-37721894D01*
X93675004Y-37596206D01*
X93826206Y-37445004D01*
X93951894Y-37272009D01*
X94048972Y-37081483D01*
X94115049Y-36878116D01*
X94148500Y-36666916D01*
X94148500Y-36453084D01*
X94115049Y-36241884D01*
X94048972Y-36038517D01*
X94048972Y-36038516D01*
X93951893Y-35847990D01*
X93870524Y-35735995D01*
X93826206Y-35674996D01*
X93675004Y-35523794D01*
X93502009Y-35398106D01*
X93502005Y-35398103D01*
X93498132Y-35395730D01*
X93451254Y-35343920D01*
X93439829Y-35274991D01*
X93467483Y-35210827D01*
X93498132Y-35184270D01*
X93502005Y-35181896D01*
X93502004Y-35181896D01*
X93502009Y-35181894D01*
X93675004Y-35056206D01*
X93826206Y-34905004D01*
X93951894Y-34732009D01*
X94048972Y-34541483D01*
X94115049Y-34338116D01*
X94148500Y-34126916D01*
X94148500Y-33913084D01*
X94115049Y-33701884D01*
X94082010Y-33600200D01*
X94048973Y-33498519D01*
X94048972Y-33498516D01*
X93951893Y-33307990D01*
X93933986Y-33283343D01*
X93826206Y-33134996D01*
X93721028Y-33029818D01*
X93706222Y-33002704D01*
X93689610Y-32976654D01*
X93689625Y-32972308D01*
X93687543Y-32968495D01*
X93689746Y-32937680D01*
X93689855Y-32906785D01*
X93692216Y-32903137D01*
X93692527Y-32898803D01*
X93711044Y-32874067D01*
X93714919Y-32868084D01*
X99391500Y-32868084D01*
X99391500Y-33331915D01*
X99424951Y-33543117D01*
X99491026Y-33746480D01*
X99491027Y-33746483D01*
X99577908Y-33916995D01*
X99588106Y-33937009D01*
X99713794Y-34110004D01*
X99864996Y-34261206D01*
X100037991Y-34386894D01*
X100131438Y-34434507D01*
X100228516Y-34483972D01*
X100228519Y-34483973D01*
X100330200Y-34517010D01*
X100431884Y-34550049D01*
X100643084Y-34583500D01*
X100643085Y-34583500D01*
X100856915Y-34583500D01*
X100856916Y-34583500D01*
X101068116Y-34550049D01*
X101271483Y-34483972D01*
X101462009Y-34386894D01*
X101635004Y-34261206D01*
X101786206Y-34110004D01*
X101904935Y-33946586D01*
X101960265Y-33903921D01*
X102029878Y-33897942D01*
X102091673Y-33930548D01*
X102105571Y-33946587D01*
X102220272Y-34104459D01*
X102220276Y-34104464D01*
X102370535Y-34254723D01*
X102370540Y-34254727D01*
X102542442Y-34379620D01*
X102731782Y-34476095D01*
X102933871Y-34541757D01*
X103000000Y-34552231D01*
X103000000Y-33504145D01*
X103066657Y-33542630D01*
X103187465Y-33575000D01*
X103312535Y-33575000D01*
X103433343Y-33542630D01*
X103500000Y-33504145D01*
X103500000Y-34552230D01*
X103566126Y-34541757D01*
X103566129Y-34541757D01*
X103768217Y-34476095D01*
X103957557Y-34379620D01*
X104129458Y-34254728D01*
X104262516Y-34121670D01*
X104323839Y-34088185D01*
X104393531Y-34093169D01*
X104449465Y-34135040D01*
X104455737Y-34144254D01*
X104457883Y-34147734D01*
X104457885Y-34147738D01*
X104550970Y-34298652D01*
X104676348Y-34424030D01*
X104827262Y-34517115D01*
X104995574Y-34572887D01*
X105099455Y-34583500D01*
X106400544Y-34583499D01*
X106504426Y-34572887D01*
X106672738Y-34517115D01*
X106823652Y-34424030D01*
X106949030Y-34298652D01*
X107042115Y-34147738D01*
X107097887Y-33979426D01*
X107108500Y-33875545D01*
X107108499Y-33210516D01*
X109291500Y-33210516D01*
X109291500Y-33389483D01*
X109326411Y-33564992D01*
X109326413Y-33565000D01*
X109394896Y-33730332D01*
X109394901Y-33730342D01*
X109494321Y-33879134D01*
X109494324Y-33879138D01*
X109620861Y-34005675D01*
X109620865Y-34005678D01*
X109769657Y-34105098D01*
X109769661Y-34105100D01*
X109769664Y-34105102D01*
X109935000Y-34173587D01*
X110110516Y-34208499D01*
X110110520Y-34208500D01*
X110110521Y-34208500D01*
X110289480Y-34208500D01*
X110289481Y-34208499D01*
X110465000Y-34173587D01*
X110630336Y-34105102D01*
X110779135Y-34005678D01*
X110905678Y-33879135D01*
X111005102Y-33730336D01*
X111073587Y-33565000D01*
X111108500Y-33389479D01*
X111108500Y-33210521D01*
X111073587Y-33035000D01*
X111005102Y-32869664D01*
X111005100Y-32869661D01*
X111005098Y-32869657D01*
X110905678Y-32720865D01*
X110905675Y-32720861D01*
X110779138Y-32594324D01*
X110779134Y-32594321D01*
X110630342Y-32494901D01*
X110630332Y-32494896D01*
X110465000Y-32426413D01*
X110464992Y-32426411D01*
X110289483Y-32391500D01*
X110289479Y-32391500D01*
X110110521Y-32391500D01*
X110110516Y-32391500D01*
X109935007Y-32426411D01*
X109934999Y-32426413D01*
X109769667Y-32494896D01*
X109769657Y-32494901D01*
X109620865Y-32594321D01*
X109620861Y-32594324D01*
X109494324Y-32720861D01*
X109494321Y-32720865D01*
X109394901Y-32869657D01*
X109394896Y-32869667D01*
X109326413Y-33034999D01*
X109326411Y-33035007D01*
X109291500Y-33210516D01*
X107108499Y-33210516D01*
X107108499Y-33069754D01*
X107108499Y-32324462D01*
X107108498Y-32324446D01*
X107102220Y-32262990D01*
X107097887Y-32220574D01*
X107042115Y-32052262D01*
X106949030Y-31901348D01*
X106823652Y-31775970D01*
X106672738Y-31682885D01*
X106573348Y-31649951D01*
X106504427Y-31627113D01*
X106400545Y-31616500D01*
X105099462Y-31616500D01*
X105099446Y-31616501D01*
X104995572Y-31627113D01*
X104827264Y-31682884D01*
X104827259Y-31682886D01*
X104676346Y-31775971D01*
X104550970Y-31901347D01*
X104550967Y-31901351D01*
X104455736Y-32055745D01*
X104403788Y-32102470D01*
X104334826Y-32113691D01*
X104270744Y-32085848D01*
X104262517Y-32078329D01*
X104129464Y-31945276D01*
X104129459Y-31945272D01*
X103957557Y-31820379D01*
X103768215Y-31723903D01*
X103566124Y-31658241D01*
X103500000Y-31647768D01*
X103500000Y-32695854D01*
X103433343Y-32657370D01*
X103312535Y-32625000D01*
X103187465Y-32625000D01*
X103066657Y-32657370D01*
X103000000Y-32695854D01*
X103000000Y-31647768D01*
X102999999Y-31647768D01*
X102933875Y-31658241D01*
X102731784Y-31723903D01*
X102542442Y-31820379D01*
X102370540Y-31945272D01*
X102370535Y-31945276D01*
X102220276Y-32095535D01*
X102105571Y-32253413D01*
X102050241Y-32296078D01*
X101980627Y-32302057D01*
X101918832Y-32269451D01*
X101904935Y-32253412D01*
X101786208Y-32089999D01*
X101786203Y-32089993D01*
X101635006Y-31938796D01*
X101635004Y-31938794D01*
X101462009Y-31813106D01*
X101389126Y-31775970D01*
X101271483Y-31716027D01*
X101271480Y-31716026D01*
X101068117Y-31649951D01*
X100923923Y-31627113D01*
X100856916Y-31616500D01*
X100643084Y-31616500D01*
X100576077Y-31627113D01*
X100431882Y-31649951D01*
X100228519Y-31716026D01*
X100228516Y-31716027D01*
X100037990Y-31813106D01*
X99864993Y-31938796D01*
X99713796Y-32089993D01*
X99588106Y-32262990D01*
X99491027Y-32453516D01*
X99491026Y-32453519D01*
X99424951Y-32656882D01*
X99391500Y-32868084D01*
X93714919Y-32868084D01*
X93727836Y-32848140D01*
X93732530Y-32845365D01*
X93734399Y-32842870D01*
X93757594Y-32829162D01*
X93761412Y-32827434D01*
X93886204Y-32780889D01*
X94003261Y-32693261D01*
X94090889Y-32576204D01*
X94141989Y-32439201D01*
X94145591Y-32405692D01*
X94148499Y-32378654D01*
X94148500Y-32378637D01*
X94148500Y-30581362D01*
X94148499Y-30581345D01*
X94145157Y-30550270D01*
X94141989Y-30520799D01*
X94090889Y-30383796D01*
X94003261Y-30266739D01*
X93886204Y-30179111D01*
X93749203Y-30128011D01*
X93688654Y-30121500D01*
X93688638Y-30121500D01*
X91891362Y-30121500D01*
X91891345Y-30121500D01*
X91830798Y-30128010D01*
X91711052Y-30172674D01*
X91693796Y-30179111D01*
X91693795Y-30179111D01*
X91687834Y-30181335D01*
X91618143Y-30186319D01*
X91556819Y-30152835D01*
X91523334Y-30091512D01*
X91520500Y-30065153D01*
X91520500Y-27673480D01*
X91520695Y-27666528D01*
X91520804Y-27664575D01*
X91527353Y-27547973D01*
X92509500Y-27547973D01*
X92509500Y-27792026D01*
X92547678Y-28033072D01*
X92623097Y-28265187D01*
X92733896Y-28482642D01*
X92877339Y-28680076D01*
X92877343Y-28680081D01*
X93049918Y-28852656D01*
X93049923Y-28852660D01*
X93222136Y-28977779D01*
X93247361Y-28996106D01*
X93464815Y-29106904D01*
X93696924Y-29182321D01*
X93937973Y-29220500D01*
X93937974Y-29220500D01*
X94182026Y-29220500D01*
X94182027Y-29220500D01*
X94423076Y-29182321D01*
X94655185Y-29106904D01*
X94872639Y-28996106D01*
X95070083Y-28852655D01*
X95242655Y-28680083D01*
X95386106Y-28482639D01*
X95496904Y-28265185D01*
X95572321Y-28033076D01*
X95610500Y-27792027D01*
X95610500Y-27547973D01*
X110289500Y-27547973D01*
X110289500Y-27792026D01*
X110327678Y-28033072D01*
X110403097Y-28265187D01*
X110513896Y-28482642D01*
X110657339Y-28680076D01*
X110657343Y-28680081D01*
X110829918Y-28852656D01*
X110829923Y-28852660D01*
X111002136Y-28977779D01*
X111027361Y-28996106D01*
X111244815Y-29106904D01*
X111476924Y-29182321D01*
X111717973Y-29220500D01*
X111717974Y-29220500D01*
X111962026Y-29220500D01*
X111962027Y-29220500D01*
X112203076Y-29182321D01*
X112435185Y-29106904D01*
X112652639Y-28996106D01*
X112850083Y-28852655D01*
X113022655Y-28680083D01*
X113166106Y-28482639D01*
X113276904Y-28265185D01*
X113352321Y-28033076D01*
X113390500Y-27792027D01*
X113390500Y-27547973D01*
X113352321Y-27306924D01*
X113276904Y-27074815D01*
X113166106Y-26857361D01*
X113147140Y-26831256D01*
X113022660Y-26659923D01*
X113022656Y-26659918D01*
X112850081Y-26487343D01*
X112850076Y-26487339D01*
X112652642Y-26343896D01*
X112652641Y-26343895D01*
X112652639Y-26343894D01*
X112435185Y-26233096D01*
X112203076Y-26157679D01*
X112203074Y-26157678D01*
X112203072Y-26157678D01*
X112034769Y-26131021D01*
X111962027Y-26119500D01*
X111717973Y-26119500D01*
X111662093Y-26128350D01*
X111476927Y-26157678D01*
X111244812Y-26233097D01*
X111027357Y-26343896D01*
X110829923Y-26487339D01*
X110829918Y-26487343D01*
X110657343Y-26659918D01*
X110657339Y-26659923D01*
X110513896Y-26857357D01*
X110403097Y-27074812D01*
X110327678Y-27306927D01*
X110289500Y-27547973D01*
X95610500Y-27547973D01*
X95572321Y-27306924D01*
X95496904Y-27074815D01*
X95386106Y-26857361D01*
X95367140Y-26831256D01*
X95242660Y-26659923D01*
X95242656Y-26659918D01*
X95070081Y-26487343D01*
X95070076Y-26487339D01*
X94872642Y-26343896D01*
X94872641Y-26343895D01*
X94872639Y-26343894D01*
X94655185Y-26233096D01*
X94423076Y-26157679D01*
X94423074Y-26157678D01*
X94423072Y-26157678D01*
X94254769Y-26131021D01*
X94182027Y-26119500D01*
X93937973Y-26119500D01*
X93882093Y-26128350D01*
X93696927Y-26157678D01*
X93464812Y-26233097D01*
X93247357Y-26343896D01*
X93049923Y-26487339D01*
X93049918Y-26487343D01*
X92877343Y-26659918D01*
X92877339Y-26659923D01*
X92733896Y-26857357D01*
X92623097Y-27074812D01*
X92547678Y-27306927D01*
X92509500Y-27547973D01*
X91527353Y-27547973D01*
X91534752Y-27416219D01*
X91535454Y-27408304D01*
X91542197Y-27352767D01*
X91543036Y-27347005D01*
X91580127Y-27128704D01*
X91581960Y-27119886D01*
X91593872Y-27071557D01*
X91595072Y-27067067D01*
X91658344Y-26847443D01*
X91661535Y-26837864D01*
X91674599Y-26803417D01*
X91675944Y-26800024D01*
X91768565Y-26576419D01*
X91773312Y-26566285D01*
X91778200Y-26556971D01*
X91779388Y-26554765D01*
X91906376Y-26324999D01*
X91913773Y-26313226D01*
X92070515Y-26092318D01*
X92079171Y-26081464D01*
X92259671Y-25879483D01*
X92269483Y-25869671D01*
X92471464Y-25689171D01*
X92482318Y-25680515D01*
X92703231Y-25523769D01*
X92714999Y-25516376D01*
X92721909Y-25512556D01*
X92944765Y-25389388D01*
X92946971Y-25388200D01*
X92956285Y-25383312D01*
X92966419Y-25378565D01*
X93190024Y-25285944D01*
X93193417Y-25284599D01*
X93227864Y-25271535D01*
X93237443Y-25268344D01*
X93457067Y-25205072D01*
X93461557Y-25203872D01*
X93509886Y-25191960D01*
X93518704Y-25190127D01*
X93737005Y-25153036D01*
X93742767Y-25152197D01*
X93798304Y-25145454D01*
X93806222Y-25144751D01*
X94041171Y-25131557D01*
X94056529Y-25130695D01*
X94063481Y-25130500D01*
X111836519Y-25130500D01*
X111843471Y-25130695D01*
G37*
%TD.AperFunction*%
%TA.AperFunction,Conductor*%
G36*
X92324075Y-39292993D02*
G01*
X92389901Y-39407007D01*
X92482993Y-39500099D01*
X92597007Y-39565925D01*
X92660590Y-39582962D01*
X92028282Y-40215269D01*
X92028282Y-40215270D01*
X92082449Y-40254624D01*
X92082682Y-40254743D01*
X92082755Y-40254812D01*
X92086604Y-40257171D01*
X92086108Y-40257979D01*
X92133479Y-40302716D01*
X92150275Y-40370537D01*
X92127739Y-40436672D01*
X92082693Y-40475709D01*
X92077994Y-40478103D01*
X91904993Y-40603796D01*
X91753796Y-40754993D01*
X91753789Y-40755002D01*
X91744817Y-40767351D01*
X91689487Y-40810017D01*
X91619873Y-40815995D01*
X91558079Y-40783388D01*
X91523722Y-40722549D01*
X91520500Y-40694465D01*
X91520500Y-39983721D01*
X91540185Y-39916682D01*
X91592989Y-39870927D01*
X91654230Y-39860103D01*
X91674728Y-39861716D01*
X92307037Y-39229408D01*
X92324075Y-39292993D01*
G37*
%TD.AperFunction*%
%TA.AperFunction,Conductor*%
G36*
X91725703Y-37411821D02*
G01*
X91744815Y-37432646D01*
X91753794Y-37445004D01*
X91904996Y-37596206D01*
X92077991Y-37721894D01*
X92082680Y-37724283D01*
X92133478Y-37772254D01*
X92150276Y-37840074D01*
X92127742Y-37906210D01*
X92086205Y-37942209D01*
X92086590Y-37942838D01*
X92082804Y-37945157D01*
X92082702Y-37945246D01*
X92082449Y-37945374D01*
X92082440Y-37945380D01*
X92028282Y-37984727D01*
X92028282Y-37984728D01*
X92660591Y-38617037D01*
X92597007Y-38634075D01*
X92482993Y-38699901D01*
X92389901Y-38792993D01*
X92324075Y-38907007D01*
X92307037Y-38970591D01*
X91674727Y-38338281D01*
X91654228Y-38339895D01*
X91585851Y-38325530D01*
X91536095Y-38276479D01*
X91520500Y-38216277D01*
X91520500Y-37505534D01*
X91540185Y-37438495D01*
X91592989Y-37392740D01*
X91662147Y-37382796D01*
X91725703Y-37411821D01*
G37*
%TD.AperFunction*%
%TD*%
%TA.AperFunction,Conductor*%
%TO.N,GND*%
G36*
X94750000Y-55600001D02*
G01*
X94750000Y-71641184D01*
X94731046Y-71736472D01*
X94677070Y-71817254D01*
X94596288Y-71871230D01*
X94501000Y-71890184D01*
X94432727Y-71879371D01*
X94432586Y-71879962D01*
X94425079Y-71878159D01*
X94424058Y-71877998D01*
X94423073Y-71877678D01*
X94423075Y-71877678D01*
X94182036Y-71839500D01*
X94182027Y-71839500D01*
X93937973Y-71839500D01*
X93937963Y-71839500D01*
X93696926Y-71877678D01*
X93464819Y-71953094D01*
X93247359Y-72063895D01*
X93049919Y-72207343D01*
X92877343Y-72379919D01*
X92733895Y-72577359D01*
X92623094Y-72794819D01*
X92547678Y-73026926D01*
X92509500Y-73267963D01*
X92509500Y-73512036D01*
X92547678Y-73753073D01*
X92604106Y-73926742D01*
X92623096Y-73985185D01*
X92733894Y-74202639D01*
X92877345Y-74400083D01*
X93049917Y-74572655D01*
X93247361Y-74716106D01*
X93464815Y-74826904D01*
X93696924Y-74902321D01*
X93781703Y-74915748D01*
X93937963Y-74940499D01*
X93937970Y-74940499D01*
X93937973Y-74940500D01*
X93937976Y-74940500D01*
X94182024Y-74940500D01*
X94182027Y-74940500D01*
X94182030Y-74940499D01*
X94182036Y-74940499D01*
X94374018Y-74910091D01*
X94423076Y-74902321D01*
X94424040Y-74902007D01*
X94424715Y-74901927D01*
X94432586Y-74900038D01*
X94432809Y-74900969D01*
X94520518Y-74890581D01*
X94614027Y-74916946D01*
X94690329Y-74977088D01*
X94737807Y-75061852D01*
X94750000Y-75138815D01*
X94750000Y-75251000D01*
X94731046Y-75346288D01*
X94677070Y-75427070D01*
X94596288Y-75481046D01*
X94501000Y-75500000D01*
X92731533Y-75500000D01*
X92704092Y-75494541D01*
X92676125Y-75493757D01*
X92656901Y-75485154D01*
X92636245Y-75481046D01*
X92587444Y-75454074D01*
X92488050Y-75383550D01*
X92466220Y-75366142D01*
X92337375Y-75251000D01*
X92274720Y-75195008D01*
X92254991Y-75175279D01*
X92083856Y-74983778D01*
X92066448Y-74961949D01*
X92051229Y-74940500D01*
X91917833Y-74752496D01*
X91902981Y-74728857D01*
X91780070Y-74506467D01*
X91777539Y-74501768D01*
X91775928Y-74498700D01*
X91766386Y-74478320D01*
X91676687Y-74261767D01*
X91673917Y-74254782D01*
X91663368Y-74226969D01*
X91656916Y-74207598D01*
X91624307Y-74094409D01*
X91595749Y-73995283D01*
X91593288Y-73986074D01*
X91583060Y-73944576D01*
X91579359Y-73926771D01*
X91543535Y-73715931D01*
X91541838Y-73704275D01*
X91535943Y-73655727D01*
X91534522Y-73639691D01*
X91520892Y-73396979D01*
X91520500Y-73383018D01*
X91520500Y-70825543D01*
X91539454Y-70730255D01*
X91593430Y-70649473D01*
X91674212Y-70595497D01*
X91769500Y-70576543D01*
X91864788Y-70595497D01*
X91915856Y-70624096D01*
X92077991Y-70741894D01*
X92268517Y-70838972D01*
X92471884Y-70905049D01*
X92471892Y-70905050D01*
X92471894Y-70905051D01*
X92683074Y-70938499D01*
X92683081Y-70938499D01*
X92683084Y-70938500D01*
X92683087Y-70938500D01*
X92896913Y-70938500D01*
X92896916Y-70938500D01*
X92896919Y-70938499D01*
X92896925Y-70938499D01*
X93108105Y-70905051D01*
X93108106Y-70905050D01*
X93108116Y-70905049D01*
X93311483Y-70838972D01*
X93502009Y-70741894D01*
X93675004Y-70616206D01*
X93826206Y-70465004D01*
X93951894Y-70292009D01*
X94048972Y-70101483D01*
X94115049Y-69898116D01*
X94148500Y-69686916D01*
X94148500Y-69473084D01*
X94148499Y-69473081D01*
X94148499Y-69473074D01*
X94115051Y-69261894D01*
X94115050Y-69261892D01*
X94115049Y-69261884D01*
X94048972Y-69058517D01*
X93951894Y-68867991D01*
X93826206Y-68694996D01*
X93675004Y-68543794D01*
X93630478Y-68511444D01*
X93564531Y-68440103D01*
X93530904Y-68348953D01*
X93534718Y-68251873D01*
X93575392Y-68163642D01*
X93630478Y-68108555D01*
X93675004Y-68076206D01*
X93826206Y-67925004D01*
X93951894Y-67752009D01*
X94048972Y-67561483D01*
X94115049Y-67358116D01*
X94148500Y-67146916D01*
X94148500Y-66933084D01*
X94148499Y-66933081D01*
X94148499Y-66933074D01*
X94115051Y-66721894D01*
X94115050Y-66721892D01*
X94115049Y-66721884D01*
X94048972Y-66518517D01*
X93951894Y-66327991D01*
X93826206Y-66154996D01*
X93675004Y-66003794D01*
X93630478Y-65971444D01*
X93564531Y-65900103D01*
X93530904Y-65808953D01*
X93534718Y-65711873D01*
X93575392Y-65623642D01*
X93630478Y-65568555D01*
X93675004Y-65536206D01*
X93826206Y-65385004D01*
X93951894Y-65212009D01*
X94048972Y-65021483D01*
X94115049Y-64818116D01*
X94148500Y-64606916D01*
X94148500Y-64393084D01*
X94148499Y-64393081D01*
X94148499Y-64393074D01*
X94115051Y-64181894D01*
X94115050Y-64181892D01*
X94115049Y-64181884D01*
X94048972Y-63978517D01*
X93951894Y-63787991D01*
X93826206Y-63614996D01*
X93675004Y-63463794D01*
X93630478Y-63431444D01*
X93564531Y-63360103D01*
X93530904Y-63268953D01*
X93534718Y-63171873D01*
X93575392Y-63083642D01*
X93630478Y-63028555D01*
X93675004Y-62996206D01*
X93826206Y-62845004D01*
X93951894Y-62672009D01*
X94048972Y-62481483D01*
X94115049Y-62278116D01*
X94148500Y-62066916D01*
X94148500Y-61853084D01*
X94148499Y-61853081D01*
X94148499Y-61853074D01*
X94115051Y-61641894D01*
X94115050Y-61641892D01*
X94115049Y-61641884D01*
X94048972Y-61438517D01*
X93951894Y-61247991D01*
X93826206Y-61074996D01*
X93675004Y-60923794D01*
X93630478Y-60891444D01*
X93564531Y-60820103D01*
X93530904Y-60728953D01*
X93534718Y-60631873D01*
X93575392Y-60543642D01*
X93630478Y-60488555D01*
X93675004Y-60456206D01*
X93826206Y-60305004D01*
X93951894Y-60132009D01*
X94048972Y-59941483D01*
X94115049Y-59738116D01*
X94148500Y-59526916D01*
X94148500Y-59313084D01*
X94148499Y-59313081D01*
X94148499Y-59313074D01*
X94115051Y-59101894D01*
X94115050Y-59101892D01*
X94115049Y-59101884D01*
X94048972Y-58898517D01*
X93951894Y-58707991D01*
X93826206Y-58534996D01*
X93675004Y-58383794D01*
X93630478Y-58351444D01*
X93564531Y-58280103D01*
X93530904Y-58188953D01*
X93534718Y-58091873D01*
X93575392Y-58003642D01*
X93630478Y-57948555D01*
X93675004Y-57916206D01*
X93826206Y-57765004D01*
X93951894Y-57592009D01*
X94048972Y-57401483D01*
X94115049Y-57198116D01*
X94148500Y-56986916D01*
X94148500Y-56773084D01*
X94148499Y-56773081D01*
X94148499Y-56773074D01*
X94115051Y-56561894D01*
X94115050Y-56561892D01*
X94115049Y-56561884D01*
X94048972Y-56358517D01*
X93951894Y-56167991D01*
X93826206Y-55994996D01*
X93675004Y-55843794D01*
X93630478Y-55811444D01*
X93564531Y-55740103D01*
X93530904Y-55648953D01*
X93534718Y-55551873D01*
X93553485Y-55511162D01*
X94750000Y-55481250D01*
X94750000Y-55600001D01*
G37*
%TD.AperFunction*%
%TD*%
%TA.AperFunction,Conductor*%
%TO.N,GND*%
G36*
X112407217Y-55510180D02*
G01*
X112448748Y-55556086D01*
X112460169Y-55625016D01*
X112432512Y-55689178D01*
X112401873Y-55715727D01*
X112397991Y-55718105D01*
X112224993Y-55843796D01*
X112073796Y-55994993D01*
X111948106Y-56167990D01*
X111851027Y-56358516D01*
X111851026Y-56358519D01*
X111784951Y-56561882D01*
X111751500Y-56773084D01*
X111751500Y-56986915D01*
X111784951Y-57198117D01*
X111851026Y-57401480D01*
X111851027Y-57401483D01*
X111948106Y-57592009D01*
X112073794Y-57765004D01*
X112224996Y-57916206D01*
X112397991Y-58041894D01*
X112401873Y-58044273D01*
X112448748Y-58096086D01*
X112460169Y-58165016D01*
X112432512Y-58229178D01*
X112401873Y-58255727D01*
X112397991Y-58258105D01*
X112224993Y-58383796D01*
X112073796Y-58534993D01*
X111948106Y-58707990D01*
X111851027Y-58898516D01*
X111851026Y-58898519D01*
X111784951Y-59101882D01*
X111751500Y-59313084D01*
X111751500Y-59526915D01*
X111784951Y-59738117D01*
X111851026Y-59941480D01*
X111851027Y-59941483D01*
X111948106Y-60132009D01*
X112073794Y-60305004D01*
X112224996Y-60456206D01*
X112397991Y-60581894D01*
X112401873Y-60584273D01*
X112448748Y-60636086D01*
X112460169Y-60705016D01*
X112432512Y-60769178D01*
X112401873Y-60795727D01*
X112397991Y-60798105D01*
X112224993Y-60923796D01*
X112073796Y-61074993D01*
X111948106Y-61247990D01*
X111851027Y-61438516D01*
X111851026Y-61438519D01*
X111784951Y-61641882D01*
X111751500Y-61853084D01*
X111751500Y-62066915D01*
X111784951Y-62278117D01*
X111851026Y-62481480D01*
X111851027Y-62481483D01*
X111948106Y-62672009D01*
X112073794Y-62845004D01*
X112224996Y-62996206D01*
X112397991Y-63121894D01*
X112401873Y-63124273D01*
X112448748Y-63176086D01*
X112460169Y-63245016D01*
X112432512Y-63309178D01*
X112401873Y-63335727D01*
X112397991Y-63338105D01*
X112224993Y-63463796D01*
X112073796Y-63614993D01*
X111948106Y-63787990D01*
X111851027Y-63978516D01*
X111851026Y-63978519D01*
X111784951Y-64181882D01*
X111751500Y-64393084D01*
X111751500Y-64606915D01*
X111784951Y-64818117D01*
X111851026Y-65021480D01*
X111851027Y-65021483D01*
X111948106Y-65212009D01*
X112073794Y-65385004D01*
X112224996Y-65536206D01*
X112397991Y-65661894D01*
X112401873Y-65664273D01*
X112448748Y-65716086D01*
X112460169Y-65785016D01*
X112432512Y-65849178D01*
X112401873Y-65875727D01*
X112397991Y-65878105D01*
X112224993Y-66003796D01*
X112073796Y-66154993D01*
X111948106Y-66327990D01*
X111851027Y-66518516D01*
X111851026Y-66518519D01*
X111784951Y-66721882D01*
X111751500Y-66933084D01*
X111751500Y-67146915D01*
X111784951Y-67358117D01*
X111851026Y-67561480D01*
X111851027Y-67561483D01*
X111948106Y-67752009D01*
X112073794Y-67925004D01*
X112073796Y-67925006D01*
X112178971Y-68030181D01*
X112212456Y-68091504D01*
X112207472Y-68161196D01*
X112165600Y-68217129D01*
X112134625Y-68234043D01*
X112013795Y-68279111D01*
X111896739Y-68366739D01*
X111809111Y-68483795D01*
X111758011Y-68620795D01*
X111758011Y-68620797D01*
X111751500Y-68681345D01*
X111751500Y-70478654D01*
X111758011Y-70539202D01*
X111758011Y-70539204D01*
X111809111Y-70676204D01*
X111896739Y-70793261D01*
X112013796Y-70880889D01*
X112150799Y-70931989D01*
X112178050Y-70934918D01*
X112211345Y-70938499D01*
X112211362Y-70938500D01*
X114008638Y-70938500D01*
X114008654Y-70938499D01*
X114035692Y-70935591D01*
X114069201Y-70931989D01*
X114206204Y-70880889D01*
X114206205Y-70880887D01*
X114212165Y-70878665D01*
X114281857Y-70873679D01*
X114343180Y-70907164D01*
X114376666Y-70968486D01*
X114379500Y-70994846D01*
X114379500Y-73386519D01*
X114379305Y-73393472D01*
X114365249Y-73643743D01*
X114364540Y-73651738D01*
X114357806Y-73707193D01*
X114356958Y-73713015D01*
X114319878Y-73931256D01*
X114318027Y-73940162D01*
X114306148Y-73988356D01*
X114304905Y-73993007D01*
X114241667Y-74212514D01*
X114238454Y-74222160D01*
X114225409Y-74256555D01*
X114224029Y-74260035D01*
X114131444Y-74483554D01*
X114126681Y-74493723D01*
X114121835Y-74502957D01*
X114120565Y-74505316D01*
X113993624Y-74734999D01*
X113986226Y-74746773D01*
X113843623Y-74947755D01*
X113788775Y-74991039D01*
X113742493Y-75000000D01*
X112611963Y-75000000D01*
X112544924Y-74980315D01*
X112499169Y-74927511D01*
X112489225Y-74858353D01*
X112518250Y-74794797D01*
X112555668Y-74765515D01*
X112652639Y-74716106D01*
X112850083Y-74572655D01*
X113022655Y-74400083D01*
X113166106Y-74202639D01*
X113276904Y-73985185D01*
X113352321Y-73753076D01*
X113390500Y-73512027D01*
X113390500Y-73267973D01*
X113352321Y-73026924D01*
X113276904Y-72794815D01*
X113166106Y-72577361D01*
X113147779Y-72552136D01*
X113022660Y-72379923D01*
X113022656Y-72379918D01*
X112850081Y-72207343D01*
X112850076Y-72207339D01*
X112652642Y-72063896D01*
X112652641Y-72063895D01*
X112652639Y-72063894D01*
X112435185Y-71953096D01*
X112203076Y-71877679D01*
X112203074Y-71877678D01*
X112203072Y-71877678D01*
X112034769Y-71851021D01*
X111962027Y-71839500D01*
X111717973Y-71839500D01*
X111637623Y-71852226D01*
X111476922Y-71877679D01*
X111476919Y-71877679D01*
X111412318Y-71898670D01*
X111342477Y-71900665D01*
X111282644Y-71864585D01*
X111251816Y-71801884D01*
X111250000Y-71780739D01*
X111250000Y-55600000D01*
X111250000Y-55481250D01*
X112407217Y-55510180D01*
G37*
%TD.AperFunction*%
%TD*%
M02*
