%TF.GenerationSoftware,KiCad,Pcbnew,9.0.1+1*%
%TF.CreationDate,2025-05-19T20:13:15-04:00*%
%TF.ProjectId,lg_hvac_esp32,6c675f68-7661-4635-9f65-737033322e6b,rev?*%
%TF.SameCoordinates,Original*%
%TF.FileFunction,Copper,L1,Top*%
%TF.FilePolarity,Positive*%
%FSLAX46Y46*%
G04 Gerber Fmt 4.6, Leading zero omitted, Abs format (unit mm)*
G04 Created by KiCad (PCBNEW 9.0.1+1) date 2025-05-19 20:13:15*
%MOMM*%
%LPD*%
G01*
G04 APERTURE LIST*
G04 Aperture macros list*
%AMRoundRect*
0 Rectangle with rounded corners*
0 $1 Rounding radius*
0 $2 $3 $4 $5 $6 $7 $8 $9 X,Y pos of 4 corners*
0 Add a 4 corners polygon primitive as box body*
4,1,4,$2,$3,$4,$5,$6,$7,$8,$9,$2,$3,0*
0 Add four circle primitives for the rounded corners*
1,1,$1+$1,$2,$3*
1,1,$1+$1,$4,$5*
1,1,$1+$1,$6,$7*
1,1,$1+$1,$8,$9*
0 Add four rect primitives between the rounded corners*
20,1,$1+$1,$2,$3,$4,$5,0*
20,1,$1+$1,$4,$5,$6,$7,0*
20,1,$1+$1,$6,$7,$8,$9,0*
20,1,$1+$1,$8,$9,$2,$3,0*%
G04 Aperture macros list end*
%TA.AperFunction,ComponentPad*%
%ADD10R,1.700000X1.700000*%
%TD*%
%TA.AperFunction,ComponentPad*%
%ADD11C,1.700000*%
%TD*%
%TA.AperFunction,ComponentPad*%
%ADD12RoundRect,0.250000X0.600000X0.725000X-0.600000X0.725000X-0.600000X-0.725000X0.600000X-0.725000X0*%
%TD*%
%TA.AperFunction,ComponentPad*%
%ADD13O,1.700000X1.950000*%
%TD*%
%TA.AperFunction,SMDPad,CuDef*%
%ADD14RoundRect,0.112500X0.112500X-0.187500X0.112500X0.187500X-0.112500X0.187500X-0.112500X-0.187500X0*%
%TD*%
%TA.AperFunction,SMDPad,CuDef*%
%ADD15RoundRect,0.250000X0.262500X0.450000X-0.262500X0.450000X-0.262500X-0.450000X0.262500X-0.450000X0*%
%TD*%
%TA.AperFunction,SMDPad,CuDef*%
%ADD16RoundRect,0.250000X-0.450000X0.262500X-0.450000X-0.262500X0.450000X-0.262500X0.450000X0.262500X0*%
%TD*%
%TA.AperFunction,SMDPad,CuDef*%
%ADD17RoundRect,0.250000X0.450000X-0.262500X0.450000X0.262500X-0.450000X0.262500X-0.450000X-0.262500X0*%
%TD*%
%TA.AperFunction,SMDPad,CuDef*%
%ADD18RoundRect,0.150000X-0.825000X-0.150000X0.825000X-0.150000X0.825000X0.150000X-0.825000X0.150000X0*%
%TD*%
%TA.AperFunction,SMDPad,CuDef*%
%ADD19RoundRect,0.112500X-0.187500X-0.112500X0.187500X-0.112500X0.187500X0.112500X-0.187500X0.112500X0*%
%TD*%
%TA.AperFunction,SMDPad,CuDef*%
%ADD20RoundRect,0.140000X-0.170000X0.140000X-0.170000X-0.140000X0.170000X-0.140000X0.170000X0.140000X0*%
%TD*%
%TA.AperFunction,SMDPad,CuDef*%
%ADD21RoundRect,0.140000X0.170000X-0.140000X0.170000X0.140000X-0.170000X0.140000X-0.170000X-0.140000X0*%
%TD*%
%TA.AperFunction,SMDPad,CuDef*%
%ADD22RoundRect,0.250000X-0.262500X-0.450000X0.262500X-0.450000X0.262500X0.450000X-0.262500X0.450000X0*%
%TD*%
%TA.AperFunction,HeatsinkPad*%
%ADD23C,0.500000*%
%TD*%
%TA.AperFunction,HeatsinkPad*%
%ADD24R,1.100000X1.900000*%
%TD*%
%TA.AperFunction,SMDPad,CuDef*%
%ADD25RoundRect,0.125000X0.187500X0.125000X-0.187500X0.125000X-0.187500X-0.125000X0.187500X-0.125000X0*%
%TD*%
%TA.AperFunction,SMDPad,CuDef*%
%ADD26RoundRect,0.250000X-1.100000X0.325000X-1.100000X-0.325000X1.100000X-0.325000X1.100000X0.325000X0*%
%TD*%
%TA.AperFunction,ViaPad*%
%ADD27C,0.600000*%
%TD*%
%TA.AperFunction,ViaPad*%
%ADD28C,0.800000*%
%TD*%
%TA.AperFunction,Conductor*%
%ADD29C,0.400000*%
%TD*%
%TA.AperFunction,Conductor*%
%ADD30C,0.300000*%
%TD*%
G04 APERTURE END LIST*
D10*
%TO.P,J3,1*%
%TO.N,N/C*%
X113110000Y-69580000D03*
D11*
%TO.P,J3,2*%
X113110000Y-67040000D03*
%TO.P,J3,3*%
X113110000Y-64500000D03*
%TO.P,J3,4*%
X113110000Y-61960000D03*
%TO.P,J3,5*%
X113110000Y-59420000D03*
%TO.P,J3,6*%
X113110000Y-56880000D03*
%TO.P,J3,7*%
X113110000Y-54340000D03*
%TO.P,J3,8*%
X113110000Y-51800000D03*
%TO.P,J3,9*%
X113110000Y-49260000D03*
%TO.P,J3,10*%
X113110000Y-46720000D03*
%TO.P,J3,11*%
X113110000Y-44180000D03*
%TO.P,J3,12*%
X113110000Y-41640000D03*
%TD*%
D10*
%TO.P,J2,1*%
%TO.N,N/C*%
X92790000Y-31480000D03*
D11*
%TO.P,J2,2*%
%TO.N,+3V3*%
X92790000Y-34020000D03*
%TO.P,J2,3*%
%TO.N,N/C*%
X92790000Y-36560000D03*
%TO.P,J2,4*%
%TO.N,GND*%
X92790000Y-39100000D03*
%TO.P,J2,5*%
%TO.N,RXD*%
X92790000Y-41640000D03*
%TO.P,J2,6*%
%TO.N,TXD*%
X92790000Y-44180000D03*
%TO.P,J2,7*%
%TO.N,N/C*%
X92790000Y-46720000D03*
%TO.P,J2,8*%
X92790000Y-49260000D03*
%TO.P,J2,9*%
X92790000Y-51800000D03*
%TO.P,J2,10*%
X92790000Y-54340000D03*
%TO.P,J2,11*%
X92790000Y-56880000D03*
%TO.P,J2,12*%
X92790000Y-59420000D03*
%TO.P,J2,13*%
X92790000Y-61960000D03*
%TO.P,J2,14*%
X92790000Y-64500000D03*
%TO.P,J2,15*%
X92790000Y-67040000D03*
%TO.P,J2,16*%
X92790000Y-69580000D03*
%TD*%
D12*
%TO.P,J1,1,Pin_1*%
%TO.N,LINBUS*%
X105750000Y-33100000D03*
D13*
%TO.P,J1,2,Pin_2*%
%TO.N,GND*%
X103250000Y-33100000D03*
%TO.P,J1,3,Pin_3*%
%TO.N,Net-(D1-A)*%
X100750000Y-33100000D03*
%TD*%
D14*
%TO.P,D1,2,A*%
%TO.N,Net-(D1-A)*%
X100750000Y-38150000D03*
%TO.P,D1,1,K*%
%TO.N,+12V*%
X100750000Y-40250000D03*
%TD*%
D15*
%TO.P,R3,2*%
%TO.N,+3V3*%
X97537500Y-54450000D03*
%TO.P,R3,1*%
%TO.N,Net-(U1-PG)*%
X99362500Y-54450000D03*
%TD*%
D16*
%TO.P,R1,2*%
%TO.N,+3V3*%
X95588032Y-51462500D03*
%TO.P,R1,1*%
%TO.N,Net-(U1-FB)*%
X95588032Y-49637500D03*
%TD*%
D17*
%TO.P,R2,2*%
%TO.N,Net-(U1-FB)*%
X99200000Y-49637500D03*
%TO.P,R2,1*%
%TO.N,GND*%
X99200000Y-51462500D03*
%TD*%
%TO.P,R4,2*%
%TO.N,RXD*%
X97413500Y-41686500D03*
%TO.P,R4,1*%
%TO.N,+3V3*%
X97413500Y-43511500D03*
%TD*%
D18*
%TO.P,U2,8,NC*%
%TO.N,N/C*%
X106725000Y-44345000D03*
%TO.P,U2,7,VBAT*%
%TO.N,+12V*%
X106725000Y-45615000D03*
%TO.P,U2,6,LIN*%
%TO.N,LINBUS*%
X106725000Y-46885000D03*
%TO.P,U2,5,GND*%
%TO.N,GND*%
X106725000Y-48155000D03*
%TO.P,U2,4,TXD*%
%TO.N,TXD*%
X101775000Y-48155000D03*
%TO.P,U2,3,NC*%
%TO.N,N/C*%
X101775000Y-46885000D03*
%TO.P,U2,2,~{SLP}*%
%TO.N,+3V3*%
X101775000Y-45615000D03*
%TO.P,U2,1,RXD*%
%TO.N,RXD*%
X101775000Y-44345000D03*
%TD*%
D19*
%TO.P,D2,2,A*%
%TO.N,+12V*%
X110580500Y-51868000D03*
%TO.P,D2,1,K*%
%TO.N,Net-(D2-K)*%
X108480500Y-51868000D03*
%TD*%
D20*
%TO.P,C2,2*%
%TO.N,GND*%
X103094000Y-54400000D03*
%TO.P,C2,1*%
%TO.N,Net-(U1-SS{slash}TR)*%
X103094000Y-53440000D03*
%TD*%
D21*
%TO.P,C5,2*%
%TO.N,GND*%
X110400000Y-46384000D03*
%TO.P,C5,1*%
%TO.N,LINBUS*%
X110400000Y-47344000D03*
%TD*%
D22*
%TO.P,R5,2*%
%TO.N,LINBUS*%
X110400000Y-49900000D03*
%TO.P,R5,1*%
%TO.N,Net-(D2-K)*%
X108575000Y-49900000D03*
%TD*%
D23*
%TO.P,U1,9,GND*%
%TO.N,GND*%
X104200000Y-50500000D03*
D24*
X104200000Y-51250000D03*
D23*
X104200000Y-51250000D03*
X104200000Y-52000000D03*
D25*
%TO.P,U1,8,SS/TR*%
%TO.N,Net-(U1-SS{slash}TR)*%
X103137500Y-52225000D03*
%TO.P,U1,7,PG*%
%TO.N,Net-(U1-PG)*%
X103137500Y-51575000D03*
%TO.P,U1,6,FB*%
%TO.N,Net-(U1-FB)*%
X103137500Y-50925000D03*
%TO.P,U1,5,VOUT*%
%TO.N,+3V3*%
X103137500Y-50275000D03*
%TO.P,U1,4,VOUT*%
X105262500Y-50275000D03*
%TO.P,U1,3,GND*%
%TO.N,GND*%
X105262500Y-50925000D03*
%TO.P,U1,2,VIN*%
%TO.N,+12V*%
X105262500Y-51575000D03*
%TO.P,U1,1,EN*%
X105262500Y-52225000D03*
%TD*%
D26*
%TO.P,C1,2*%
%TO.N,GND*%
X111874000Y-36279000D03*
%TO.P,C1,1*%
%TO.N,+12V*%
X111874000Y-33329000D03*
%TD*%
D27*
%TO.N,+12V*%
X106800000Y-51600000D03*
D28*
X102750000Y-41150000D03*
X102750000Y-40250000D03*
X113500000Y-33300000D03*
X110200000Y-33300000D03*
X108750000Y-45500000D03*
D27*
X106800000Y-53100000D03*
D28*
X110500000Y-54250000D03*
%TO.N,GND*%
X97676000Y-52074000D03*
X110400000Y-43800000D03*
X102078000Y-54428000D03*
X106725000Y-49750000D03*
X113398000Y-36224000D03*
X110350000Y-36224000D03*
D27*
%TO.N,+3V3*%
X101700000Y-49600000D03*
D28*
X95650000Y-54450000D03*
X97413500Y-45500000D03*
%TD*%
D29*
%TO.N,+12V*%
X105262500Y-52225000D02*
X105925000Y-52225000D01*
X105925000Y-52225000D02*
X106800000Y-53100000D01*
X105262500Y-51575000D02*
X106775000Y-51575000D01*
X106775000Y-51575000D02*
X106800000Y-51600000D01*
%TO.N,+3V3*%
X103137500Y-50275000D02*
X102375000Y-50275000D01*
X102375000Y-50275000D02*
X101700000Y-49600000D01*
%TO.N,+12V*%
X113500000Y-33300000D02*
X113471000Y-33329000D01*
X113471000Y-33329000D02*
X111874000Y-33329000D01*
X110200000Y-33300000D02*
X110229000Y-33329000D01*
X110229000Y-33329000D02*
X111874000Y-33329000D01*
%TO.N,+3V3*%
X101775000Y-45615000D02*
X97528500Y-45615000D01*
X97528500Y-45615000D02*
X97413500Y-45500000D01*
X95588032Y-51462500D02*
X95588032Y-54388032D01*
X95588032Y-54388032D02*
X95650000Y-54450000D01*
D30*
%TO.N,LINBUS*%
X106725000Y-46885000D02*
X105185000Y-46885000D01*
X105185000Y-46885000D02*
X104400000Y-46100000D01*
X104400000Y-46100000D02*
X104400000Y-36800000D01*
X104400000Y-36800000D02*
X105750000Y-35450000D01*
X105750000Y-35450000D02*
X105750000Y-33100000D01*
D29*
%TO.N,+12V*%
X100750000Y-40250000D02*
X100750000Y-40650000D01*
X100750000Y-40650000D02*
X101250000Y-41150000D01*
X101250000Y-41150000D02*
X102750000Y-41150000D01*
X100750000Y-40250000D02*
X102750000Y-40250000D01*
D30*
%TO.N,Net-(D1-A)*%
X100750000Y-33100000D02*
X100750000Y-38150000D01*
D29*
%TO.N,+3V3*%
X97537500Y-54450000D02*
X95650000Y-54450000D01*
D30*
%TO.N,Net-(U1-PG)*%
X103137500Y-51575000D02*
X102237500Y-51575000D01*
X102237500Y-51575000D02*
X99362500Y-54450000D01*
%TO.N,Net-(U1-FB)*%
X103137500Y-50925000D02*
X100925000Y-50925000D01*
X99637500Y-49637500D02*
X99200000Y-49637500D01*
X100925000Y-50925000D02*
X99637500Y-49637500D01*
X99200000Y-49637500D02*
X95588032Y-49637500D01*
%TO.N,Net-(D1-A)*%
X100800000Y-38100000D02*
X100850000Y-38150000D01*
D29*
%TO.N,+12V*%
X102650000Y-40250000D02*
X102750000Y-40350000D01*
X110580500Y-54169500D02*
X110500000Y-54250000D01*
X108750000Y-45500000D02*
X108635000Y-45615000D01*
X110580500Y-51868000D02*
X110580500Y-54169500D01*
X105262500Y-51575000D02*
X105262500Y-51600000D01*
X108635000Y-45615000D02*
X106725000Y-45615000D01*
%TO.N,GND*%
X110626000Y-36500000D02*
X110350000Y-36224000D01*
X105262500Y-50925000D02*
X105550000Y-50925000D01*
X98287500Y-51462500D02*
X97676000Y-52074000D01*
X99200000Y-51462500D02*
X98287500Y-51462500D01*
X111874000Y-36500000D02*
X110626000Y-36500000D01*
X105550000Y-50925000D02*
X106725000Y-49750000D01*
X103094000Y-54400000D02*
X102106000Y-54400000D01*
X111874000Y-36500000D02*
X113122000Y-36500000D01*
X113122000Y-36500000D02*
X113398000Y-36224000D01*
X110400000Y-43800000D02*
X110400000Y-46384000D01*
X102106000Y-54400000D02*
X102078000Y-54428000D01*
X110400000Y-43800000D02*
X110528000Y-43800000D01*
X106725000Y-49750000D02*
X106725000Y-48155000D01*
%TO.N,+3V3*%
X104587500Y-49600000D02*
X101700000Y-49600000D01*
X97413500Y-45500000D02*
X97413500Y-43511500D01*
X105262500Y-50275000D02*
X104587500Y-49600000D01*
D30*
%TO.N,LINBUS*%
X106725000Y-46885000D02*
X107107000Y-47267000D01*
X107107000Y-47267000D02*
X110416500Y-47267000D01*
X110400000Y-47344000D02*
X110400000Y-49900000D01*
D29*
X110372000Y-47172000D02*
X110400000Y-47200000D01*
D30*
%TO.N,Net-(U1-SS{slash}TR)*%
X103060000Y-53406000D02*
X103094000Y-53440000D01*
X103137500Y-52225000D02*
X103137500Y-53396500D01*
X103137500Y-53396500D02*
X103094000Y-53440000D01*
%TO.N,RXD*%
X97313500Y-41686500D02*
X97267000Y-41640000D01*
X101775000Y-44345000D02*
X100072000Y-44345000D01*
X97413500Y-41686500D02*
X97313500Y-41686500D01*
X97267000Y-41640000D02*
X92790000Y-41640000D01*
X100072000Y-44345000D02*
X97413500Y-41686500D01*
X97500000Y-41600000D02*
X97413500Y-41686500D01*
%TO.N,TXD*%
X101775000Y-48155000D02*
X100855000Y-48155000D01*
X95710000Y-47100000D02*
X92790000Y-44180000D01*
X100855000Y-48155000D02*
X99800000Y-47100000D01*
X99800000Y-47100000D02*
X95710000Y-47100000D01*
%TO.N,Net-(D2-K)*%
X108575000Y-49900000D02*
X108575000Y-49322500D01*
X108575000Y-51773500D02*
X108480500Y-51868000D01*
X108575000Y-49900000D02*
X108575000Y-51773500D01*
%TD*%
M02*
