%TF.GenerationSoftware,KiCad,Pcbnew,9.0.1+1*%
%TF.CreationDate,2025-05-19T20:13:15-04:00*%
%TF.ProjectId,lg_hvac_esp32,6c675f68-7661-4635-9f65-737033322e6b,rev?*%
%TF.SameCoordinates,Original*%
%TF.FileFunction,Soldermask,Top*%
%TF.FilePolarity,Negative*%
%FSLAX46Y46*%
G04 Gerber Fmt 4.6, Leading zero omitted, Abs format (unit mm)*
G04 Created by KiCad (PCBNEW 9.0.1+1) date 2025-05-19 20:13:15*
%MOMM*%
%LPD*%
G01*
G04 APERTURE LIST*
G04 Aperture macros list*
%AMRoundRect*
0 Rectangle with rounded corners*
0 $1 Rounding radius*
0 $2 $3 $4 $5 $6 $7 $8 $9 X,Y pos of 4 corners*
0 Add a 4 corners polygon primitive as box body*
4,1,4,$2,$3,$4,$5,$6,$7,$8,$9,$2,$3,0*
0 Add four circle primitives for the rounded corners*
1,1,$1+$1,$2,$3*
1,1,$1+$1,$4,$5*
1,1,$1+$1,$6,$7*
1,1,$1+$1,$8,$9*
0 Add four rect primitives between the rounded corners*
20,1,$1+$1,$2,$3,$4,$5,0*
20,1,$1+$1,$4,$5,$6,$7,0*
20,1,$1+$1,$6,$7,$8,$9,0*
20,1,$1+$1,$8,$9,$2,$3,0*%
G04 Aperture macros list end*
%ADD10RoundRect,0.050000X0.850000X0.850000X-0.850000X0.850000X-0.850000X-0.850000X0.850000X-0.850000X0*%
%ADD11C,1.800000*%
%ADD12RoundRect,0.050000X-0.850000X-0.850000X0.850000X-0.850000X0.850000X0.850000X-0.850000X0.850000X0*%
%ADD13C,2.800000*%
%ADD14RoundRect,0.264706X0.635294X0.760294X-0.635294X0.760294X-0.635294X-0.760294X0.635294X-0.760294X0*%
%ADD15O,1.800000X2.050000*%
%ADD16RoundRect,0.137500X0.137500X-0.212500X0.137500X0.212500X-0.137500X0.212500X-0.137500X-0.212500X0*%
%ADD17RoundRect,0.274390X0.288110X0.475610X-0.288110X0.475610X-0.288110X-0.475610X0.288110X-0.475610X0*%
%ADD18RoundRect,0.274390X-0.475610X0.288110X-0.475610X-0.288110X0.475610X-0.288110X0.475610X0.288110X0*%
%ADD19RoundRect,0.274390X0.475610X-0.288110X0.475610X0.288110X-0.475610X0.288110X-0.475610X-0.288110X0*%
%ADD20RoundRect,0.175000X-0.850000X-0.175000X0.850000X-0.175000X0.850000X0.175000X-0.850000X0.175000X0*%
%ADD21RoundRect,0.137500X-0.212500X-0.137500X0.212500X-0.137500X0.212500X0.137500X-0.212500X0.137500X0*%
%ADD22RoundRect,0.165000X-0.195000X0.165000X-0.195000X-0.165000X0.195000X-0.165000X0.195000X0.165000X0*%
%ADD23RoundRect,0.165000X0.195000X-0.165000X0.195000X0.165000X-0.195000X0.165000X-0.195000X-0.165000X0*%
%ADD24RoundRect,0.274390X-0.288110X-0.475610X0.288110X-0.475610X0.288110X0.475610X-0.288110X0.475610X0*%
%ADD25RoundRect,0.050000X0.550000X0.950000X-0.550000X0.950000X-0.550000X-0.950000X0.550000X-0.950000X0*%
%ADD26RoundRect,0.150000X0.212500X0.150000X-0.212500X0.150000X-0.212500X-0.150000X0.212500X-0.150000X0*%
%ADD27RoundRect,0.271739X-1.128261X0.353261X-1.128261X-0.353261X1.128261X-0.353261X1.128261X0.353261X0*%
G04 APERTURE END LIST*
D10*
%TO.C,J3*%
X113110000Y-69580000D03*
D11*
X113110000Y-67040000D03*
X113110000Y-64500000D03*
X113110000Y-61960000D03*
X113110000Y-59420000D03*
X113110000Y-56880000D03*
X113110000Y-54340000D03*
X113110000Y-51800000D03*
X113110000Y-49260000D03*
X113110000Y-46720000D03*
X113110000Y-44180000D03*
X113110000Y-41640000D03*
%TD*%
D12*
%TO.C,J2*%
X92790000Y-31480000D03*
D11*
X92790000Y-34020000D03*
X92790000Y-36560000D03*
X92790000Y-39100000D03*
X92790000Y-41640000D03*
X92790000Y-44180000D03*
X92790000Y-46720000D03*
X92790000Y-49260000D03*
X92790000Y-51800000D03*
X92790000Y-54340000D03*
X92790000Y-56880000D03*
X92790000Y-59420000D03*
X92790000Y-61960000D03*
X92790000Y-64500000D03*
X92790000Y-67040000D03*
X92790000Y-69580000D03*
%TD*%
D13*
%TO.C,H3*%
X94060000Y-73390000D03*
%TD*%
%TO.C,H1*%
X111840000Y-27670000D03*
%TD*%
%TO.C,H4*%
X111840000Y-73390000D03*
%TD*%
%TO.C,H2*%
X94060000Y-27670000D03*
%TD*%
D14*
%TO.C,J1*%
X105750000Y-33100000D03*
D15*
X103250000Y-33100000D03*
X100750000Y-33100000D03*
%TD*%
D16*
%TO.C,D1*%
X100750000Y-38150000D03*
X100750000Y-40250000D03*
%TD*%
D17*
%TO.C,R3*%
X97537500Y-54450000D03*
X99362500Y-54450000D03*
%TD*%
D18*
%TO.C,R1*%
X95588032Y-51462500D03*
X95588032Y-49637500D03*
%TD*%
D19*
%TO.C,R2*%
X99200000Y-49637500D03*
X99200000Y-51462500D03*
%TD*%
%TO.C,R4*%
X97413500Y-41686500D03*
X97413500Y-43511500D03*
%TD*%
D20*
%TO.C,U2*%
X106725000Y-44345000D03*
X106725000Y-45615000D03*
X106725000Y-46885000D03*
X106725000Y-48155000D03*
X101775000Y-48155000D03*
X101775000Y-46885000D03*
X101775000Y-45615000D03*
X101775000Y-44345000D03*
%TD*%
D21*
%TO.C,D2*%
X110580500Y-51868000D03*
X108480500Y-51868000D03*
%TD*%
D22*
%TO.C,C2*%
X103094000Y-54400000D03*
X103094000Y-53440000D03*
%TD*%
D23*
%TO.C,C5*%
X110400000Y-46384000D03*
X110400000Y-47344000D03*
%TD*%
D24*
%TO.C,R5*%
X110400000Y-49900000D03*
X108575000Y-49900000D03*
%TD*%
D25*
%TO.C,U1*%
X104200000Y-51250000D03*
D26*
X103137500Y-52225000D03*
X103137500Y-51575000D03*
X103137500Y-50925000D03*
X103137500Y-50275000D03*
X105262500Y-50275000D03*
X105262500Y-50925000D03*
X105262500Y-51575000D03*
X105262500Y-52225000D03*
%TD*%
D27*
%TO.C,C1*%
X111874000Y-36279000D03*
X111874000Y-33329000D03*
%TD*%
M02*
