%TF.GenerationSoftware,KiCad,Pcbnew,9.0.1+1*%
%TF.CreationDate,2025-05-19T20:13:15-04:00*%
%TF.ProjectId,lg_hvac_esp32,6c675f68-7661-4635-9f65-737033322e6b,rev?*%
%TF.SameCoordinates,Original*%
%TF.FileFunction,Legend,Top*%
%TF.FilePolarity,Positive*%
%FSLAX46Y46*%
G04 Gerber Fmt 4.6, Leading zero omitted, Abs format (unit mm)*
G04 Created by KiCad (PCBNEW 9.0.1+1) date 2025-05-19 20:13:15*
%MOMM*%
%LPD*%
G01*
G04 APERTURE LIST*
G04 Aperture macros list*
%AMRoundRect*
0 Rectangle with rounded corners*
0 $1 Rounding radius*
0 $2 $3 $4 $5 $6 $7 $8 $9 X,Y pos of 4 corners*
0 Add a 4 corners polygon primitive as box body*
4,1,4,$2,$3,$4,$5,$6,$7,$8,$9,$2,$3,0*
0 Add four circle primitives for the rounded corners*
1,1,$1+$1,$2,$3*
1,1,$1+$1,$4,$5*
1,1,$1+$1,$6,$7*
1,1,$1+$1,$8,$9*
0 Add four rect primitives between the rounded corners*
20,1,$1+$1,$2,$3,$4,$5,0*
20,1,$1+$1,$4,$5,$6,$7,0*
20,1,$1+$1,$6,$7,$8,$9,0*
20,1,$1+$1,$8,$9,$2,$3,0*%
G04 Aperture macros list end*
%ADD10C,0.200000*%
%ADD11C,0.300000*%
%ADD12C,0.150000*%
%ADD13C,0.120000*%
%ADD14C,0.100000*%
%ADD15RoundRect,0.050000X0.850000X0.850000X-0.850000X0.850000X-0.850000X-0.850000X0.850000X-0.850000X0*%
%ADD16C,1.800000*%
%ADD17RoundRect,0.050000X-0.850000X-0.850000X0.850000X-0.850000X0.850000X0.850000X-0.850000X0.850000X0*%
%ADD18C,2.800000*%
%ADD19RoundRect,0.264706X0.635294X0.760294X-0.635294X0.760294X-0.635294X-0.760294X0.635294X-0.760294X0*%
%ADD20O,1.800000X2.050000*%
%ADD21RoundRect,0.137500X0.137500X-0.212500X0.137500X0.212500X-0.137500X0.212500X-0.137500X-0.212500X0*%
%ADD22RoundRect,0.274390X0.288110X0.475610X-0.288110X0.475610X-0.288110X-0.475610X0.288110X-0.475610X0*%
%ADD23RoundRect,0.274390X-0.475610X0.288110X-0.475610X-0.288110X0.475610X-0.288110X0.475610X0.288110X0*%
%ADD24RoundRect,0.274390X0.475610X-0.288110X0.475610X0.288110X-0.475610X0.288110X-0.475610X-0.288110X0*%
%ADD25RoundRect,0.175000X-0.850000X-0.175000X0.850000X-0.175000X0.850000X0.175000X-0.850000X0.175000X0*%
%ADD26RoundRect,0.137500X-0.212500X-0.137500X0.212500X-0.137500X0.212500X0.137500X-0.212500X0.137500X0*%
%ADD27RoundRect,0.165000X-0.195000X0.165000X-0.195000X-0.165000X0.195000X-0.165000X0.195000X0.165000X0*%
%ADD28RoundRect,0.165000X0.195000X-0.165000X0.195000X0.165000X-0.195000X0.165000X-0.195000X-0.165000X0*%
%ADD29RoundRect,0.274390X-0.288110X-0.475610X0.288110X-0.475610X0.288110X0.475610X-0.288110X0.475610X0*%
%ADD30RoundRect,0.050000X0.550000X0.950000X-0.550000X0.950000X-0.550000X-0.950000X0.550000X-0.950000X0*%
%ADD31RoundRect,0.150000X0.212500X0.150000X-0.212500X0.150000X-0.212500X-0.150000X0.212500X-0.150000X0*%
%ADD32RoundRect,0.271739X-1.128261X0.353261X-1.128261X-0.353261X1.128261X-0.353261X1.128261X0.353261X0*%
G04 APERTURE END LIST*
D10*
X100382780Y-35493482D02*
X100382780Y-34922054D01*
X100382780Y-35207768D02*
X101382780Y-35207768D01*
X101382780Y-35207768D02*
X101239923Y-35112530D01*
X101239923Y-35112530D02*
X101144685Y-35017292D01*
X101144685Y-35017292D02*
X101097066Y-34922054D01*
X101287542Y-35874435D02*
X101335161Y-35922054D01*
X101335161Y-35922054D02*
X101382780Y-36017292D01*
X101382780Y-36017292D02*
X101382780Y-36255387D01*
X101382780Y-36255387D02*
X101335161Y-36350625D01*
X101335161Y-36350625D02*
X101287542Y-36398244D01*
X101287542Y-36398244D02*
X101192304Y-36445863D01*
X101192304Y-36445863D02*
X101097066Y-36445863D01*
X101097066Y-36445863D02*
X100954209Y-36398244D01*
X100954209Y-36398244D02*
X100382780Y-35826816D01*
X100382780Y-35826816D02*
X100382780Y-36445863D01*
X101382780Y-36731578D02*
X100382780Y-37064911D01*
X100382780Y-37064911D02*
X101382780Y-37398244D01*
X103785161Y-35493482D02*
X103832780Y-35398244D01*
X103832780Y-35398244D02*
X103832780Y-35255387D01*
X103832780Y-35255387D02*
X103785161Y-35112530D01*
X103785161Y-35112530D02*
X103689923Y-35017292D01*
X103689923Y-35017292D02*
X103594685Y-34969673D01*
X103594685Y-34969673D02*
X103404209Y-34922054D01*
X103404209Y-34922054D02*
X103261352Y-34922054D01*
X103261352Y-34922054D02*
X103070876Y-34969673D01*
X103070876Y-34969673D02*
X102975638Y-35017292D01*
X102975638Y-35017292D02*
X102880400Y-35112530D01*
X102880400Y-35112530D02*
X102832780Y-35255387D01*
X102832780Y-35255387D02*
X102832780Y-35350625D01*
X102832780Y-35350625D02*
X102880400Y-35493482D01*
X102880400Y-35493482D02*
X102928019Y-35541101D01*
X102928019Y-35541101D02*
X103261352Y-35541101D01*
X103261352Y-35541101D02*
X103261352Y-35350625D01*
X102832780Y-35969673D02*
X103832780Y-35969673D01*
X103832780Y-35969673D02*
X102832780Y-36541101D01*
X102832780Y-36541101D02*
X103832780Y-36541101D01*
X102832780Y-37017292D02*
X103832780Y-37017292D01*
X103832780Y-37017292D02*
X103832780Y-37255387D01*
X103832780Y-37255387D02*
X103785161Y-37398244D01*
X103785161Y-37398244D02*
X103689923Y-37493482D01*
X103689923Y-37493482D02*
X103594685Y-37541101D01*
X103594685Y-37541101D02*
X103404209Y-37588720D01*
X103404209Y-37588720D02*
X103261352Y-37588720D01*
X103261352Y-37588720D02*
X103070876Y-37541101D01*
X103070876Y-37541101D02*
X102975638Y-37493482D01*
X102975638Y-37493482D02*
X102880400Y-37398244D01*
X102880400Y-37398244D02*
X102832780Y-37255387D01*
X102832780Y-37255387D02*
X102832780Y-37017292D01*
X105680400Y-35322054D02*
X105632780Y-35417292D01*
X105632780Y-35417292D02*
X105632780Y-35607768D01*
X105632780Y-35607768D02*
X105680400Y-35703006D01*
X105680400Y-35703006D02*
X105775638Y-35750625D01*
X105775638Y-35750625D02*
X105823257Y-35750625D01*
X105823257Y-35750625D02*
X105918495Y-35703006D01*
X105918495Y-35703006D02*
X105966114Y-35607768D01*
X105966114Y-35607768D02*
X105966114Y-35464911D01*
X105966114Y-35464911D02*
X106013733Y-35369673D01*
X106013733Y-35369673D02*
X106108971Y-35322054D01*
X106108971Y-35322054D02*
X106156590Y-35322054D01*
X106156590Y-35322054D02*
X106251828Y-35369673D01*
X106251828Y-35369673D02*
X106299447Y-35464911D01*
X106299447Y-35464911D02*
X106299447Y-35607768D01*
X106299447Y-35607768D02*
X106251828Y-35703006D01*
X105632780Y-36179197D02*
X106299447Y-36179197D01*
X106632780Y-36179197D02*
X106585161Y-36131578D01*
X106585161Y-36131578D02*
X106537542Y-36179197D01*
X106537542Y-36179197D02*
X106585161Y-36226816D01*
X106585161Y-36226816D02*
X106632780Y-36179197D01*
X106632780Y-36179197D02*
X106537542Y-36179197D01*
X106299447Y-37083958D02*
X105489923Y-37083958D01*
X105489923Y-37083958D02*
X105394685Y-37036339D01*
X105394685Y-37036339D02*
X105347066Y-36988720D01*
X105347066Y-36988720D02*
X105299447Y-36893482D01*
X105299447Y-36893482D02*
X105299447Y-36750625D01*
X105299447Y-36750625D02*
X105347066Y-36655387D01*
X105680400Y-37083958D02*
X105632780Y-36988720D01*
X105632780Y-36988720D02*
X105632780Y-36798244D01*
X105632780Y-36798244D02*
X105680400Y-36703006D01*
X105680400Y-36703006D02*
X105728019Y-36655387D01*
X105728019Y-36655387D02*
X105823257Y-36607768D01*
X105823257Y-36607768D02*
X106108971Y-36607768D01*
X106108971Y-36607768D02*
X106204209Y-36655387D01*
X106204209Y-36655387D02*
X106251828Y-36703006D01*
X106251828Y-36703006D02*
X106299447Y-36798244D01*
X106299447Y-36798244D02*
X106299447Y-36988720D01*
X106299447Y-36988720D02*
X106251828Y-37083958D01*
X106299447Y-37560149D02*
X105632780Y-37560149D01*
X106204209Y-37560149D02*
X106251828Y-37607768D01*
X106251828Y-37607768D02*
X106299447Y-37703006D01*
X106299447Y-37703006D02*
X106299447Y-37845863D01*
X106299447Y-37845863D02*
X106251828Y-37941101D01*
X106251828Y-37941101D02*
X106156590Y-37988720D01*
X106156590Y-37988720D02*
X105632780Y-37988720D01*
X105632780Y-38893482D02*
X106156590Y-38893482D01*
X106156590Y-38893482D02*
X106251828Y-38845863D01*
X106251828Y-38845863D02*
X106299447Y-38750625D01*
X106299447Y-38750625D02*
X106299447Y-38560149D01*
X106299447Y-38560149D02*
X106251828Y-38464911D01*
X105680400Y-38893482D02*
X105632780Y-38798244D01*
X105632780Y-38798244D02*
X105632780Y-38560149D01*
X105632780Y-38560149D02*
X105680400Y-38464911D01*
X105680400Y-38464911D02*
X105775638Y-38417292D01*
X105775638Y-38417292D02*
X105870876Y-38417292D01*
X105870876Y-38417292D02*
X105966114Y-38464911D01*
X105966114Y-38464911D02*
X106013733Y-38560149D01*
X106013733Y-38560149D02*
X106013733Y-38798244D01*
X106013733Y-38798244D02*
X106061352Y-38893482D01*
X105632780Y-39512530D02*
X105680400Y-39417292D01*
X105680400Y-39417292D02*
X105775638Y-39369673D01*
X105775638Y-39369673D02*
X106632780Y-39369673D01*
X50495238Y-78794933D02*
X51104762Y-78794933D01*
X50800000Y-79099695D02*
X50800000Y-78490171D01*
D11*
X51815999Y-68099471D02*
X51887428Y-68170900D01*
X51887428Y-68170900D02*
X51815999Y-68242328D01*
X51815999Y-68242328D02*
X51744571Y-68170900D01*
X51744571Y-68170900D02*
X51815999Y-68099471D01*
X51815999Y-68099471D02*
X51815999Y-68242328D01*
D10*
X43383238Y-67618933D02*
X43992762Y-67618933D01*
X43688000Y-67923695D02*
X43688000Y-67314171D01*
D12*
X99688095Y-79314819D02*
X99783333Y-79314819D01*
X99783333Y-79314819D02*
X99878571Y-79362438D01*
X99878571Y-79362438D02*
X99926190Y-79410057D01*
X99926190Y-79410057D02*
X99973809Y-79505295D01*
X99973809Y-79505295D02*
X100021428Y-79695771D01*
X100021428Y-79695771D02*
X100021428Y-79933866D01*
X100021428Y-79933866D02*
X99973809Y-80124342D01*
X99973809Y-80124342D02*
X99926190Y-80219580D01*
X99926190Y-80219580D02*
X99878571Y-80267200D01*
X99878571Y-80267200D02*
X99783333Y-80314819D01*
X99783333Y-80314819D02*
X99688095Y-80314819D01*
X99688095Y-80314819D02*
X99592857Y-80267200D01*
X99592857Y-80267200D02*
X99545238Y-80219580D01*
X99545238Y-80219580D02*
X99497619Y-80124342D01*
X99497619Y-80124342D02*
X99450000Y-79933866D01*
X99450000Y-79933866D02*
X99450000Y-79695771D01*
X99450000Y-79695771D02*
X99497619Y-79505295D01*
X99497619Y-79505295D02*
X99545238Y-79410057D01*
X99545238Y-79410057D02*
X99592857Y-79362438D01*
X99592857Y-79362438D02*
X99688095Y-79314819D01*
X100450000Y-80219580D02*
X100497619Y-80267200D01*
X100497619Y-80267200D02*
X100450000Y-80314819D01*
X100450000Y-80314819D02*
X100402381Y-80267200D01*
X100402381Y-80267200D02*
X100450000Y-80219580D01*
X100450000Y-80219580D02*
X100450000Y-80314819D01*
X100973809Y-80314819D02*
X101164285Y-80314819D01*
X101164285Y-80314819D02*
X101259523Y-80267200D01*
X101259523Y-80267200D02*
X101307142Y-80219580D01*
X101307142Y-80219580D02*
X101402380Y-80076723D01*
X101402380Y-80076723D02*
X101449999Y-79886247D01*
X101449999Y-79886247D02*
X101449999Y-79505295D01*
X101449999Y-79505295D02*
X101402380Y-79410057D01*
X101402380Y-79410057D02*
X101354761Y-79362438D01*
X101354761Y-79362438D02*
X101259523Y-79314819D01*
X101259523Y-79314819D02*
X101069047Y-79314819D01*
X101069047Y-79314819D02*
X100973809Y-79362438D01*
X100973809Y-79362438D02*
X100926190Y-79410057D01*
X100926190Y-79410057D02*
X100878571Y-79505295D01*
X100878571Y-79505295D02*
X100878571Y-79743390D01*
X100878571Y-79743390D02*
X100926190Y-79838628D01*
X100926190Y-79838628D02*
X100973809Y-79886247D01*
X100973809Y-79886247D02*
X101069047Y-79933866D01*
X101069047Y-79933866D02*
X101259523Y-79933866D01*
X101259523Y-79933866D02*
X101354761Y-79886247D01*
X101354761Y-79886247D02*
X101402380Y-79838628D01*
X101402380Y-79838628D02*
X101449999Y-79743390D01*
X102069047Y-79314819D02*
X102164285Y-79314819D01*
X102164285Y-79314819D02*
X102259523Y-79362438D01*
X102259523Y-79362438D02*
X102307142Y-79410057D01*
X102307142Y-79410057D02*
X102354761Y-79505295D01*
X102354761Y-79505295D02*
X102402380Y-79695771D01*
X102402380Y-79695771D02*
X102402380Y-79933866D01*
X102402380Y-79933866D02*
X102354761Y-80124342D01*
X102354761Y-80124342D02*
X102307142Y-80219580D01*
X102307142Y-80219580D02*
X102259523Y-80267200D01*
X102259523Y-80267200D02*
X102164285Y-80314819D01*
X102164285Y-80314819D02*
X102069047Y-80314819D01*
X102069047Y-80314819D02*
X101973809Y-80267200D01*
X101973809Y-80267200D02*
X101926190Y-80219580D01*
X101926190Y-80219580D02*
X101878571Y-80124342D01*
X101878571Y-80124342D02*
X101830952Y-79933866D01*
X101830952Y-79933866D02*
X101830952Y-79695771D01*
X101830952Y-79695771D02*
X101878571Y-79505295D01*
X101878571Y-79505295D02*
X101926190Y-79410057D01*
X101926190Y-79410057D02*
X101973809Y-79362438D01*
X101973809Y-79362438D02*
X102069047Y-79314819D01*
X103021428Y-79314819D02*
X103116666Y-79314819D01*
X103116666Y-79314819D02*
X103211904Y-79362438D01*
X103211904Y-79362438D02*
X103259523Y-79410057D01*
X103259523Y-79410057D02*
X103307142Y-79505295D01*
X103307142Y-79505295D02*
X103354761Y-79695771D01*
X103354761Y-79695771D02*
X103354761Y-79933866D01*
X103354761Y-79933866D02*
X103307142Y-80124342D01*
X103307142Y-80124342D02*
X103259523Y-80219580D01*
X103259523Y-80219580D02*
X103211904Y-80267200D01*
X103211904Y-80267200D02*
X103116666Y-80314819D01*
X103116666Y-80314819D02*
X103021428Y-80314819D01*
X103021428Y-80314819D02*
X102926190Y-80267200D01*
X102926190Y-80267200D02*
X102878571Y-80219580D01*
X102878571Y-80219580D02*
X102830952Y-80124342D01*
X102830952Y-80124342D02*
X102783333Y-79933866D01*
X102783333Y-79933866D02*
X102783333Y-79695771D01*
X102783333Y-79695771D02*
X102830952Y-79505295D01*
X102830952Y-79505295D02*
X102878571Y-79410057D01*
X102878571Y-79410057D02*
X102926190Y-79362438D01*
X102926190Y-79362438D02*
X103021428Y-79314819D01*
X103973809Y-79314819D02*
X104069047Y-79314819D01*
X104069047Y-79314819D02*
X104164285Y-79362438D01*
X104164285Y-79362438D02*
X104211904Y-79410057D01*
X104211904Y-79410057D02*
X104259523Y-79505295D01*
X104259523Y-79505295D02*
X104307142Y-79695771D01*
X104307142Y-79695771D02*
X104307142Y-79933866D01*
X104307142Y-79933866D02*
X104259523Y-80124342D01*
X104259523Y-80124342D02*
X104211904Y-80219580D01*
X104211904Y-80219580D02*
X104164285Y-80267200D01*
X104164285Y-80267200D02*
X104069047Y-80314819D01*
X104069047Y-80314819D02*
X103973809Y-80314819D01*
X103973809Y-80314819D02*
X103878571Y-80267200D01*
X103878571Y-80267200D02*
X103830952Y-80219580D01*
X103830952Y-80219580D02*
X103783333Y-80124342D01*
X103783333Y-80124342D02*
X103735714Y-79933866D01*
X103735714Y-79933866D02*
X103735714Y-79695771D01*
X103735714Y-79695771D02*
X103783333Y-79505295D01*
X103783333Y-79505295D02*
X103830952Y-79410057D01*
X103830952Y-79410057D02*
X103878571Y-79362438D01*
X103878571Y-79362438D02*
X103973809Y-79314819D01*
X105497619Y-80314819D02*
X105497619Y-79648152D01*
X105497619Y-79314819D02*
X105450000Y-79362438D01*
X105450000Y-79362438D02*
X105497619Y-79410057D01*
X105497619Y-79410057D02*
X105545238Y-79362438D01*
X105545238Y-79362438D02*
X105497619Y-79314819D01*
X105497619Y-79314819D02*
X105497619Y-79410057D01*
X105973809Y-79648152D02*
X105973809Y-80314819D01*
X105973809Y-79743390D02*
X106021428Y-79695771D01*
X106021428Y-79695771D02*
X106116666Y-79648152D01*
X106116666Y-79648152D02*
X106259523Y-79648152D01*
X106259523Y-79648152D02*
X106354761Y-79695771D01*
X106354761Y-79695771D02*
X106402380Y-79791009D01*
X106402380Y-79791009D02*
X106402380Y-80314819D01*
D13*
X91520000Y-75930000D02*
X91520000Y-81596420D01*
X114380000Y-75930000D02*
X114380000Y-81596420D01*
X91520000Y-81010000D02*
X114380000Y-81010000D01*
X91520000Y-81010000D02*
X92646504Y-80423579D01*
X91520000Y-81010000D02*
X92646504Y-81596421D01*
X114380000Y-81010000D02*
X113253496Y-81596421D01*
X114380000Y-81010000D02*
X113253496Y-80423579D01*
D12*
X115320057Y-54029999D02*
X115272438Y-53982380D01*
X115272438Y-53982380D02*
X115224819Y-53887142D01*
X115224819Y-53887142D02*
X115224819Y-53649047D01*
X115224819Y-53649047D02*
X115272438Y-53553809D01*
X115272438Y-53553809D02*
X115320057Y-53506190D01*
X115320057Y-53506190D02*
X115415295Y-53458571D01*
X115415295Y-53458571D02*
X115510533Y-53458571D01*
X115510533Y-53458571D02*
X115653390Y-53506190D01*
X115653390Y-53506190D02*
X116224819Y-54077618D01*
X116224819Y-54077618D02*
X116224819Y-53458571D01*
X116129580Y-53029999D02*
X116177200Y-52982380D01*
X116177200Y-52982380D02*
X116224819Y-53029999D01*
X116224819Y-53029999D02*
X116177200Y-53077618D01*
X116177200Y-53077618D02*
X116129580Y-53029999D01*
X116129580Y-53029999D02*
X116224819Y-53029999D01*
X115224819Y-52363333D02*
X115224819Y-52268095D01*
X115224819Y-52268095D02*
X115272438Y-52172857D01*
X115272438Y-52172857D02*
X115320057Y-52125238D01*
X115320057Y-52125238D02*
X115415295Y-52077619D01*
X115415295Y-52077619D02*
X115605771Y-52030000D01*
X115605771Y-52030000D02*
X115843866Y-52030000D01*
X115843866Y-52030000D02*
X116034342Y-52077619D01*
X116034342Y-52077619D02*
X116129580Y-52125238D01*
X116129580Y-52125238D02*
X116177200Y-52172857D01*
X116177200Y-52172857D02*
X116224819Y-52268095D01*
X116224819Y-52268095D02*
X116224819Y-52363333D01*
X116224819Y-52363333D02*
X116177200Y-52458571D01*
X116177200Y-52458571D02*
X116129580Y-52506190D01*
X116129580Y-52506190D02*
X116034342Y-52553809D01*
X116034342Y-52553809D02*
X115843866Y-52601428D01*
X115843866Y-52601428D02*
X115605771Y-52601428D01*
X115605771Y-52601428D02*
X115415295Y-52553809D01*
X115415295Y-52553809D02*
X115320057Y-52506190D01*
X115320057Y-52506190D02*
X115272438Y-52458571D01*
X115272438Y-52458571D02*
X115224819Y-52363333D01*
X115224819Y-51410952D02*
X115224819Y-51315714D01*
X115224819Y-51315714D02*
X115272438Y-51220476D01*
X115272438Y-51220476D02*
X115320057Y-51172857D01*
X115320057Y-51172857D02*
X115415295Y-51125238D01*
X115415295Y-51125238D02*
X115605771Y-51077619D01*
X115605771Y-51077619D02*
X115843866Y-51077619D01*
X115843866Y-51077619D02*
X116034342Y-51125238D01*
X116034342Y-51125238D02*
X116129580Y-51172857D01*
X116129580Y-51172857D02*
X116177200Y-51220476D01*
X116177200Y-51220476D02*
X116224819Y-51315714D01*
X116224819Y-51315714D02*
X116224819Y-51410952D01*
X116224819Y-51410952D02*
X116177200Y-51506190D01*
X116177200Y-51506190D02*
X116129580Y-51553809D01*
X116129580Y-51553809D02*
X116034342Y-51601428D01*
X116034342Y-51601428D02*
X115843866Y-51649047D01*
X115843866Y-51649047D02*
X115605771Y-51649047D01*
X115605771Y-51649047D02*
X115415295Y-51601428D01*
X115415295Y-51601428D02*
X115320057Y-51553809D01*
X115320057Y-51553809D02*
X115272438Y-51506190D01*
X115272438Y-51506190D02*
X115224819Y-51410952D01*
X115224819Y-50458571D02*
X115224819Y-50363333D01*
X115224819Y-50363333D02*
X115272438Y-50268095D01*
X115272438Y-50268095D02*
X115320057Y-50220476D01*
X115320057Y-50220476D02*
X115415295Y-50172857D01*
X115415295Y-50172857D02*
X115605771Y-50125238D01*
X115605771Y-50125238D02*
X115843866Y-50125238D01*
X115843866Y-50125238D02*
X116034342Y-50172857D01*
X116034342Y-50172857D02*
X116129580Y-50220476D01*
X116129580Y-50220476D02*
X116177200Y-50268095D01*
X116177200Y-50268095D02*
X116224819Y-50363333D01*
X116224819Y-50363333D02*
X116224819Y-50458571D01*
X116224819Y-50458571D02*
X116177200Y-50553809D01*
X116177200Y-50553809D02*
X116129580Y-50601428D01*
X116129580Y-50601428D02*
X116034342Y-50649047D01*
X116034342Y-50649047D02*
X115843866Y-50696666D01*
X115843866Y-50696666D02*
X115605771Y-50696666D01*
X115605771Y-50696666D02*
X115415295Y-50649047D01*
X115415295Y-50649047D02*
X115320057Y-50601428D01*
X115320057Y-50601428D02*
X115272438Y-50553809D01*
X115272438Y-50553809D02*
X115224819Y-50458571D01*
X115224819Y-49506190D02*
X115224819Y-49410952D01*
X115224819Y-49410952D02*
X115272438Y-49315714D01*
X115272438Y-49315714D02*
X115320057Y-49268095D01*
X115320057Y-49268095D02*
X115415295Y-49220476D01*
X115415295Y-49220476D02*
X115605771Y-49172857D01*
X115605771Y-49172857D02*
X115843866Y-49172857D01*
X115843866Y-49172857D02*
X116034342Y-49220476D01*
X116034342Y-49220476D02*
X116129580Y-49268095D01*
X116129580Y-49268095D02*
X116177200Y-49315714D01*
X116177200Y-49315714D02*
X116224819Y-49410952D01*
X116224819Y-49410952D02*
X116224819Y-49506190D01*
X116224819Y-49506190D02*
X116177200Y-49601428D01*
X116177200Y-49601428D02*
X116129580Y-49649047D01*
X116129580Y-49649047D02*
X116034342Y-49696666D01*
X116034342Y-49696666D02*
X115843866Y-49744285D01*
X115843866Y-49744285D02*
X115605771Y-49744285D01*
X115605771Y-49744285D02*
X115415295Y-49696666D01*
X115415295Y-49696666D02*
X115320057Y-49649047D01*
X115320057Y-49649047D02*
X115272438Y-49601428D01*
X115272438Y-49601428D02*
X115224819Y-49506190D01*
X116224819Y-47982380D02*
X115558152Y-47982380D01*
X115224819Y-47982380D02*
X115272438Y-48029999D01*
X115272438Y-48029999D02*
X115320057Y-47982380D01*
X115320057Y-47982380D02*
X115272438Y-47934761D01*
X115272438Y-47934761D02*
X115224819Y-47982380D01*
X115224819Y-47982380D02*
X115320057Y-47982380D01*
X115558152Y-47506190D02*
X116224819Y-47506190D01*
X115653390Y-47506190D02*
X115605771Y-47458571D01*
X115605771Y-47458571D02*
X115558152Y-47363333D01*
X115558152Y-47363333D02*
X115558152Y-47220476D01*
X115558152Y-47220476D02*
X115605771Y-47125238D01*
X115605771Y-47125238D02*
X115701009Y-47077619D01*
X115701009Y-47077619D02*
X116224819Y-47077619D01*
D13*
X114380000Y-75930000D02*
X117506420Y-75930000D01*
X114380000Y-25130000D02*
X117506420Y-25130000D01*
X116920000Y-75930000D02*
X116920000Y-25130000D01*
X116920000Y-75930000D02*
X116333579Y-74803496D01*
X116920000Y-75930000D02*
X117506421Y-74803496D01*
X116920000Y-25130000D02*
X117506421Y-26256504D01*
X116920000Y-25130000D02*
X116333579Y-26256504D01*
D12*
X112776666Y-71804819D02*
X112776666Y-72519104D01*
X112776666Y-72519104D02*
X112729047Y-72661961D01*
X112729047Y-72661961D02*
X112633809Y-72757200D01*
X112633809Y-72757200D02*
X112490952Y-72804819D01*
X112490952Y-72804819D02*
X112395714Y-72804819D01*
X113157619Y-71804819D02*
X113776666Y-71804819D01*
X113776666Y-71804819D02*
X113443333Y-72185771D01*
X113443333Y-72185771D02*
X113586190Y-72185771D01*
X113586190Y-72185771D02*
X113681428Y-72233390D01*
X113681428Y-72233390D02*
X113729047Y-72281009D01*
X113729047Y-72281009D02*
X113776666Y-72376247D01*
X113776666Y-72376247D02*
X113776666Y-72614342D01*
X113776666Y-72614342D02*
X113729047Y-72709580D01*
X113729047Y-72709580D02*
X113681428Y-72757200D01*
X113681428Y-72757200D02*
X113586190Y-72804819D01*
X113586190Y-72804819D02*
X113300476Y-72804819D01*
X113300476Y-72804819D02*
X113205238Y-72757200D01*
X113205238Y-72757200D02*
X113157619Y-72709580D01*
X92456666Y-28164819D02*
X92456666Y-28879104D01*
X92456666Y-28879104D02*
X92409047Y-29021961D01*
X92409047Y-29021961D02*
X92313809Y-29117200D01*
X92313809Y-29117200D02*
X92170952Y-29164819D01*
X92170952Y-29164819D02*
X92075714Y-29164819D01*
X92885238Y-28260057D02*
X92932857Y-28212438D01*
X92932857Y-28212438D02*
X93028095Y-28164819D01*
X93028095Y-28164819D02*
X93266190Y-28164819D01*
X93266190Y-28164819D02*
X93361428Y-28212438D01*
X93361428Y-28212438D02*
X93409047Y-28260057D01*
X93409047Y-28260057D02*
X93456666Y-28355295D01*
X93456666Y-28355295D02*
X93456666Y-28450533D01*
X93456666Y-28450533D02*
X93409047Y-28593390D01*
X93409047Y-28593390D02*
X92837619Y-29164819D01*
X92837619Y-29164819D02*
X93456666Y-29164819D01*
X90704819Y-74151904D02*
X89704819Y-74151904D01*
X90181009Y-74151904D02*
X90181009Y-73580476D01*
X90704819Y-73580476D02*
X89704819Y-73580476D01*
X89704819Y-73199523D02*
X89704819Y-72580476D01*
X89704819Y-72580476D02*
X90085771Y-72913809D01*
X90085771Y-72913809D02*
X90085771Y-72770952D01*
X90085771Y-72770952D02*
X90133390Y-72675714D01*
X90133390Y-72675714D02*
X90181009Y-72628095D01*
X90181009Y-72628095D02*
X90276247Y-72580476D01*
X90276247Y-72580476D02*
X90514342Y-72580476D01*
X90514342Y-72580476D02*
X90609580Y-72628095D01*
X90609580Y-72628095D02*
X90657200Y-72675714D01*
X90657200Y-72675714D02*
X90704819Y-72770952D01*
X90704819Y-72770952D02*
X90704819Y-73056666D01*
X90704819Y-73056666D02*
X90657200Y-73151904D01*
X90657200Y-73151904D02*
X90609580Y-73199523D01*
X115994819Y-28431904D02*
X114994819Y-28431904D01*
X115471009Y-28431904D02*
X115471009Y-27860476D01*
X115994819Y-27860476D02*
X114994819Y-27860476D01*
X115994819Y-26860476D02*
X115994819Y-27431904D01*
X115994819Y-27146190D02*
X114994819Y-27146190D01*
X114994819Y-27146190D02*
X115137676Y-27241428D01*
X115137676Y-27241428D02*
X115232914Y-27336666D01*
X115232914Y-27336666D02*
X115280533Y-27431904D01*
X115994819Y-74151904D02*
X114994819Y-74151904D01*
X115471009Y-74151904D02*
X115471009Y-73580476D01*
X115994819Y-73580476D02*
X114994819Y-73580476D01*
X115328152Y-72675714D02*
X115994819Y-72675714D01*
X114947200Y-72913809D02*
X115661485Y-73151904D01*
X115661485Y-73151904D02*
X115661485Y-72532857D01*
X90704819Y-28431904D02*
X89704819Y-28431904D01*
X90181009Y-28431904D02*
X90181009Y-27860476D01*
X90704819Y-27860476D02*
X89704819Y-27860476D01*
X89800057Y-27431904D02*
X89752438Y-27384285D01*
X89752438Y-27384285D02*
X89704819Y-27289047D01*
X89704819Y-27289047D02*
X89704819Y-27050952D01*
X89704819Y-27050952D02*
X89752438Y-26955714D01*
X89752438Y-26955714D02*
X89800057Y-26908095D01*
X89800057Y-26908095D02*
X89895295Y-26860476D01*
X89895295Y-26860476D02*
X89990533Y-26860476D01*
X89990533Y-26860476D02*
X90133390Y-26908095D01*
X90133390Y-26908095D02*
X90704819Y-27479523D01*
X90704819Y-27479523D02*
X90704819Y-26860476D01*
X96312666Y-32736819D02*
X96312666Y-33451104D01*
X96312666Y-33451104D02*
X96265047Y-33593961D01*
X96265047Y-33593961D02*
X96169809Y-33689200D01*
X96169809Y-33689200D02*
X96026952Y-33736819D01*
X96026952Y-33736819D02*
X95931714Y-33736819D01*
X97312666Y-33736819D02*
X96741238Y-33736819D01*
X97026952Y-33736819D02*
X97026952Y-32736819D01*
X97026952Y-32736819D02*
X96931714Y-32879676D01*
X96931714Y-32879676D02*
X96836476Y-32974914D01*
X96836476Y-32974914D02*
X96741238Y-33022533D01*
X100011905Y-42194819D02*
X100011905Y-41194819D01*
X100011905Y-41194819D02*
X100250000Y-41194819D01*
X100250000Y-41194819D02*
X100392857Y-41242438D01*
X100392857Y-41242438D02*
X100488095Y-41337676D01*
X100488095Y-41337676D02*
X100535714Y-41432914D01*
X100535714Y-41432914D02*
X100583333Y-41623390D01*
X100583333Y-41623390D02*
X100583333Y-41766247D01*
X100583333Y-41766247D02*
X100535714Y-41956723D01*
X100535714Y-41956723D02*
X100488095Y-42051961D01*
X100488095Y-42051961D02*
X100392857Y-42147200D01*
X100392857Y-42147200D02*
X100250000Y-42194819D01*
X100250000Y-42194819D02*
X100011905Y-42194819D01*
X101535714Y-42194819D02*
X100964286Y-42194819D01*
X101250000Y-42194819D02*
X101250000Y-41194819D01*
X101250000Y-41194819D02*
X101154762Y-41337676D01*
X101154762Y-41337676D02*
X101059524Y-41432914D01*
X101059524Y-41432914D02*
X100964286Y-41480533D01*
X96468319Y-54616666D02*
X95992128Y-54949999D01*
X96468319Y-55188094D02*
X95468319Y-55188094D01*
X95468319Y-55188094D02*
X95468319Y-54807142D01*
X95468319Y-54807142D02*
X95515938Y-54711904D01*
X95515938Y-54711904D02*
X95563557Y-54664285D01*
X95563557Y-54664285D02*
X95658795Y-54616666D01*
X95658795Y-54616666D02*
X95801652Y-54616666D01*
X95801652Y-54616666D02*
X95896890Y-54664285D01*
X95896890Y-54664285D02*
X95944509Y-54711904D01*
X95944509Y-54711904D02*
X95992128Y-54807142D01*
X95992128Y-54807142D02*
X95992128Y-55188094D01*
X95468319Y-54283332D02*
X95468319Y-53664285D01*
X95468319Y-53664285D02*
X95849271Y-53997618D01*
X95849271Y-53997618D02*
X95849271Y-53854761D01*
X95849271Y-53854761D02*
X95896890Y-53759523D01*
X95896890Y-53759523D02*
X95944509Y-53711904D01*
X95944509Y-53711904D02*
X96039747Y-53664285D01*
X96039747Y-53664285D02*
X96277842Y-53664285D01*
X96277842Y-53664285D02*
X96373080Y-53711904D01*
X96373080Y-53711904D02*
X96420700Y-53759523D01*
X96420700Y-53759523D02*
X96468319Y-53854761D01*
X96468319Y-53854761D02*
X96468319Y-54140475D01*
X96468319Y-54140475D02*
X96420700Y-54235713D01*
X96420700Y-54235713D02*
X96373080Y-54283332D01*
D14*
X95354699Y-48864895D02*
X95088032Y-48483942D01*
X94897556Y-48864895D02*
X94897556Y-48064895D01*
X94897556Y-48064895D02*
X95202318Y-48064895D01*
X95202318Y-48064895D02*
X95278508Y-48102990D01*
X95278508Y-48102990D02*
X95316603Y-48141085D01*
X95316603Y-48141085D02*
X95354699Y-48217276D01*
X95354699Y-48217276D02*
X95354699Y-48331561D01*
X95354699Y-48331561D02*
X95316603Y-48407752D01*
X95316603Y-48407752D02*
X95278508Y-48445847D01*
X95278508Y-48445847D02*
X95202318Y-48483942D01*
X95202318Y-48483942D02*
X94897556Y-48483942D01*
X96116603Y-48864895D02*
X95659460Y-48864895D01*
X95888032Y-48864895D02*
X95888032Y-48064895D01*
X95888032Y-48064895D02*
X95811841Y-48179180D01*
X95811841Y-48179180D02*
X95735651Y-48255371D01*
X95735651Y-48255371D02*
X95659460Y-48293466D01*
D12*
X98004819Y-50716666D02*
X97528628Y-51049999D01*
X98004819Y-51288094D02*
X97004819Y-51288094D01*
X97004819Y-51288094D02*
X97004819Y-50907142D01*
X97004819Y-50907142D02*
X97052438Y-50811904D01*
X97052438Y-50811904D02*
X97100057Y-50764285D01*
X97100057Y-50764285D02*
X97195295Y-50716666D01*
X97195295Y-50716666D02*
X97338152Y-50716666D01*
X97338152Y-50716666D02*
X97433390Y-50764285D01*
X97433390Y-50764285D02*
X97481009Y-50811904D01*
X97481009Y-50811904D02*
X97528628Y-50907142D01*
X97528628Y-50907142D02*
X97528628Y-51288094D01*
X97100057Y-50335713D02*
X97052438Y-50288094D01*
X97052438Y-50288094D02*
X97004819Y-50192856D01*
X97004819Y-50192856D02*
X97004819Y-49954761D01*
X97004819Y-49954761D02*
X97052438Y-49859523D01*
X97052438Y-49859523D02*
X97100057Y-49811904D01*
X97100057Y-49811904D02*
X97195295Y-49764285D01*
X97195295Y-49764285D02*
X97290533Y-49764285D01*
X97290533Y-49764285D02*
X97433390Y-49811904D01*
X97433390Y-49811904D02*
X98004819Y-50383332D01*
X98004819Y-50383332D02*
X98004819Y-49764285D01*
X96218319Y-42765666D02*
X95742128Y-43098999D01*
X96218319Y-43337094D02*
X95218319Y-43337094D01*
X95218319Y-43337094D02*
X95218319Y-42956142D01*
X95218319Y-42956142D02*
X95265938Y-42860904D01*
X95265938Y-42860904D02*
X95313557Y-42813285D01*
X95313557Y-42813285D02*
X95408795Y-42765666D01*
X95408795Y-42765666D02*
X95551652Y-42765666D01*
X95551652Y-42765666D02*
X95646890Y-42813285D01*
X95646890Y-42813285D02*
X95694509Y-42860904D01*
X95694509Y-42860904D02*
X95742128Y-42956142D01*
X95742128Y-42956142D02*
X95742128Y-43337094D01*
X95551652Y-41908523D02*
X96218319Y-41908523D01*
X95170700Y-42146618D02*
X95884985Y-42384713D01*
X95884985Y-42384713D02*
X95884985Y-41765666D01*
X103488095Y-42304819D02*
X103488095Y-43114342D01*
X103488095Y-43114342D02*
X103535714Y-43209580D01*
X103535714Y-43209580D02*
X103583333Y-43257200D01*
X103583333Y-43257200D02*
X103678571Y-43304819D01*
X103678571Y-43304819D02*
X103869047Y-43304819D01*
X103869047Y-43304819D02*
X103964285Y-43257200D01*
X103964285Y-43257200D02*
X104011904Y-43209580D01*
X104011904Y-43209580D02*
X104059523Y-43114342D01*
X104059523Y-43114342D02*
X104059523Y-42304819D01*
X104488095Y-42400057D02*
X104535714Y-42352438D01*
X104535714Y-42352438D02*
X104630952Y-42304819D01*
X104630952Y-42304819D02*
X104869047Y-42304819D01*
X104869047Y-42304819D02*
X104964285Y-42352438D01*
X104964285Y-42352438D02*
X105011904Y-42400057D01*
X105011904Y-42400057D02*
X105059523Y-42495295D01*
X105059523Y-42495295D02*
X105059523Y-42590533D01*
X105059523Y-42590533D02*
X105011904Y-42733390D01*
X105011904Y-42733390D02*
X104440476Y-43304819D01*
X104440476Y-43304819D02*
X105059523Y-43304819D01*
X109204819Y-54588094D02*
X108204819Y-54588094D01*
X108204819Y-54588094D02*
X108204819Y-54349999D01*
X108204819Y-54349999D02*
X108252438Y-54207142D01*
X108252438Y-54207142D02*
X108347676Y-54111904D01*
X108347676Y-54111904D02*
X108442914Y-54064285D01*
X108442914Y-54064285D02*
X108633390Y-54016666D01*
X108633390Y-54016666D02*
X108776247Y-54016666D01*
X108776247Y-54016666D02*
X108966723Y-54064285D01*
X108966723Y-54064285D02*
X109061961Y-54111904D01*
X109061961Y-54111904D02*
X109157200Y-54207142D01*
X109157200Y-54207142D02*
X109204819Y-54349999D01*
X109204819Y-54349999D02*
X109204819Y-54588094D01*
X108300057Y-53635713D02*
X108252438Y-53588094D01*
X108252438Y-53588094D02*
X108204819Y-53492856D01*
X108204819Y-53492856D02*
X108204819Y-53254761D01*
X108204819Y-53254761D02*
X108252438Y-53159523D01*
X108252438Y-53159523D02*
X108300057Y-53111904D01*
X108300057Y-53111904D02*
X108395295Y-53064285D01*
X108395295Y-53064285D02*
X108490533Y-53064285D01*
X108490533Y-53064285D02*
X108633390Y-53111904D01*
X108633390Y-53111904D02*
X109204819Y-53683332D01*
X109204819Y-53683332D02*
X109204819Y-53064285D01*
D14*
X104316667Y-55288704D02*
X104278571Y-55326800D01*
X104278571Y-55326800D02*
X104164286Y-55364895D01*
X104164286Y-55364895D02*
X104088095Y-55364895D01*
X104088095Y-55364895D02*
X103973809Y-55326800D01*
X103973809Y-55326800D02*
X103897619Y-55250609D01*
X103897619Y-55250609D02*
X103859524Y-55174419D01*
X103859524Y-55174419D02*
X103821428Y-55022038D01*
X103821428Y-55022038D02*
X103821428Y-54907752D01*
X103821428Y-54907752D02*
X103859524Y-54755371D01*
X103859524Y-54755371D02*
X103897619Y-54679180D01*
X103897619Y-54679180D02*
X103973809Y-54602990D01*
X103973809Y-54602990D02*
X104088095Y-54564895D01*
X104088095Y-54564895D02*
X104164286Y-54564895D01*
X104164286Y-54564895D02*
X104278571Y-54602990D01*
X104278571Y-54602990D02*
X104316667Y-54641085D01*
X104621428Y-54641085D02*
X104659524Y-54602990D01*
X104659524Y-54602990D02*
X104735714Y-54564895D01*
X104735714Y-54564895D02*
X104926190Y-54564895D01*
X104926190Y-54564895D02*
X105002381Y-54602990D01*
X105002381Y-54602990D02*
X105040476Y-54641085D01*
X105040476Y-54641085D02*
X105078571Y-54717276D01*
X105078571Y-54717276D02*
X105078571Y-54793466D01*
X105078571Y-54793466D02*
X105040476Y-54907752D01*
X105040476Y-54907752D02*
X104583333Y-55364895D01*
X104583333Y-55364895D02*
X105078571Y-55364895D01*
D12*
X109725333Y-45699580D02*
X109677714Y-45747200D01*
X109677714Y-45747200D02*
X109534857Y-45794819D01*
X109534857Y-45794819D02*
X109439619Y-45794819D01*
X109439619Y-45794819D02*
X109296762Y-45747200D01*
X109296762Y-45747200D02*
X109201524Y-45651961D01*
X109201524Y-45651961D02*
X109153905Y-45556723D01*
X109153905Y-45556723D02*
X109106286Y-45366247D01*
X109106286Y-45366247D02*
X109106286Y-45223390D01*
X109106286Y-45223390D02*
X109153905Y-45032914D01*
X109153905Y-45032914D02*
X109201524Y-44937676D01*
X109201524Y-44937676D02*
X109296762Y-44842438D01*
X109296762Y-44842438D02*
X109439619Y-44794819D01*
X109439619Y-44794819D02*
X109534857Y-44794819D01*
X109534857Y-44794819D02*
X109677714Y-44842438D01*
X109677714Y-44842438D02*
X109725333Y-44890057D01*
X110630095Y-44794819D02*
X110153905Y-44794819D01*
X110153905Y-44794819D02*
X110106286Y-45271009D01*
X110106286Y-45271009D02*
X110153905Y-45223390D01*
X110153905Y-45223390D02*
X110249143Y-45175771D01*
X110249143Y-45175771D02*
X110487238Y-45175771D01*
X110487238Y-45175771D02*
X110582476Y-45223390D01*
X110582476Y-45223390D02*
X110630095Y-45271009D01*
X110630095Y-45271009D02*
X110677714Y-45366247D01*
X110677714Y-45366247D02*
X110677714Y-45604342D01*
X110677714Y-45604342D02*
X110630095Y-45699580D01*
X110630095Y-45699580D02*
X110582476Y-45747200D01*
X110582476Y-45747200D02*
X110487238Y-45794819D01*
X110487238Y-45794819D02*
X110249143Y-45794819D01*
X110249143Y-45794819D02*
X110153905Y-45747200D01*
X110153905Y-45747200D02*
X110106286Y-45699580D01*
X109033333Y-49004819D02*
X108700000Y-48528628D01*
X108461905Y-49004819D02*
X108461905Y-48004819D01*
X108461905Y-48004819D02*
X108842857Y-48004819D01*
X108842857Y-48004819D02*
X108938095Y-48052438D01*
X108938095Y-48052438D02*
X108985714Y-48100057D01*
X108985714Y-48100057D02*
X109033333Y-48195295D01*
X109033333Y-48195295D02*
X109033333Y-48338152D01*
X109033333Y-48338152D02*
X108985714Y-48433390D01*
X108985714Y-48433390D02*
X108938095Y-48481009D01*
X108938095Y-48481009D02*
X108842857Y-48528628D01*
X108842857Y-48528628D02*
X108461905Y-48528628D01*
X109938095Y-48004819D02*
X109461905Y-48004819D01*
X109461905Y-48004819D02*
X109414286Y-48481009D01*
X109414286Y-48481009D02*
X109461905Y-48433390D01*
X109461905Y-48433390D02*
X109557143Y-48385771D01*
X109557143Y-48385771D02*
X109795238Y-48385771D01*
X109795238Y-48385771D02*
X109890476Y-48433390D01*
X109890476Y-48433390D02*
X109938095Y-48481009D01*
X109938095Y-48481009D02*
X109985714Y-48576247D01*
X109985714Y-48576247D02*
X109985714Y-48814342D01*
X109985714Y-48814342D02*
X109938095Y-48909580D01*
X109938095Y-48909580D02*
X109890476Y-48957200D01*
X109890476Y-48957200D02*
X109795238Y-49004819D01*
X109795238Y-49004819D02*
X109557143Y-49004819D01*
X109557143Y-49004819D02*
X109461905Y-48957200D01*
X109461905Y-48957200D02*
X109414286Y-48909580D01*
X104038095Y-53104819D02*
X104038095Y-53914342D01*
X104038095Y-53914342D02*
X104085714Y-54009580D01*
X104085714Y-54009580D02*
X104133333Y-54057200D01*
X104133333Y-54057200D02*
X104228571Y-54104819D01*
X104228571Y-54104819D02*
X104419047Y-54104819D01*
X104419047Y-54104819D02*
X104514285Y-54057200D01*
X104514285Y-54057200D02*
X104561904Y-54009580D01*
X104561904Y-54009580D02*
X104609523Y-53914342D01*
X104609523Y-53914342D02*
X104609523Y-53104819D01*
X105609523Y-54104819D02*
X105038095Y-54104819D01*
X105323809Y-54104819D02*
X105323809Y-53104819D01*
X105323809Y-53104819D02*
X105228571Y-53247676D01*
X105228571Y-53247676D02*
X105133333Y-53342914D01*
X105133333Y-53342914D02*
X105038095Y-53390533D01*
X114533580Y-34970666D02*
X114581200Y-35018285D01*
X114581200Y-35018285D02*
X114628819Y-35161142D01*
X114628819Y-35161142D02*
X114628819Y-35256380D01*
X114628819Y-35256380D02*
X114581200Y-35399237D01*
X114581200Y-35399237D02*
X114485961Y-35494475D01*
X114485961Y-35494475D02*
X114390723Y-35542094D01*
X114390723Y-35542094D02*
X114200247Y-35589713D01*
X114200247Y-35589713D02*
X114057390Y-35589713D01*
X114057390Y-35589713D02*
X113866914Y-35542094D01*
X113866914Y-35542094D02*
X113771676Y-35494475D01*
X113771676Y-35494475D02*
X113676438Y-35399237D01*
X113676438Y-35399237D02*
X113628819Y-35256380D01*
X113628819Y-35256380D02*
X113628819Y-35161142D01*
X113628819Y-35161142D02*
X113676438Y-35018285D01*
X113676438Y-35018285D02*
X113724057Y-34970666D01*
X114628819Y-34018285D02*
X114628819Y-34589713D01*
X114628819Y-34303999D02*
X113628819Y-34303999D01*
X113628819Y-34303999D02*
X113771676Y-34399237D01*
X113771676Y-34399237D02*
X113866914Y-34494475D01*
X113866914Y-34494475D02*
X113914533Y-34589713D01*
D13*
%TO.C,J3*%
X114440000Y-68310000D02*
X114440000Y-40310000D01*
X114440000Y-68310000D02*
X111780000Y-68310000D01*
X114440000Y-40310000D02*
X111780000Y-40310000D01*
X113110000Y-70910000D02*
X111780000Y-70910000D01*
X111780000Y-70910000D02*
X111780000Y-69580000D01*
X111780000Y-68310000D02*
X111780000Y-40310000D01*
%TO.C,J2*%
X91460000Y-32750000D02*
X91460000Y-70910000D01*
X91460000Y-32750000D02*
X94120000Y-32750000D01*
X91460000Y-70910000D02*
X94120000Y-70910000D01*
X92790000Y-30150000D02*
X94120000Y-30150000D01*
X94120000Y-30150000D02*
X94120000Y-31480000D01*
X94120000Y-32750000D02*
X94120000Y-70910000D01*
%TO.C,J1*%
X108310000Y-37110000D02*
X106890000Y-37110000D01*
X108310000Y-25390000D02*
X108310000Y-37110000D01*
X106890000Y-37110000D02*
X106890000Y-32610000D01*
X106050000Y-35200000D02*
X105450000Y-35200000D01*
X106000000Y-31500000D02*
X106000000Y-26000000D01*
X106000000Y-26000000D02*
X105500000Y-26000000D01*
X105750000Y-34600000D02*
X106050000Y-35200000D01*
X105500000Y-31500000D02*
X106000000Y-31500000D01*
X105500000Y-26000000D02*
X105500000Y-31500000D01*
X105450000Y-35200000D02*
X105750000Y-34600000D01*
X103500000Y-31500000D02*
X103500000Y-26000000D01*
X103500000Y-26000000D02*
X103000000Y-26000000D01*
X103250000Y-25390000D02*
X108310000Y-25390000D01*
X103250000Y-25390000D02*
X98190000Y-25390000D01*
X103000000Y-31500000D02*
X103500000Y-31500000D01*
X103000000Y-26000000D02*
X103000000Y-31500000D01*
X101000000Y-31500000D02*
X101000000Y-26000000D01*
X101000000Y-26000000D02*
X100500000Y-26000000D01*
X100500000Y-31500000D02*
X101000000Y-31500000D01*
X100500000Y-26000000D02*
X100500000Y-31500000D01*
X99610000Y-37110000D02*
X99610000Y-32610000D01*
X98190000Y-37110000D02*
X99610000Y-37110000D01*
X98190000Y-25390000D02*
X98190000Y-37110000D01*
%TO.C,D1*%
X101600000Y-40810000D02*
X101600000Y-38150000D01*
X99900000Y-40810000D02*
X101600000Y-40810000D01*
X99900000Y-40810000D02*
X99900000Y-38150000D01*
%TO.C,R3*%
X98677064Y-55185000D02*
X98222936Y-55185000D01*
X98677064Y-53715000D02*
X98222936Y-53715000D01*
%TO.C,R1*%
X94853032Y-50322936D02*
X94853032Y-50777064D01*
X96323032Y-50322936D02*
X96323032Y-50777064D01*
%TO.C,R2*%
X99935000Y-50777064D02*
X99935000Y-50322936D01*
X98465000Y-50777064D02*
X98465000Y-50322936D01*
%TO.C,R4*%
X98148500Y-42826064D02*
X98148500Y-42371936D01*
X96678500Y-42826064D02*
X96678500Y-42371936D01*
%TO.C,U2*%
X101550000Y-43785000D02*
X101310000Y-43455000D01*
X101790000Y-43455000D01*
X101550000Y-43785000D01*
G36*
X101550000Y-43785000D02*
G01*
X101310000Y-43455000D01*
X101790000Y-43455000D01*
X101550000Y-43785000D01*
G37*
X104250000Y-48810000D02*
X106200000Y-48810000D01*
X104250000Y-48810000D02*
X102300000Y-48810000D01*
X104250000Y-43690000D02*
X106200000Y-43690000D01*
X104250000Y-43690000D02*
X102300000Y-43690000D01*
%TO.C,D2*%
X107920500Y-52718000D02*
X110580500Y-52718000D01*
X107920500Y-51018000D02*
X110580500Y-51018000D01*
X107920500Y-51018000D02*
X107920500Y-52718000D01*
%TO.C,C2*%
X103454000Y-53812164D02*
X103454000Y-54027836D01*
X102734000Y-53812164D02*
X102734000Y-54027836D01*
%TO.C,C5*%
X110760000Y-46971836D02*
X110760000Y-46756164D01*
X110040000Y-46971836D02*
X110040000Y-46756164D01*
%TO.C,R5*%
X109260436Y-50635000D02*
X109714564Y-50635000D01*
X109260436Y-49165000D02*
X109714564Y-49165000D01*
%TO.C,U1*%
X105730000Y-52910000D02*
X105730000Y-52630000D01*
X106010000Y-52630000D01*
X105730000Y-52910000D01*
G36*
X105730000Y-52910000D02*
G01*
X105730000Y-52630000D01*
X106010000Y-52630000D01*
X105730000Y-52910000D01*
G37*
X105600000Y-49640000D02*
X102800000Y-49640000D01*
X105490000Y-52860000D02*
X102800000Y-52860000D01*
%TO.C,C1*%
X113234000Y-34092748D02*
X113234000Y-35515252D01*
X110514000Y-34092748D02*
X110514000Y-35515252D01*
%TD*%
%LPC*%
D15*
%TO.C,J3*%
X113110000Y-69580000D03*
D16*
X113110000Y-67040000D03*
X113110000Y-64500000D03*
X113110000Y-61960000D03*
X113110000Y-59420000D03*
X113110000Y-56880000D03*
X113110000Y-54340000D03*
X113110000Y-51800000D03*
X113110000Y-49260000D03*
X113110000Y-46720000D03*
X113110000Y-44180000D03*
X113110000Y-41640000D03*
%TD*%
D17*
%TO.C,J2*%
X92790000Y-31480000D03*
D16*
X92790000Y-34020000D03*
X92790000Y-36560000D03*
X92790000Y-39100000D03*
X92790000Y-41640000D03*
X92790000Y-44180000D03*
X92790000Y-46720000D03*
X92790000Y-49260000D03*
X92790000Y-51800000D03*
X92790000Y-54340000D03*
X92790000Y-56880000D03*
X92790000Y-59420000D03*
X92790000Y-61960000D03*
X92790000Y-64500000D03*
X92790000Y-67040000D03*
X92790000Y-69580000D03*
%TD*%
D18*
%TO.C,H3*%
X94060000Y-73390000D03*
%TD*%
%TO.C,H1*%
X111840000Y-27670000D03*
%TD*%
%TO.C,H4*%
X111840000Y-73390000D03*
%TD*%
%TO.C,H2*%
X94060000Y-27670000D03*
%TD*%
D19*
%TO.C,J1*%
X105750000Y-33100000D03*
D20*
X103250000Y-33100000D03*
X100750000Y-33100000D03*
%TD*%
D21*
%TO.C,D1*%
X100750000Y-38150000D03*
X100750000Y-40250000D03*
%TD*%
D22*
%TO.C,R3*%
X97537500Y-54450000D03*
X99362500Y-54450000D03*
%TD*%
D23*
%TO.C,R1*%
X95588032Y-51462500D03*
X95588032Y-49637500D03*
%TD*%
D24*
%TO.C,R2*%
X99200000Y-49637500D03*
X99200000Y-51462500D03*
%TD*%
%TO.C,R4*%
X97413500Y-41686500D03*
X97413500Y-43511500D03*
%TD*%
D25*
%TO.C,U2*%
X106725000Y-44345000D03*
X106725000Y-45615000D03*
X106725000Y-46885000D03*
X106725000Y-48155000D03*
X101775000Y-48155000D03*
X101775000Y-46885000D03*
X101775000Y-45615000D03*
X101775000Y-44345000D03*
%TD*%
D26*
%TO.C,D2*%
X110580500Y-51868000D03*
X108480500Y-51868000D03*
%TD*%
D27*
%TO.C,C2*%
X103094000Y-54400000D03*
X103094000Y-53440000D03*
%TD*%
D28*
%TO.C,C5*%
X110400000Y-46384000D03*
X110400000Y-47344000D03*
%TD*%
D29*
%TO.C,R5*%
X110400000Y-49900000D03*
X108575000Y-49900000D03*
%TD*%
D30*
%TO.C,U1*%
X104200000Y-51250000D03*
D31*
X103137500Y-52225000D03*
X103137500Y-51575000D03*
X103137500Y-50925000D03*
X103137500Y-50275000D03*
X105262500Y-50275000D03*
X105262500Y-50925000D03*
X105262500Y-51575000D03*
X105262500Y-52225000D03*
%TD*%
D32*
%TO.C,C1*%
X111874000Y-36279000D03*
X111874000Y-33329000D03*
%TD*%
%LPD*%
M02*
